<svg xmlns="http://www.w3.org/2000/svg" viewBox="0 0 421.69 305.65"><defs><style>.cls-1{isolation:isolate;}.cls-2{opacity:0.1;}.cls-3{fill:#eaf4fe;}.cls-32,.cls-4{opacity:0.2;}.cls-5{fill:#1f264c;}.cls-6{fill:#d3d3d3;}.cls-18,.cls-6{mix-blend-mode:multiply;}.cls-28,.cls-7{fill:#fbf8ff;}.cls-15,.cls-7{stroke:#a6a4f7;}.cls-15,.cls-31,.cls-7{stroke-miterlimit:10;}.cls-8{fill:#fadb96;}.cls-9{fill:#6e52ff;}.cls-10{fill:#ffb450;}.cls-11,.cls-18{fill:#e9e1f4;}.cls-12{fill:#e1e1e1;}.cls-13{fill:#bbb;}.cls-14,.cls-36{fill:#fff;}.cls-15,.cls-31{fill:none;}.cls-16{fill:#0a1d45;}.cls-17{fill:#fbbf62;}.cls-19{fill:#231f20;}.cls-20{fill:#e8505b;}.cls-21{fill:#fdd305;}.cls-22{fill:#4c3edb;}.cls-23{fill:#9a90fc;}.cls-24{fill:#ffcc4d;}.cls-25{fill:#ffe7b0;}.cls-26{fill:#4d3fd8;}.cls-27{fill:#8f83ff;}.cls-29{fill:#fcfaff;}.cls-30{fill:#a6a4f7;}.cls-31{stroke:#fadb96;}.cls-33{fill:#182632;}.cls-34{fill:#dc3645;}.cls-35{fill:#f1bc03;}.cls-36{opacity:0.5;}</style></defs><title>Recurso 3</title><g class="cls-1"><g id="Capa_2" data-name="Capa 2"><g id="Layer_1" data-name="Layer 1"><g class="cls-2"><path class="cls-3" d="M263.52,35.56c-17.32-7.17-43-3.59-56.75,9C196,54.67,179.89,61.84,164.35,60.65c-13.74-.6-26.28-8.37-39.42-9.56-16.73-1.2-29.87,1.79-44.21,8.36-33.46,14.34-20.31,53.77-47.79,75.27C10.23,151.45-17.85,189.69,15,213c13.74,10.16,34.65,8.37,50.78,8.37,18.52,0,32.86-3,38.83,16.72,4.19,13.15,0,31.67,15.54,35.85,14.93,3.58,31.06-3,43.61-9.56,16.13-7.17,29.27-19.12,46-25.09,19.71-7.17,43-13.74,63.92-13.14,29.27,1.19,59.14,16.13,88.42,9,14.33-3,31.06-12.55,29.87-29.28-1.8-18.51-20.91-31.06-34.06-42.41-11.35-9.56-19.11-21.51-13.14-37S369.26,107.24,374,90.52c9-32.86-33.45-33.46-53.76-35.85-12.55-1.19-26.89-2.39-39.43-5.37-13.14-3-23.3-9.56-37.64-10.76"/></g><g class="cls-4"><path class="cls-5" d="M145,64a51.8,51.8,0,0,0-7.62-18.38l5.17-6.64L129.28,25.69l-6.64,5.18a52,52,0,0,0-18.38-7.63l-1-8.34H84.51l-1,8.34a52,52,0,0,0-18.38,7.63l-6.64-5.18L45.22,38.93l5.17,6.64A51.8,51.8,0,0,0,42.77,64l-8.34,1V83.7l8.34,1a51.73,51.73,0,0,0,7.62,18.38l-5.17,6.64L58.45,123l6.64-5.18a51.82,51.82,0,0,0,18.38,7.63l1,8.34h18.71l1-8.34a51.82,51.82,0,0,0,18.38-7.63l6.64,5.18,13.23-13.24-5.17-6.64A51.73,51.73,0,0,0,145,84.73l8.34-1V65ZM93.19,119.41A45.22,45.22,0,1,1,138.4,74.19,45.22,45.22,0,0,1,93.19,119.41Z"/><circle class="cls-5" cx="93.19" cy="74.19" r="32.25" transform="translate(-6.86 9.54) rotate(-5.65)"/><path class="cls-5" d="M415,226.11a45.23,45.23,0,0,0,.23-17.42l6.46-3.54-6.06-15.22-7.13,1.86a45.47,45.47,0,0,0-12.14-12.49l2.06-7.06-15.05-6.48-3.72,6.35a45.58,45.58,0,0,0-17.41-.23l-3.55-6.45-15.22,6.06,1.86,7.13a45.33,45.33,0,0,0-12.49,12.14l-7.06-2.06-6.48,15.05,6.35,3.72a45.38,45.38,0,0,0-.23,17.41L319,228.43,325,243.65l7.13-1.86a45.16,45.16,0,0,0,12.14,12.48l-2.06,7.07,15.05,6.47,3.72-6.35a45.18,45.18,0,0,0,17.41.23l3.55,6.46,15.22-6.06L395.33,255a45.3,45.3,0,0,0,12.48-12.14l7.07,2.06,6.47-15Zm-58.8,22a34.5,34.5,0,1,1,45.33-18.06A34.5,34.5,0,0,1,356.2,248.13Z"/><path class="cls-5" d="M417.59,139a16.63,16.63,0,0,0,.08-6.4l2.38-1.3-2.23-5.6-2.62.69a16.78,16.78,0,0,0-4.46-4.59l.75-2.6L406,116.86l-1.36,2.34a16.83,16.83,0,0,0-6.4-.09l-1.31-2.37L391.3,119l.69,2.62a16.64,16.64,0,0,0-4.59,4.46l-2.6-.76-2.38,5.53,2.34,1.37a16.63,16.63,0,0,0-.09,6.4l-2.37,1.3,2.23,5.59,2.62-.68a16.49,16.49,0,0,0,4.46,4.59l-.76,2.59,5.53,2.38,1.37-2.33a16.82,16.82,0,0,0,6.4.09l1.3,2.37,5.59-2.23-.68-2.62a16.78,16.78,0,0,0,4.59-4.46l2.59.75,2.38-5.52ZM396,147.13a12.68,12.68,0,1,1,16.66-6.63A12.68,12.68,0,0,1,396,147.13Z"/></g><path class="cls-6" d="M319.81,256.34c0,4-42.73,7.26-95.44,7.26s-95.43-3.25-95.43-7.26,42.73-7.26,95.43-7.26S319.81,252.33,319.81,256.34Z"/><path class="cls-7" d="M232,149.65H117.81a8.81,8.81,0,0,1-8.8-8.8V48.62a8.8,8.8,0,0,1,8.8-8.79H232a8.8,8.8,0,0,1,8.8,8.79v92.23A8.81,8.81,0,0,1,232,149.65ZM117.81,40.79A7.84,7.84,0,0,0,110,48.62v92.23a7.84,7.84,0,0,0,7.83,7.83H232a7.84,7.84,0,0,0,7.83-7.83V48.62A7.84,7.84,0,0,0,232,40.79Z"/><path class="cls-8" d="M317.84,199a18.82,18.82,0,1,0,18.81,18.82A18.82,18.82,0,0,0,317.84,199Zm0,33A14.14,14.14,0,1,1,332,217.81,14.14,14.14,0,0,1,317.84,232Z"/><path class="cls-7" d="M319.31,92.26V212a5.58,5.58,0,0,1-5.57,5.57H131.21a5.57,5.57,0,0,1-5.57-5.57V92.26A12.87,12.87,0,0,1,138.51,79.4H306.44A12.87,12.87,0,0,1,319.31,92.26Z"/><path class="cls-9" d="M319.31,92.26v.55H125.64v-.55A12.87,12.87,0,0,1,138.51,79.4H306.44A12.87,12.87,0,0,1,319.31,92.26Z"/><path class="cls-10" d="M159.54,103H136.29a2.81,2.81,0,0,1-2.81-2.81h0a2.81,2.81,0,0,1,2.81-2.81h23.25a2.81,2.81,0,0,1,2.81,2.81h0A2.81,2.81,0,0,1,159.54,103Z"/><path class="cls-11" d="M245.4,102.38H235.15a1.65,1.65,0,0,1-1.65-1.65h0a1.65,1.65,0,0,1,1.65-1.65H245.4a1.64,1.64,0,0,1,1.64,1.65h0A1.64,1.64,0,0,1,245.4,102.38Z"/><path class="cls-11" d="M264.76,102.38H254.52a1.65,1.65,0,0,1-1.65-1.65h0a1.65,1.65,0,0,1,1.65-1.65h10.24a1.65,1.65,0,0,1,1.65,1.65h0A1.65,1.65,0,0,1,264.76,102.38Z"/><path class="cls-11" d="M284.42,102.38H274.18a1.65,1.65,0,0,1-1.65-1.65h0a1.65,1.65,0,0,1,1.65-1.65h10.24a1.65,1.65,0,0,1,1.65,1.65h0A1.65,1.65,0,0,1,284.42,102.38Z"/><path class="cls-11" d="M303.79,102.38H293.55a1.65,1.65,0,0,1-1.65-1.65h0a1.65,1.65,0,0,1,1.65-1.65h10.24a1.65,1.65,0,0,1,1.65,1.65h0A1.65,1.65,0,0,1,303.79,102.38Z"/><rect class="cls-11" x="142.78" y="119.84" width="79.69" height="52.12" rx="1.95"/><rect class="cls-11" x="238.8" y="119.84" width="46.06" height="8.22" rx="1.51"/><path class="cls-11" d="M271.07,138H240.26a1.47,1.47,0,0,1-1.46-1.46h0a1.46,1.46,0,0,1,1.46-1.46h30.81a1.46,1.46,0,0,1,1.46,1.46h0A1.46,1.46,0,0,1,271.07,138Z"/><path class="cls-11" d="M301.9,145H240.26a1.46,1.46,0,0,1-1.46-1.46h0a1.47,1.47,0,0,1,1.46-1.46H301.9a1.47,1.47,0,0,1,1.46,1.46h0A1.46,1.46,0,0,1,301.9,145Z"/><path class="cls-11" d="M301.9,152.09H240.26a1.46,1.46,0,0,1-1.46-1.46h0a1.46,1.46,0,0,1,1.46-1.46H301.9a1.46,1.46,0,0,1,1.46,1.46h0A1.46,1.46,0,0,1,301.9,152.09Z"/><path class="cls-11" d="M301.9,159.14H240.26a1.46,1.46,0,0,1-1.46-1.46h0a1.47,1.47,0,0,1,1.46-1.46H301.9a1.47,1.47,0,0,1,1.46,1.46h0A1.46,1.46,0,0,1,301.9,159.14Z"/><path class="cls-10" d="M259.68,174.26H242a3.18,3.18,0,0,1-3.18-3.18h0A3.18,3.18,0,0,1,242,167.9h17.7a3.18,3.18,0,0,1,3.18,3.18h0A3.18,3.18,0,0,1,259.68,174.26Z"/><path class="cls-11" d="M319.1,191.75V212a5.57,5.57,0,0,1-5.57,5.57H131a5.58,5.58,0,0,1-5.57-5.57V191.75Z"/><rect class="cls-12" x="206.43" y="217.54" width="31.68" height="26.36"/><rect class="cls-13" x="206.43" y="217.54" width="31.68" height="8.35"/><path class="cls-14" d="M266.76,256.34h-89V254.2a10.22,10.22,0,0,1,10.09-10.3h68.81a10.22,10.22,0,0,1,10.09,10.3Z"/><path class="cls-9" d="M267.84,203.45v14.09H177.11V203.45a3,3,0,0,1,2.95-2.95h84.83A3,3,0,0,1,267.84,203.45Z"/><path class="cls-10" d="M289.9,86.72a1.68,1.68,0,1,1-1.68-1.67A1.68,1.68,0,0,1,289.9,86.72Z"/><path class="cls-10" d="M299.06,86.72a1.68,1.68,0,1,1-1.68-1.67A1.68,1.68,0,0,1,299.06,86.72Z"/><path class="cls-10" d="M307.82,86.72a1.68,1.68,0,1,1-1.68-1.67A1.68,1.68,0,0,1,307.82,86.72Z"/><path class="cls-15" d="M319.31,92.26V212a5.58,5.58,0,0,1-5.57,5.57H131.21a5.57,5.57,0,0,1-5.57-5.57V92.26A12.87,12.87,0,0,1,138.51,79.4H306.44A12.87,12.87,0,0,1,319.31,92.26Z"/><path class="cls-16" d="M183.61,130.37h0a9.13,9.13,0,0,0-9.13,9.13v2.88h2.9v-3.17a6.23,6.23,0,0,1,6.23-6.23h0a6.23,6.23,0,0,1,6.23,6.23v3.17h2.91V139.5A9.14,9.14,0,0,0,183.61,130.37Z"/><path class="cls-17" d="M192.68,142.38H174.54a1.22,1.22,0,0,0-1.21,1.21v14.9a1.21,1.21,0,0,0,1.21,1.21h18.14a1.21,1.21,0,0,0,1.21-1.21v-14.9A1.21,1.21,0,0,0,192.68,142.38ZM185,154.28h-2.76l.36-3a1.85,1.85,0,0,1-.86-1.57,1.88,1.88,0,1,1,3.76,0,1.85,1.85,0,0,1-.86,1.57Z"/><rect class="cls-18" x="89.35" y="71.63" width="78.87" height="60.31" rx="2.32"/><rect class="cls-14" x="79.87" y="71.63" width="82.47" height="53.75"/><path class="cls-19" d="M162.77,125.81H79.44V71.19h83.33Zm-82.46-.87h81.6V72.06H80.31Z"/><polygon class="cls-20" points="162.34 125.38 128.6 95.01 119.99 105.34 96.09 84.19 79.87 103.61 79.87 125.38 162.34 125.38"/><path class="cls-21" d="M128.78,86.65a12.48,12.48,0,1,0,12.48-12.47A12.48,12.48,0,0,0,128.78,86.65Z"/><rect class="cls-18" x="295.71" y="122.35" width="45.95" height="61.38" rx="1.49"/><rect class="cls-22" x="303.29" y="115.5" width="45.95" height="61.38" rx="1.49"/><rect class="cls-23" x="311.28" y="122.17" width="29.97" height="4.05"/><path class="cls-24" d="M332.54,170.36H320a2.27,2.27,0,0,1-2.27-2.26h0a2.27,2.27,0,0,1,2.27-2.27h12.55a2.27,2.27,0,0,1,2.27,2.27h0A2.27,2.27,0,0,1,332.54,170.36Z"/><rect class="cls-23" x="314.01" y="132.11" width="13.95" height="1.92" rx="0.88"/><rect class="cls-23" x="314.01" y="136.82" width="29.71" height="1.92" rx="0.88"/><rect class="cls-23" x="314.01" y="141.53" width="29.71" height="1.91" rx="0.88"/><path class="cls-23" d="M309.16,133.07a1,1,0,0,1-1.91,0,1,1,0,1,1,1.91,0Z"/><rect class="cls-23" x="314.01" y="147.75" width="13.95" height="1.91" rx="0.88"/><rect class="cls-23" x="314.01" y="152.46" width="29.71" height="1.91" rx="0.88"/><rect class="cls-23" x="314.01" y="157.17" width="29.71" height="1.92" rx="0.88"/><path class="cls-23" d="M309.16,148.71a1,1,0,1,1-1-1A1,1,0,0,1,309.16,148.71Z"/><path class="cls-24" d="M369.42,114.19l-22,18.13a5.3,5.3,0,0,1-.54.39,5.69,5.69,0,0,1-1.51.68l-3.56,1a.52.52,0,0,1-.6-.73l1.67-3.3a5.83,5.83,0,0,1,.94-1.33,5.68,5.68,0,0,1,.51-.47l21.87-18a2.53,2.53,0,0,1,3.44.15A2.43,2.43,0,0,1,369.42,114.19Z"/><path class="cls-25" d="M346.9,132.71a5.69,5.69,0,0,1-1.51.68l-2.09.59-1.47.42a.52.52,0,0,1-.6-.73l.69-1.36,1-1.94a5.83,5.83,0,0,1,.94-1.33A4.31,4.31,0,0,1,346.9,132.71Z"/><path class="cls-24" d="M343.3,134l-1.47.42a.52.52,0,0,1-.6-.73l.69-1.36A1.36,1.36,0,0,1,343.3,134Z"/><rect class="cls-18" x="214.23" y="30.62" width="63.03" height="45.36" rx="3.61"/><rect class="cls-26" x="209.66" y="25.83" width="63.03" height="45.36" rx="3.61"/><path class="cls-22" d="M272.7,62.48v5.1a3.61,3.61,0,0,1-3.62,3.61h-55.8a3.61,3.61,0,0,1-3.62-3.61v-5.1Z"/><path class="cls-9" d="M243.13,67.26a1.93,1.93,0,0,0,.36,1.14h-28.2a1.14,1.14,0,0,1-1.14-1.14,1.15,1.15,0,0,1,1.14-1.14h28.2A2,2,0,0,0,243.13,67.26Z"/><path class="cls-27" d="M252.87,67.26a1.13,1.13,0,0,1-1.14,1.14h-8.24a1.93,1.93,0,0,1-.36-1.14,2,2,0,0,1,.36-1.14h8.24A1.15,1.15,0,0,1,252.87,67.26Z"/><path class="cls-14" d="M247.18,67.26a2,2,0,0,1-2,2,2,2,0,0,1-1.66-.89,1.93,1.93,0,0,1-.36-1.14,2,2,0,0,1,2-2,2,2,0,0,1,2,2Z"/><path class="cls-9" d="M246.15,67.27a1,1,0,1,1-1-1A1,1,0,0,1,246.15,67.27Z"/><path class="cls-27" d="M261.38,68.27v-1.9a.33.33,0,0,1,.48-.3l1.9,1a.33.33,0,0,1,0,.6l-1.9.95A.33.33,0,0,1,261.38,68.27Z"/><path class="cls-27" d="M266.49,67.9V66.74c0-.15.13-.25.24-.19l.92.59a.22.22,0,0,1,0,.36l-.92.59C266.62,68.15,266.49,68.05,266.49,67.9Z"/><path class="cls-27" d="M267.74,67.9V66.74c0-.15.12-.25.23-.19l.92.59a.22.22,0,0,1,0,.36l-.92.59C267.86,68.15,267.74,68.05,267.74,67.9Z"/><path class="cls-27" d="M259,67.9V66.74c0-.15-.13-.25-.23-.19l-.92.59a.22.22,0,0,0,0,.36l.92.59C258.91,68.15,259,68.05,259,67.9Z"/><path class="cls-27" d="M257.8,67.9V66.74c0-.15-.13-.25-.24-.19l-.92.59a.22.22,0,0,0,0,.36l.92.59C257.67,68.15,257.8,68.05,257.8,67.9Z"/><path class="cls-28" d="M252.41,44.73A11.23,11.23,0,1,1,241.18,33.5,11.23,11.23,0,0,1,252.41,44.73Z"/><path class="cls-9" d="M238.21,48.19V41.28a1,1,0,0,1,1.49-.81L245,43.93a1,1,0,0,1,0,1.61L239.7,49A1,1,0,0,1,238.21,48.19Z"/><rect class="cls-18" x="89.3" y="190.41" width="52.03" height="43.35" rx="4.58"/><rect class="cls-29" x="83.48" y="184.27" width="52.03" height="43.35" rx="4.58"/><path class="cls-9" d="M105.64,220.76h-2a.59.59,0,0,1-.58-.72l2.17-9.56a.6.6,0,0,1,.58-.47h3.35a.6.6,0,0,1,.58.73L107.88,219A2.3,2.3,0,0,1,105.64,220.76Z"/><path class="cls-24" d="M123,207.31h-1.89V200.8H123a3.25,3.25,0,0,1,3.25,3.25h0A3.25,3.25,0,0,1,123,207.31Z"/><path class="cls-24" d="M100.05,197.11h5.11a0,0,0,0,1,0,0v14.08a0,0,0,0,1,0,0h-5.11a3.75,3.75,0,0,1-3.75-3.75v-6.58A3.75,3.75,0,0,1,100.05,197.11Z"/><path class="cls-25" d="M105.16,197.11l17.14-2.81a1.41,1.41,0,0,1,1.63,1.39v16.73a1.41,1.41,0,0,1-1.62,1.39l-17.15-2.62Z"/><path class="cls-25" d="M102.85,200.47H99.42a.38.38,0,0,1-.38-.38h0a.38.38,0,0,1,.38-.38h3.43a.38.38,0,0,1,.38.38h0A.38.38,0,0,1,102.85,200.47Z"/><path class="cls-25" d="M102.85,201.9H99.42a.38.38,0,0,1-.38-.38h0a.38.38,0,0,1,.38-.38h3.43a.38.38,0,0,1,.38.38h0A.38.38,0,0,1,102.85,201.9Z"/><path class="cls-30" d="M99.37,159.49a1.67,1.67,0,1,1,1.66-1.66A1.66,1.66,0,0,1,99.37,159.49Z"/><path class="cls-30" d="M91.39,159.49a1.67,1.67,0,1,1,1.67-1.66A1.66,1.66,0,0,1,91.39,159.49Z"/><path class="cls-30" d="M83.41,159.49a1.67,1.67,0,0,1,0-3.33,1.67,1.67,0,1,1,0,3.33Z"/><path class="cls-30" d="M75.44,159.49a1.67,1.67,0,1,1,1.66-1.66A1.66,1.66,0,0,1,75.44,159.49Z"/><path class="cls-30" d="M67.46,159.49a1.67,1.67,0,1,1,1.66-1.66A1.66,1.66,0,0,1,67.46,159.49Z"/><path class="cls-30" d="M104.43,166.59a1.67,1.67,0,1,1,1.67-1.66A1.66,1.66,0,0,1,104.43,166.59Z"/><path class="cls-30" d="M96.45,166.59a1.67,1.67,0,0,1,0-3.33,1.67,1.67,0,1,1,0,3.33Z"/><path class="cls-30" d="M88.48,166.59a1.67,1.67,0,1,1,1.66-1.66A1.66,1.66,0,0,1,88.48,166.59Z"/><path class="cls-30" d="M80.5,166.59a1.67,1.67,0,1,1,1.66-1.66A1.66,1.66,0,0,1,80.5,166.59Z"/><path class="cls-30" d="M72.52,166.59a1.67,1.67,0,0,1,0-3.33,1.67,1.67,0,1,1,0,3.33Z"/><path class="cls-30" d="M109,173.69a1.67,1.67,0,0,1,0-3.33,1.67,1.67,0,1,1,0,3.33Z"/><path class="cls-30" d="M101,173.69a1.67,1.67,0,0,1,0-3.33,1.67,1.67,0,1,1,0,3.33Z"/><path class="cls-30" d="M93.06,173.69A1.67,1.67,0,1,1,94.72,172,1.66,1.66,0,0,1,93.06,173.69Z"/><path class="cls-30" d="M85.08,173.69A1.67,1.67,0,1,1,86.74,172,1.66,1.66,0,0,1,85.08,173.69Z"/><path class="cls-30" d="M77.1,173.69a1.67,1.67,0,0,1,0-3.33,1.67,1.67,0,1,1,0,3.33Z"/><path class="cls-8" d="M186.43,233H160.14a1.88,1.88,0,0,1-1.88-1.88h0a1.88,1.88,0,0,1,1.88-1.87h26.29a1.88,1.88,0,0,1,1.88,1.87h0A1.88,1.88,0,0,1,186.43,233Z"/><path class="cls-8" d="M186.43,242.41H160.14a1.88,1.88,0,0,1-1.88-1.88h0a1.88,1.88,0,0,1,1.88-1.88h26.29a1.88,1.88,0,0,1,1.88,1.88h0A1.88,1.88,0,0,1,186.43,242.41Z"/><path class="cls-15" d="M335,54.54l5.75-1.09V48.31l-5.75-1h0a17.08,17.08,0,0,0-2.43-5.85l3.3-4.82L332.23,33l-4.77,3.36a17.11,17.11,0,0,0-5.85-2.43h0l-1.08-5.74h-5.15l-1,5.74h0a17.13,17.13,0,0,0-5.85,2.44h0l-4.83-3.3-3.64,3.64,3.36,4.77A16.9,16.9,0,0,0,301,47.33h0l-5.75,1.08v5.15l5.75,1a16.92,16.92,0,0,0,2.43,5.85l-3.3,4.83,3.64,3.64,4.77-3.36a17.18,17.18,0,0,0,5.85,2.42h0l1.08,5.74h5.15l1-5.74a16.92,16.92,0,0,0,5.85-2.43l4.83,3.3,3.64-3.64-3.36-4.77A17,17,0,0,0,335,54.54Zm-17,7.05a10.66,10.66,0,1,1,10.65-10.66A10.66,10.66,0,0,1,318,61.59Z"/><path class="cls-31" d="M354.82,88.05l3.31,1.16,1.55-2.68L357,84.29h0a10.34,10.34,0,0,0,.49-3.77L360.65,79l-.8-3-3.49.32a10.21,10.21,0,0,0-2.32-3h0L355.2,70l-2.68-1.54-2.23,2.69h0a10.21,10.21,0,0,0-3.78-.49h0L345,67.49l-3,.8.32,3.49a10.25,10.25,0,0,0-3,2.32h0L336,72.94l-1.55,2.67,2.69,2.24a10.42,10.42,0,0,0-.49,3.78l-3.16,1.52.8,3,3.49-.32a9.93,9.93,0,0,0,2.31,3h0l-1.16,3.31,2.68,1.55L343.85,91a10.34,10.34,0,0,0,3.77.49l1.52,3.16,3-.8-.32-3.49a10,10,0,0,0,3-2.31Zm-10.95-1.43a6.4,6.4,0,1,1,8.73-2.35A6.4,6.4,0,0,1,343.87,86.62Z"/><polygon class="cls-32" points="321.14 305.65 126.36 305.65 152.07 269.02 295.42 269.02 321.14 305.65"/><polygon class="cls-12" points="314.6 297.25 132.46 297.25 150.2 269.02 296.86 269.02 314.6 297.25"/><rect class="cls-13" x="132.46" y="297.25" width="182.14" height="3.2"/><polygon class="cls-14" points="159.93 274 150.73 274 152.07 271.11 160.99 271.11 159.93 274"/><polygon class="cls-14" points="161.12 274 162.29 271.11 171.2 271.11 170.33 274 161.12 274"/><polygon class="cls-14" points="171.52 274 172.5 271.11 181.41 271.11 180.72 274 171.52 274"/><polygon class="cls-14" points="181.95 274 182.74 271.11 191.65 271.11 191.15 274 181.95 274"/><polygon class="cls-14" points="192.35 274 192.96 271.11 201.88 271.11 201.56 274 192.35 274"/><polygon class="cls-14" points="202.76 274 203.19 271.11 212.1 271.11 211.97 274 202.76 274"/><polygon class="cls-14" points="213.14 274 213.38 271.11 222.29 271.11 222.35 274 213.14 274"/><polygon class="cls-14" points="223.46 274 223.51 271.11 232.42 271.11 232.66 274 223.46 274"/><polygon class="cls-14" points="233.84 274 233.71 271.11 242.62 271.11 243.04 274 233.84 274"/><polygon class="cls-14" points="244.24 274 243.93 271.11 252.84 271.11 253.45 274 244.24 274"/><polygon class="cls-14" points="254.65 274 254.15 271.11 263.06 271.11 263.86 274 254.65 274"/><polygon class="cls-14" points="265.08 274 264.39 271.11 273.31 271.11 274.29 274 265.08 274"/><polygon class="cls-14" points="275.48 274 274.6 271.11 283.52 271.11 284.68 274 275.48 274"/><polygon class="cls-14" points="285.87 274 295.08 274 293.73 271.11 284.81 271.11 285.87 274"/><polygon class="cls-14" points="158.02 279.41 148.48 279.41 149.88 276.41 159.12 276.41 158.02 279.41"/><polygon class="cls-14" points="159.25 279.41 160.46 276.41 169.7 276.41 168.8 279.41 159.25 279.41"/><polygon class="cls-14" points="170.03 279.41 171.05 276.41 180.29 276.41 179.58 279.41 170.03 279.41"/><polygon class="cls-14" points="180.85 279.41 181.67 276.41 190.91 276.41 190.39 279.41 180.85 279.41"/><polygon class="cls-14" points="191.64 279.41 192.27 276.41 201.51 276.41 201.18 279.41 191.64 279.41"/><polygon class="cls-14" points="202.43 279.41 202.87 276.41 212.1 276.41 211.97 279.41 202.43 279.41"/><polygon class="cls-14" points="213.19 279.41 213.43 276.41 222.67 276.41 222.73 279.41 213.19 279.41"/><polygon class="cls-14" points="223.88 279.41 223.94 276.41 233.18 276.41 233.42 279.41 223.88 279.41"/><polygon class="cls-14" points="234.64 279.41 234.51 276.41 243.75 276.41 244.19 279.41 234.64 279.41"/><polygon class="cls-14" points="245.43 279.41 245.1 276.41 254.34 276.41 254.97 279.41 245.43 279.41"/><polygon class="cls-14" points="256.22 279.41 255.7 276.41 264.94 276.41 265.76 279.41 256.22 279.41"/><polygon class="cls-14" points="267.04 279.41 266.32 276.41 275.56 276.41 276.58 279.41 267.04 279.41"/><polygon class="cls-14" points="277.81 279.41 276.91 276.41 286.15 276.41 287.36 279.41 277.81 279.41"/><polygon class="cls-14" points="288.59 279.41 298.13 279.41 296.74 276.41 287.5 276.41 288.59 279.41"/><polygon class="cls-14" points="156.31 284.72 146.48 284.72 147.92 281.63 157.43 281.63 156.31 284.72"/><polygon class="cls-14" points="157.58 284.72 158.82 281.63 168.34 281.63 167.41 284.72 157.58 284.72"/><polygon class="cls-14" points="168.68 284.72 169.72 281.63 179.24 281.63 178.51 284.72 168.68 284.72"/><polygon class="cls-14" points="179.82 284.72 180.66 281.63 190.18 281.63 189.65 284.72 179.82 284.72"/><polygon class="cls-14" points="190.93 284.72 191.58 281.63 201.1 281.63 200.76 284.72 190.93 284.72"/><polygon class="cls-14" points="202.04 284.72 202.5 281.63 212.01 281.63 211.87 284.72 202.04 284.72"/><polygon class="cls-14" points="213.13 284.72 213.38 281.63 222.9 281.63 222.96 284.72 213.13 284.72"/><polygon class="cls-14" points="224.14 284.72 224.2 281.63 233.72 281.63 233.97 284.72 224.14 284.72"/><polygon class="cls-14" points="235.23 284.72 235.09 281.63 244.6 281.63 245.06 284.72 235.23 284.72"/><polygon class="cls-14" points="246.34 284.72 246 281.63 255.52 281.63 256.17 284.72 246.34 284.72"/><polygon class="cls-14" points="257.45 284.72 256.92 281.63 266.43 281.63 267.28 284.72 257.45 284.72"/><polygon class="cls-14" points="268.59 284.72 267.86 281.63 277.37 281.63 278.42 284.72 268.59 284.72"/><polygon class="cls-14" points="279.69 284.72 278.76 281.63 288.28 281.63 289.52 284.72 279.69 284.72"/><polygon class="cls-14" points="290.79 284.72 300.62 284.72 299.18 281.63 289.66 281.63 290.79 284.72"/><polygon class="cls-14" points="153.92 290.14 143.75 290.14 145.24 286.95 155.09 286.95 153.92 290.14"/><polygon class="cls-14" points="155.24 290.14 156.53 286.95 166.37 286.95 165.41 290.14 155.24 290.14"/><polygon class="cls-14" points="166.72 290.14 167.81 286.95 177.65 286.95 176.9 290.14 166.72 290.14"/><polygon class="cls-14" points="178.25 290.14 179.13 286.95 188.97 286.95 188.42 290.14 178.25 290.14"/><polygon class="cls-14" points="189.75 290.14 190.42 286.95 200.27 286.95 199.92 290.14 189.75 290.14"/><polygon class="cls-14" points="245.29 286.95 235.44 286.95 234.02 286.95 224.18 286.95 222.83 286.95 212.98 286.95 201.72 286.95 201.25 290.14 212.72 290.14 222.89 290.14 224.12 290.14 234.29 290.14 235.59 290.14 245.76 290.14 245.29 286.95"/><polygon class="cls-14" points="247.09 290.14 246.74 286.95 256.58 286.95 257.26 290.14 247.09 290.14"/><polygon class="cls-14" points="258.59 290.14 258.03 286.95 267.88 286.95 268.76 290.14 258.59 290.14"/><polygon class="cls-14" points="270.11 290.14 269.35 286.95 279.2 286.95 280.28 290.14 270.11 290.14"/><polygon class="cls-14" points="281.6 290.14 280.63 286.95 290.48 286.95 291.77 290.14 281.6 290.14"/><polygon class="cls-14" points="293.09 290.14 303.26 290.14 301.76 286.95 291.92 286.95 293.09 290.14"/><path class="cls-32" d="M331.65,280.31c3.32-5.74,13.37-6.14,22.45-.89s13.77,14.15,10.45,19.89-13.36,6.14-22.45.89S328.34,286.05,331.65,280.31Z"/><path class="cls-14" d="M364.36,294.1h0a2.11,2.11,0,0,1-.29.76h0c-3.44,5.57-21.8,2.39-23.84-2.54-.18-.43-.36-.82-.53-1.19-2.54-5.47-4.16-3.95-8.63-7.65a5,5,0,0,1-.52-.5l-.06-.07c-2.52-2.86.58-6.52.58-6.52l.57-.43h0a14.42,14.42,0,0,1,4.62-2.25,12.63,12.63,0,0,1,2.19-.42C351.53,271.8,365.56,288.44,364.36,294.1Z"/><path class="cls-12" d="M364.06,294.87c-3.44,5.57-21.8,2.39-23.84-2.54-.18-.43-.36-.82-.53-1.19-2.56-5.45-4.3-3.79-8.63-7.65-.19-.17-.36-.34-.52-.5l-.06-.07c-2.52-2.86.58-6.52.58-6.52l.57-.43c-.37,1.06-.72,3.45,2.18,5.78a10.17,10.17,0,0,0,2.26,1.31c.64.27,1.92,1.24,4.19,4.42,3.65,5.07,3.15,5.72,11.24,7.93C359.4,297.58,363.86,295,364.06,294.87Z"/><path class="cls-12" d="M344.27,277.74c-4.68-3.89-8-4-8-4a12.63,12.63,0,0,1,2.19-.42A11.81,11.81,0,0,1,344.27,277.74Z"/><g class="cls-4"><circle cx="163.85" cy="34.49" r="31.3" transform="translate(128.54 198.17) rotate(-89.72)"/></g><path class="cls-33" d="M195.15,31.3A31.3,31.3,0,1,1,163.85,0,31.3,31.3,0,0,1,195.15,31.3Z"/><path class="cls-14" d="M163.85,60.13A28.83,28.83,0,1,1,192.68,31.3,28.87,28.87,0,0,1,163.85,60.13Z"/><rect class="cls-33" x="162.84" y="5.09" width="1.08" height="6.01"/><rect class="cls-33" x="162.84" y="51.34" width="1.08" height="6.01"/><rect class="cls-33" x="137.25" y="30.68" width="6.01" height="1.08"/><rect class="cls-33" x="183.5" y="30.68" width="6.01" height="1.08"/><rect class="cls-33" x="176.73" y="14.33" width="6.01" height="1.08" transform="translate(42.09 131.4) rotate(-44.98)"/><rect class="cls-33" x="144.02" y="47.04" width="6.01" height="1.08" transform="translate(9.42 117.9) rotate(-45)"/><rect class="cls-33" x="146.49" y="11.86" width="1.08" height="6.01" transform="translate(32.52 108.28) rotate(-44.98)"/><rect class="cls-33" x="179.2" y="44.57" width="1.08" height="6.01" transform="translate(19.01 141.04) rotate(-45)"/><g class="cls-4"><path d="M192.68,31.3c0,.55,0,1.1-.05,1.65a28.83,28.83,0,0,0-57.57,0c0-.55-.05-1.1-.05-1.65a28.84,28.84,0,0,1,57.67,0Z"/></g><rect class="cls-34" x="167.65" y="27.47" width="0.93" height="10.96" transform="translate(75.88 177.31) rotate(-68.51)"/><polygon class="cls-33" points="163.85 31.68 147.03 31.68 147.03 30.76 162.92 30.76 162.92 17.71 163.85 17.71 163.85 31.68"/><rect class="cls-32" x="275.96" y="203.17" width="28.68" height="30.39" transform="translate(-3.13 4.22) rotate(-0.83)"/><rect class="cls-35" x="274.39" y="202.5" width="28.68" height="28.68" transform="translate(-3.1 4.2) rotate(-0.83)"/><rect class="cls-36" x="286.1" y="195.55" width="4.79" height="9.76" transform="translate(-2.87 4.19) rotate(-0.83)"/></g></g></g></svg>