<svg xmlns="http://www.w3.org/2000/svg" xmlns:xlink="http://www.w3.org/1999/xlink" viewBox="0 0 392.96 339.98"><defs><style>.cls-1{isolation:isolate;}.cls-15,.cls-2{fill:#e5e3e3;}.cls-2,.cls-31,.cls-37,.cls-38,.cls-41,.cls-45,.cls-49,.cls-5{mix-blend-mode:multiply;}.cls-3{fill:#241734;}.cls-4,.cls-5{fill:#442d5d;}.cls-6{fill:#303030;}.cls-7{fill:#9bb1d8;}.cls-8{fill:#e1f0ff;}.cls-9{fill:#c1d0dc;}.cls-10{fill:url(#Degradado_sin_nombre_2);}.cls-11{fill:#9ca8b2;}.cls-12{fill:#a7b3bf;}.cls-13,.cls-51,.cls-54{fill:#fff;}.cls-14{fill:#fbf5e7;}.cls-16{fill:#13345a;}.cls-17{fill:#d5e6f5;}.cls-18{fill:#bfdbf5;}.cls-19{fill:#82b2fc;}.cls-20{fill:#214a80;}.cls-21{fill:#ffbb6c;}.cls-22{fill:#ff9c1d;}.cls-23{fill:#78549f;}.cls-24{fill:#f9f9f9;}.cls-25{fill:#bcbace;}.cls-26{fill:#5e2920;}.cls-27{fill:#e0e4ed;}.cls-28{fill:#032827;}.cls-29{fill:#4037f7;}.cls-30{fill:#9592ff;}.cls-32{fill:#919191;}.cls-33{fill:#4e5151;}.cls-34{fill:#670f10;}.cls-35{fill:#231f20;}.cls-36,.cls-37{fill:#4fc690;}.cls-37{opacity:0.2;}.cls-38{fill:url(#linear-gradient);}.cls-39{fill:#d81b61;}.cls-40{fill:#f06392;}.cls-41{opacity:0.5;fill:url(#linear-gradient-2);}.cls-42{fill:#ec407a;}.cls-43{fill:#faa629;}.cls-44{fill:#f78c1f;}.cls-45{fill:url(#linear-gradient-3);}.cls-46{fill:#fcb64e;}.cls-47{fill:#229795;}.cls-48{fill:#6fc9c5;}.cls-49{fill:url(#linear-gradient-4);}.cls-50{fill:#56bab3;}.cls-51{opacity:0.8;}.cls-52{fill:#fff9c4;opacity:0.67;mix-blend-mode:hard-light;}.cls-53,.cls-56{fill:none;stroke-linecap:round;}.cls-53{stroke:#37474f;}.cls-53,.cls-54{stroke-miterlimit:10;}.cls-54{stroke:#fff;stroke-width:0.75px;}.cls-55{fill:#37474f;}.cls-56{stroke:#f06392;stroke-linejoin:round;stroke-width:2px;}.cls-57{fill:#f1f5fa;}</style><linearGradient id="Degradado_sin_nombre_2" x1="237.7" y1="225.58" x2="259.45" y2="225.58" gradientUnits="userSpaceOnUse"><stop offset="0" stop-color="#a3b2bc"/><stop offset="0.24" stop-color="#adbcc7"/><stop offset="0.66" stop-color="#c7d6e3"/><stop offset="1" stop-color="#e1f0ff"/></linearGradient><linearGradient id="linear-gradient" x1="3048.72" y1="167.75" x2="3138.34" y2="167.75" gradientTransform="matrix(-1, 0, 0, 1, 3428.58, 0)" gradientUnits="userSpaceOnUse"><stop offset="0" stop-color="#ad68a4"/><stop offset="0.11" stop-color="#b170a9" stop-opacity="0.95"/><stop offset="0.3" stop-color="#bd86b6" stop-opacity="0.8"/><stop offset="0.54" stop-color="#d0a9cb" stop-opacity="0.57"/><stop offset="0.81" stop-color="#ebdae9" stop-opacity="0.25"/><stop offset="1" stop-color="#fff" stop-opacity="0"/></linearGradient><linearGradient id="linear-gradient-2" x1="3050.62" y1="94.94" x2="3091.56" y2="149.37" gradientTransform="matrix(-1, 0, 0, 1, 3428.58, 0)" gradientUnits="userSpaceOnUse"><stop offset="0" stop-color="#fff" stop-opacity="0"/><stop offset="0.17" stop-color="#ecdae1" stop-opacity="0.22"/><stop offset="0.45" stop-color="#cfa3b4" stop-opacity="0.56"/><stop offset="0.69" stop-color="#ba7c93" stop-opacity="0.8"/><stop offset="0.88" stop-color="#ad637f" stop-opacity="0.95"/><stop offset="1" stop-color="#a85a78"/></linearGradient><linearGradient id="linear-gradient-3" x1="3079.51" y1="125.27" x2="3112.74" y2="143.09" gradientTransform="matrix(-1, 0, 0, 1, 3428.58, 0)" gradientUnits="userSpaceOnUse"><stop offset="0" stop-color="#fff" stop-opacity="0"/><stop offset="0.15" stop-color="#feeed6" stop-opacity="0.19"/><stop offset="0.38" stop-color="#fdd599" stop-opacity="0.47"/><stop offset="0.59" stop-color="#fbc169" stop-opacity="0.7"/><stop offset="0.77" stop-color="#fbb246" stop-opacity="0.86"/><stop offset="0.91" stop-color="#faa931" stop-opacity="0.96"/><stop offset="1" stop-color="#faa629"/></linearGradient><linearGradient id="linear-gradient-4" x1="3085.05" y1="155.77" x2="3129.68" y2="155.77" gradientTransform="matrix(-1, 0, 0, 1, 3428.58, 0)" gradientUnits="userSpaceOnUse"><stop offset="0" stop-color="#fff" stop-opacity="0"/><stop offset="0.2" stop-color="#cee9ea" stop-opacity="0.26"/><stop offset="0.47" stop-color="#93ced2" stop-opacity="0.58"/><stop offset="0.71" stop-color="#68bbc0" stop-opacity="0.81"/><stop offset="0.89" stop-color="#4eafb5" stop-opacity="0.95"/><stop offset="1" stop-color="#44abb1"/></linearGradient></defs><title>Recurso 6</title><g class="cls-1"><g id="Capa_2" data-name="Capa 2"><g id="Layer_1" data-name="Layer 1"><polygon class="cls-2" points="222.65 320.52 235.99 316.84 363.58 243.27 303.02 212.73 222.65 320.52"/><polygon class="cls-2" points="110.69 269.08 346.35 168.81 238.48 154.01 195.46 193.33 110.69 269.08"/><polygon class="cls-3" points="352.18 243.65 352.07 245.96 347.53 249.03 174.1 286.1 167 286.95 167.11 284.57 171.01 283.64 352.18 243.65"/><g class="cls-1"><path class="cls-3" d="M351.2,244.12c1.51.92,1.14,2.54-.83,3.61l-124.63,71.9c-2,1.07-4.78,1.2-6.29.28l-51.53-31.7c-1.51-.92-1.14-2.53.83-3.61l127.92-69.79c2-1.07,4.78-1.19,6.29-.28Z"/></g><g class="cls-1"><path class="cls-4" d="M351.26,242.32c1.51.92,1.14,2.53-.83,3.61l-124.62,71.9c-2,1.07-4.79,1.2-6.3.28L168,286.4c-1.51-.91-1.14-2.53.82-3.6L296.72,213c2-1.07,4.79-1.2,6.3-.28Z"/></g><path class="cls-5" d="M330.93,244.23c-1.35-8.44-18.85-17.39-28.23-14.75a15.22,15.22,0,0,0-3.68,1.91c-3.13,1.91-2.85,5.32.82,7.43l15.77,9.11c3.67,2.12,9.21,2.35,12.39.51l.85-.49C330.54,247,331.22,245.61,330.93,244.23Z"/><path class="cls-6" d="M331,242.94a3.72,3.72,0,0,1-2.14,3l-.85.49c-3.18,1.83-8.73,1.61-12.39-.51l-15.77-9.11c-1.95-1.12-3-2.55-3-3.92h0v1.34c0,1.38,1.06,2.84,3,4l15.77,9.11c3.66,2.12,9.21,2.35,12.39.51l.85-.49a3.71,3.71,0,0,0,2.14-3v-1.34Z"/><path class="cls-7" d="M331,242.67c0,.14.38,2-3,3.74h0c-3.18,1.83-8.73,1.61-12.39-.51l-15.79-9.11c-1.8-1-2.81-2.34-3-3.62.06,1.37,1.08,2.8,3,3.93l15.77,9.1c3.66,2.12,9.21,2.35,12.39.51l.85-.49a3.69,3.69,0,0,0,2.14-3Z"/><path class="cls-8" d="M331,242.2c-1.35-8.44-18.85-17.39-28.24-14.75a15.14,15.14,0,0,0-3.67,1.91c-3.13,1.91-2.85,5.32.82,7.43l15.77,9.11c3.66,2.12,9.21,2.34,12.39.51l.85-.49C330.57,244.94,331.25,243.58,331,242.2Z"/><path class="cls-9" d="M331,242.2c-1.35-8.44-18.85-17.39-28.24-14.75a11.21,11.21,0,0,0-2.61,1.24,39.6,39.6,0,0,1,29.43,16.79A3.23,3.23,0,0,0,331,242.2Z"/><path class="cls-10" d="M248.24,261.22a.52.52,0,0,1-.31-.1l-7.08-4.89a2.18,2.18,0,0,1,0-3.74l17.08-10.26a.93.93,0,0,0,.44-.81.88.88,0,0,0-.48-.78l-17.6-10.23A5,5,0,0,1,237.7,226l.36-35.56a.54.54,0,0,1,.55-.53.53.53,0,0,1,.53.55L238.78,226a3.92,3.92,0,0,0,2,3.43l17.61,10.22a2,2,0,0,1,1,1.71,2,2,0,0,1-1,1.75L241.4,253.41a1.09,1.09,0,0,0-.53,1,1.05,1.05,0,0,0,.56.94l7.12,4.93a.54.54,0,0,1,.13.75A.53.53,0,0,1,248.24,261.22Z"/><path class="cls-11" d="M315.82,255.07c.88.51.66,1.45-.48,2.09l-83,46.3a4.1,4.1,0,0,1-3.65.22l-25.86-15.19c-.87-.52-.66-1.45.48-2.09l83-46.31a4.17,4.17,0,0,1,3.65-.22Z"/><path class="cls-8" d="M316.11,253.86c.87.51.66,1.45-.48,2.08l-83,46.31a4.15,4.15,0,0,1-3.66.22l-25.85-15.2c-.88-.51-.67-1.45.48-2.08l83-46.31a4.15,4.15,0,0,1,3.66-.22Z"/><path class="cls-12" d="M232,274.54c.21.13.15.35-.12.5l-4.32,2.42a1,1,0,0,1-.88.05l-1.71-1c-.21-.12-.15-.34.12-.5l4.32-2.41a1,1,0,0,1,.87,0Z"/><path class="cls-8" d="M227,277.84a.91.91,0,0,1-.53-.11l-1.72-1a.4.4,0,0,1-.2-.45.79.79,0,0,1,.42-.49l4.33-2.41a1.19,1.19,0,0,1,1.12-.07l1.72,1a.39.39,0,0,1,.2.45.8.8,0,0,1-.42.48l-4.33,2.42A1.38,1.38,0,0,1,227,277.84Zm-1.92-1.6,0,0,1.72,1a.73.73,0,0,0,.61,0l4.33-2.41,0,0,0,0-1.72-1a.73.73,0,0,0-.61,0l-4.33,2.42Z"/><path class="cls-12" d="M226,277.87c.21.12.15.35-.12.5l-4.33,2.41a1,1,0,0,1-.86.05l-1.72-1c-.21-.12-.16-.34.12-.49l4.32-2.42a1,1,0,0,1,.87-.05Z"/><path class="cls-8" d="M221.08,281.16a.94.94,0,0,1-.54-.1l-1.71-1a.4.4,0,0,1-.2-.45.77.77,0,0,1,.42-.48l4.33-2.42a1.25,1.25,0,0,1,1.12-.07l1.71,1a.4.4,0,0,1,.21.45.85.85,0,0,1-.42.49L221.67,281A1.38,1.38,0,0,1,221.08,281.16Zm-1.92-1.59,0,0,1.72,1a.74.74,0,0,0,.61,0l4.32-2.42,0,0,0,0-1.72-1a.73.73,0,0,0-.61,0l-4.33,2.41Z"/><path class="cls-12" d="M220.08,281.2c.2.12.15.34-.12.49l-4.33,2.42a1,1,0,0,1-.87.05l-1.71-1c-.21-.12-.16-.34.11-.49l4.33-2.42a1,1,0,0,1,.87-.05Z"/><path class="cls-8" d="M215.12,284.49a1,1,0,0,1-.54-.1l-1.71-1a.4.4,0,0,1-.2-.45.82.82,0,0,1,.42-.49l4.32-2.41a1.27,1.27,0,0,1,1.13-.07l1.71,1a.39.39,0,0,1,.21.45.84.84,0,0,1-.42.48l-4.33,2.42A1.38,1.38,0,0,1,215.12,284.49Zm-1.92-1.59s0,0,0,0l1.72,1a.77.77,0,0,0,.61,0l4.32-2.42.05,0,0,0-1.71-1a.73.73,0,0,0-.61,0l-4.33,2.42Z"/><path class="cls-12" d="M214.12,284.52c.2.12.15.35-.12.5l-4.33,2.41a1,1,0,0,1-.87.05l-1.71-1c-.21-.13-.16-.35.11-.5l4.33-2.41a1,1,0,0,1,.87-.06Z"/><path class="cls-8" d="M209.16,287.82a1,1,0,0,1-.54-.11l-1.71-1a.4.4,0,0,1-.2-.45.79.79,0,0,1,.42-.49l4.32-2.42a1.23,1.23,0,0,1,1.13-.06l1.71,1a.38.38,0,0,1,.2.45.77.77,0,0,1-.41.49l-4.33,2.42A1.54,1.54,0,0,1,209.16,287.82Zm-1.92-1.6,0,0,1.71,1a.76.76,0,0,0,.62,0l4.32-2.41.05,0,0,0-1.71-1a.73.73,0,0,0-.61,0l-4.33,2.41Z"/><path class="cls-12" d="M218.42,287.05c.2.12.15.35-.12.5L214,290a1,1,0,0,1-.87.05l-3.26-1.91c-.21-.12-.16-.35.11-.5l4.33-2.42a1,1,0,0,1,.87-.05Z"/><path class="cls-8" d="M213.46,290.35a1,1,0,0,1-.53-.11l-3.26-1.92a.4.4,0,0,1-.21-.45.84.84,0,0,1,.42-.48l4.33-2.42a1.23,1.23,0,0,1,1.13-.06l3.26,1.91a.4.4,0,0,1,.2.45.85.85,0,0,1-.42.49l-4.33,2.41A1.56,1.56,0,0,1,213.46,290.35ZM210,287.84l0,0,3.26,1.91a.7.7,0,0,0,.61,0l4.33-2.42,0,0,0,0L215,285.36a.76.76,0,0,0-.62,0L210,287.81Z"/><path class="cls-12" d="M237,286.52c.21.12.16.34-.12.49l-4.32,2.42a1,1,0,0,1-.87.05l-3.26-1.92c-.21-.12-.16-.34.11-.49l4.33-2.42a1,1,0,0,1,.87,0Z"/><path class="cls-8" d="M232.06,289.81a1,1,0,0,1-.53-.1l-3.26-1.92a.38.38,0,0,1-.2-.45.78.78,0,0,1,.41-.48l4.33-2.42a1.27,1.27,0,0,1,1.13-.07l3.26,1.92a.4.4,0,0,1,.2.45.77.77,0,0,1-.42.48l-4.32,2.42A1.47,1.47,0,0,1,232.06,289.81Zm-3.47-2.5,0,0,3.26,1.91a.77.77,0,0,0,.61,0l4.33-2.42,0,0,0,0-3.26-1.91a.73.73,0,0,0-.61,0l-4.33,2.42Z"/><path class="cls-12" d="M231.33,284.72c.21.13.16.35-.12.5l-4.32,2.42a1,1,0,0,1-.87.05l-3.26-1.92c-.21-.12-.16-.34.11-.49l4.33-2.42a1,1,0,0,1,.87-.05Z"/><path class="cls-8" d="M226.37,288a.91.91,0,0,1-.53-.11L222.58,286a.38.38,0,0,1-.2-.45.8.8,0,0,1,.41-.49l4.33-2.41a1.27,1.27,0,0,1,1.13-.07l3.26,1.92a.4.4,0,0,1,.2.45.8.8,0,0,1-.42.48L227,287.85A1.47,1.47,0,0,1,226.37,288Zm-3.47-2.5,0,0,3.26,1.92a.73.73,0,0,0,.61,0l4.33-2.41,0,0,0,0L227.89,283a.7.7,0,0,0-.61,0L223,285.49Z"/><path class="cls-12" d="M224.15,283.85c.2.13.15.35-.12.5l-4.33,2.41a1,1,0,0,1-.87.06l-3.26-1.92c-.2-.12-.15-.34.12-.5L220,282a1,1,0,0,1,.87-.05Z"/><path class="cls-8" d="M219.19,287.15a.94.94,0,0,1-.54-.11l-3.25-1.91a.39.39,0,0,1-.21-.45.82.82,0,0,1,.42-.49l4.33-2.41a1.22,1.22,0,0,1,1.12-.07l3.26,1.91a.42.42,0,0,1,.21.46.84.84,0,0,1-.42.48L219.78,287A1.38,1.38,0,0,1,219.19,287.15Zm-3.47-2.5,0,0,3.27,1.92a.71.71,0,0,0,.6,0l4.33-2.41.05,0,0,0-3.26-1.91a.7.7,0,0,0-.61,0l-4.33,2.42Z"/><path class="cls-12" d="M255.71,281.05c.2.13.16.35-.12.5L251.27,284a1,1,0,0,1-.87,0l-3.26-1.92c-.21-.12-.16-.34.11-.49l4.33-2.42a1,1,0,0,1,.87-.05Z"/><path class="cls-8" d="M250.75,284.35a1,1,0,0,1-.53-.1L247,282.33a.38.38,0,0,1-.2-.45.8.8,0,0,1,.41-.49L251.5,279a1.27,1.27,0,0,1,1.13-.07l3.26,1.92a.4.4,0,0,1,.2.45.84.84,0,0,1-.42.48l-4.32,2.42A1.47,1.47,0,0,1,250.75,284.35Zm-3.47-2.5,0,0,3.26,1.92a.73.73,0,0,0,.61,0l4.33-2.41,0,0,0,0-3.26-1.91a.73.73,0,0,0-.61,0l-4.33,2.42Z"/><path class="cls-12" d="M261.45,277.85c.21.13.16.35-.12.5L257,280.76a1,1,0,0,1-.87.05l-3.26-1.91c-.21-.12-.16-.35.11-.5l4.33-2.41a1,1,0,0,1,.87-.05Z"/><path class="cls-8" d="M256.49,281.15A1,1,0,0,1,256,281l-3.26-1.91a.39.39,0,0,1-.2-.45.77.77,0,0,1,.41-.49l4.33-2.41a1.24,1.24,0,0,1,1.13-.07l3.26,1.91a.41.41,0,0,1,.2.45.82.82,0,0,1-.42.49L257.09,281A1.48,1.48,0,0,1,256.49,281.15Zm-3.47-2.5,0,0,3.26,1.92a.73.73,0,0,0,.61,0l4.33-2.41,0,0,0,0L258,276.16a.71.71,0,0,0-.6,0l-4.33,2.41Z"/><g class="cls-1"><path class="cls-12" d="M241.33,274.27c.21.12.16.34-.12.49l-4.32,2.42a1,1,0,0,1-.87.05l-3.26-1.92c-.21-.12-.16-.34.11-.49l4.33-2.42a1,1,0,0,1,.87,0Z"/><path class="cls-8" d="M236.37,277.56a1,1,0,0,1-.53-.1l-3.26-1.92a.38.38,0,0,1-.2-.45.78.78,0,0,1,.41-.48l4.33-2.42a1.27,1.27,0,0,1,1.13-.07l3.26,1.92a.4.4,0,0,1,.2.45.8.8,0,0,1-.42.48L237,277.39A1.38,1.38,0,0,1,236.37,277.56Zm-3.47-2.5,0,0L236.2,277a.73.73,0,0,0,.61,0l4.33-2.42,0,0,0,0-3.26-1.91a.7.7,0,0,0-.61,0L233,275Z"/><path class="cls-12" d="M248.51,275.14c.21.12.16.34-.11.49l-4.33,2.42a1,1,0,0,1-.87.05l-3.26-1.92c-.21-.12-.16-.34.11-.49l4.33-2.42a1,1,0,0,1,.87,0Z"/><path class="cls-8" d="M243.55,278.43a1,1,0,0,1-.53-.1l-3.26-1.92a.4.4,0,0,1-.2-.45.84.84,0,0,1,.42-.48l4.33-2.42a1.25,1.25,0,0,1,1.12-.07l3.26,1.92a.38.38,0,0,1,.2.45.83.83,0,0,1-.41.49l-4.33,2.41A1.43,1.43,0,0,1,243.55,278.43Zm-3.46-2.5,0,0,3.26,1.91a.7.7,0,0,0,.61,0l4.33-2.41.05,0,0,0-3.26-1.91a.7.7,0,0,0-.61,0l-4.33,2.41Z"/><path class="cls-12" d="M235.6,277.46c.21.12.16.35-.12.5l-4.32,2.41a1,1,0,0,1-.87.05L227,278.51c-.21-.12-.16-.35.11-.5l4.33-2.41a1,1,0,0,1,.87-.05Z"/><path class="cls-8" d="M230.64,280.76a.91.91,0,0,1-.53-.11l-3.26-1.91a.39.39,0,0,1-.2-.45.76.76,0,0,1,.42-.49l4.32-2.41a1.24,1.24,0,0,1,1.13-.07l3.26,1.91a.41.41,0,0,1,.2.46.77.77,0,0,1-.42.48l-4.32,2.41A1.44,1.44,0,0,1,230.64,280.76Zm-3.46-2.5,0,0,3.26,1.92a.73.73,0,0,0,.61,0l4.33-2.41,0,0s0,0,0,0l-3.26-1.92a.73.73,0,0,0-.61,0l-4.33,2.42S227.19,278.24,227.18,278.26Z"/><path class="cls-12" d="M254.25,276.9c.21.13.15.35-.12.5l-4.32,2.41a1,1,0,0,1-.87.05L245.68,278c-.21-.12-.16-.34.11-.5l4.33-2.41A1,1,0,0,1,251,275Z"/><path class="cls-8" d="M249.29,280.2a.91.91,0,0,1-.53-.11l-3.26-1.91a.39.39,0,0,1-.2-.45.8.8,0,0,1,.41-.49l4.33-2.41a1.21,1.21,0,0,1,1.13-.07l3.26,1.92a.38.38,0,0,1,.2.44.79.79,0,0,1-.42.49L249.88,280A1.38,1.38,0,0,1,249.29,280.2Zm-3.46-2.5,0,0,3.26,1.92a.74.74,0,0,0,.61,0l4.33-2.41,0,0,0,0-3.26-1.91a.7.7,0,0,0-.61,0l-4.33,2.42Z"/><path class="cls-12" d="M242.79,278.33c.2.12.15.35-.12.5l-4.33,2.41a1,1,0,0,1-.87.06l-3.26-1.92c-.2-.12-.15-.34.12-.5l4.32-2.41a1,1,0,0,1,.88-.05Z"/><path class="cls-8" d="M237.83,281.63a.92.92,0,0,1-.54-.11L234,279.61a.4.4,0,0,1-.21-.45.85.85,0,0,1,.42-.49l4.33-2.41a1.24,1.24,0,0,1,1.13-.07l3.25,1.92a.38.38,0,0,1,.21.44.82.82,0,0,1-.42.49l-4.33,2.42A1.38,1.38,0,0,1,237.83,281.63Zm-3.47-2.5,0,0,3.25,1.92a.76.76,0,0,0,.62,0l4.32-2.41,0,0,0,0-3.25-1.91a.72.72,0,0,0-.62,0l-4.32,2.42Z"/><path class="cls-12" d="M229.87,280.66c.21.12.16.34-.11.5l-4.33,2.41a1,1,0,0,1-.87.05l-3.26-1.91c-.21-.13-.16-.35.12-.5l4.32-2.41a1,1,0,0,1,.87-.06Z"/><path class="cls-8" d="M224.91,284a1,1,0,0,1-.53-.1l-3.26-1.92a.4.4,0,0,1-.2-.45.77.77,0,0,1,.42-.48l4.32-2.42a1.23,1.23,0,0,1,1.13-.06l3.26,1.91a.38.38,0,0,1,.2.45.8.8,0,0,1-.41.49l-4.33,2.41A1.39,1.39,0,0,1,224.91,284Zm-3.46-2.5,0,0,3.26,1.91a.73.73,0,0,0,.61,0l4.33-2.42,0,0,0,0L226.43,279a.73.73,0,0,0-.61,0l-4.32,2.41Z"/><path class="cls-12" d="M248.5,280.11c.21.12.16.34-.11.49L244.06,283a1,1,0,0,1-.87.05l-3.25-1.92c-.21-.12-.16-.34.11-.49l4.32-2.42a1,1,0,0,1,.87-.05Z"/><path class="cls-8" d="M243.55,283.4a1,1,0,0,1-.54-.1l-3.26-1.92a.4.4,0,0,1-.2-.45.84.84,0,0,1,.42-.48L244.3,278a1.27,1.27,0,0,1,1.13-.07l3.25,1.92a.4.4,0,0,1,.21.45.88.88,0,0,1-.42.49l-4.33,2.41A1.38,1.38,0,0,1,243.55,283.4Zm-3.47-2.5,0,0,3.25,1.91a.72.72,0,0,0,.62,0l4.32-2.41.05,0,0,0-3.26-1.91a.7.7,0,0,0-.61,0l-4.32,2.41Z"/><path class="cls-12" d="M237.06,281.53c.2.12.15.34-.12.5l-4.32,2.41a1,1,0,0,1-.87.05l-3.26-1.92c-.21-.12-.16-.34.11-.49l4.33-2.42a1,1,0,0,1,.87-.05Z"/><path class="cls-8" d="M232.1,284.82a1,1,0,0,1-.54-.1l-3.25-1.92a.39.39,0,0,1-.21-.45.84.84,0,0,1,.42-.48l4.33-2.42a1.23,1.23,0,0,1,1.13-.06l3.26,1.91a.4.4,0,0,1,.2.45.85.85,0,0,1-.42.49l-4.33,2.41A1.38,1.38,0,0,1,232.1,284.82Zm-3.47-2.5,0,0,3.26,1.91a.73.73,0,0,0,.61,0l4.32-2.42,0,0,0,0-3.26-1.91a.73.73,0,0,0-.61,0l-4.33,2.41Z"/><path class="cls-12" d="M242.76,283.31c.21.13.16.35-.11.5l-4.33,2.41a1,1,0,0,1-.87,0l-3.26-1.91c-.21-.12-.16-.35.11-.5l4.33-2.41a1,1,0,0,1,.87-.05Z"/><path class="cls-8" d="M237.8,286.61a1,1,0,0,1-.53-.11L234,284.59a.4.4,0,0,1-.2-.45.82.82,0,0,1,.42-.49l4.32-2.41a1.21,1.21,0,0,1,1.13-.07l3.26,1.91a.39.39,0,0,1,.2.45.77.77,0,0,1-.41.49l-4.33,2.42A1.59,1.59,0,0,1,237.8,286.61Zm-3.46-2.51,0,0,3.26,1.92a.73.73,0,0,0,.61,0l4.33-2.41.05,0,0,0-3.26-1.92a.73.73,0,0,0-.61,0l-4.33,2.41Z"/></g><path class="cls-12" d="M265.7,265.55c.2.12.15.34-.12.49l-4.33,2.42a1,1,0,0,1-.87.05l-3.25-1.92c-.21-.12-.16-.34.11-.49l4.33-2.42a1,1,0,0,1,.87-.05Z"/><path class="cls-8" d="M260.74,268.84a1,1,0,0,1-.53-.1L257,266.82a.39.39,0,0,1-.21-.45.84.84,0,0,1,.42-.48l4.33-2.42a1.23,1.23,0,0,1,1.13-.06l3.26,1.91a.38.38,0,0,1,.19.45.8.8,0,0,1-.41.49l-4.33,2.41A1.38,1.38,0,0,1,260.74,268.84Zm-3.47-2.5,0,0,3.26,1.91a.73.73,0,0,0,.61,0l4.32-2.42.05,0,0,0-3.27-1.92a.74.74,0,0,0-.61,0l-4.32,2.41Z"/><path class="cls-12" d="M284.41,265c.21.12.16.35-.12.5L280,268a.94.94,0,0,1-.86.05l-3.26-1.91c-.21-.12-.16-.35.11-.5l4.33-2.41a1,1,0,0,1,.87-.05Z"/><path class="cls-8" d="M279.45,268.34a1,1,0,0,1-.53-.11l-3.26-1.91a.38.38,0,0,1-.2-.45.77.77,0,0,1,.41-.49L280.2,263a1.21,1.21,0,0,1,1.13-.07l3.26,1.91a.4.4,0,0,1,.2.45.79.79,0,0,1-.42.49L280,268.16A1.56,1.56,0,0,1,279.45,268.34ZM276,265.83l0,0,3.26,1.92a.73.73,0,0,0,.61,0l4.32-2.41a.11.11,0,0,0,.05,0l0,0L281,263.35a.73.73,0,0,0-.61,0L276,265.8Z"/><path class="cls-12" d="M277.22,264.08c.21.13.16.35-.11.5L272.78,267a1,1,0,0,1-.87.06l-3.26-1.92c-.21-.12-.16-.34.11-.49l4.33-2.42a1,1,0,0,1,.87-.05Z"/><path class="cls-8" d="M272.26,267.38a1,1,0,0,1-.53-.1l-3.26-1.92a.38.38,0,0,1-.2-.45.83.83,0,0,1,.41-.49L273,262a1.27,1.27,0,0,1,1.13-.07l3.26,1.92a.4.4,0,0,1,.2.45.8.8,0,0,1-.42.48l-4.32,2.42A1.47,1.47,0,0,1,272.26,267.38Zm-3.47-2.5,0,0,3.26,1.91a.73.73,0,0,0,.61,0l4.33-2.41,0,0,0,0-3.26-1.91a.73.73,0,0,0-.61,0l-4.33,2.42Z"/><path class="cls-12" d="M270,258.29c.21.12.16.34-.11.49l-4.32,2.42a1,1,0,0,1-.87.05l-3.27-1.92c-.2-.12-.15-.34.12-.49l4.33-2.42a1,1,0,0,1,.87-.05Z"/><path class="cls-8" d="M265,261.58a1,1,0,0,1-.53-.1l-3.26-1.92a.37.37,0,0,1-.2-.45.83.83,0,0,1,.41-.49l4.33-2.41a1.27,1.27,0,0,1,1.13-.07l3.26,1.92a.4.4,0,0,1,.2.45.84.84,0,0,1-.42.48l-4.33,2.42A1.38,1.38,0,0,1,265,261.58Zm-3.47-2.5,0,0,3.26,1.91a.73.73,0,0,0,.61,0l4.33-2.41,0,0,0,0-3.26-1.91a.75.75,0,0,0-.62,0l-4.32,2.42Z"/><path class="cls-12" d="M275.69,255.09c.21.12.16.35-.11.5L271.25,258a1,1,0,0,1-.87.05l-3.26-1.91c-.21-.13-.15-.35.12-.5l4.32-2.41a1,1,0,0,1,.87-.06Z"/><path class="cls-8" d="M270.73,258.39a1,1,0,0,1-.53-.11l-3.26-1.91a.41.41,0,0,1-.2-.45.82.82,0,0,1,.42-.49l4.33-2.41a1.19,1.19,0,0,1,1.12-.07l3.26,1.91a.39.39,0,0,1,.2.45.77.77,0,0,1-.41.49l-4.33,2.41A1.55,1.55,0,0,1,270.73,258.39Zm-3.46-2.51,0,0,3.26,1.91a.72.72,0,0,0,.62,0l4.32-2.42.05,0,0,0-3.26-1.92a.74.74,0,0,0-.61,0l-4.33,2.41Z"/><path class="cls-12" d="M277.15,259.16c.21.12.16.34-.11.49l-4.33,2.42a1,1,0,0,1-.87.05l-3.26-1.92c-.21-.12-.16-.34.12-.49l4.32-2.42a1,1,0,0,1,.87-.05Z"/><path class="cls-8" d="M272.19,262.45a1,1,0,0,1-.53-.1l-3.26-1.92a.4.4,0,0,1-.2-.45.79.79,0,0,1,.42-.49l4.32-2.41a1.27,1.27,0,0,1,1.13-.07l3.26,1.92a.38.38,0,0,1,.2.45.81.81,0,0,1-.42.49l-4.32,2.41A1.43,1.43,0,0,1,272.19,262.45Zm-3.46-2.5s0,0,0,0l3.26,1.91a.7.7,0,0,0,.61,0l4.33-2.41,0,0s0,0,0,0l-3.26-1.91a.73.73,0,0,0-.61,0l-4.33,2.41Z"/><path class="cls-12" d="M271.42,262.35c.21.12.16.35-.11.5L267,265.26a1,1,0,0,1-.87.06l-3.26-1.92c-.21-.12-.16-.35.12-.5l4.32-2.41a1,1,0,0,1,.87-.05Z"/><path class="cls-8" d="M266.46,265.65a1,1,0,0,1-.53-.11l-3.26-1.91a.4.4,0,0,1-.2-.45.79.79,0,0,1,.42-.49l4.32-2.41a1.21,1.21,0,0,1,1.13-.07l3.26,1.91a.39.39,0,0,1,.2.45.77.77,0,0,1-.41.49l-4.33,2.41A1.4,1.4,0,0,1,266.46,265.65Zm-3.46-2.5,0,0,3.26,1.92a.73.73,0,0,0,.61,0l4.33-2.41,0,0,0,0L268,260.66a.73.73,0,0,0-.61,0L263,263.11Z"/><g class="cls-1"><path class="cls-12" d="M271.48,267.29c.2.12.15.35-.12.5L267,270.2a1,1,0,0,1-.86.05l-3.26-1.91c-.21-.13-.16-.35.11-.5l4.33-2.41a1,1,0,0,1,.86-.06Z"/><path class="cls-8" d="M266.52,270.58a.87.87,0,0,1-.53-.1l-3.27-1.92a.4.4,0,0,1-.2-.44.82.82,0,0,1,.42-.49l4.33-2.42a1.21,1.21,0,0,1,1.12-.06l3.27,1.91a.4.4,0,0,1,.2.45.85.85,0,0,1-.42.49l-4.33,2.41A1.38,1.38,0,0,1,266.52,270.58Zm-3.47-2.5,0,0,3.26,1.91a.7.7,0,0,0,.61,0l4.32-2.42.05,0,0,0L268,265.6a.76.76,0,0,0-.62,0l-4.32,2.41Z"/><path class="cls-12" d="M278.67,268.24c.21.13.16.35-.12.5l-4.32,2.41a1,1,0,0,1-.87.06l-3.26-1.92c-.21-.12-.16-.34.11-.5l4.33-2.41a1,1,0,0,1,.87-.05Z"/><path class="cls-8" d="M273.71,271.54a.91.91,0,0,1-.53-.11l-3.26-1.91a.39.39,0,0,1-.2-.45.8.8,0,0,1,.41-.49l4.33-2.41a1.27,1.27,0,0,1,1.13-.07l3.26,1.91a.42.42,0,0,1,.2.46.84.84,0,0,1-.42.48l-4.32,2.42A1.64,1.64,0,0,1,273.71,271.54Zm-3.47-2.5,0,0,3.26,1.92a.73.73,0,0,0,.61,0l4.32-2.41,0,0,0,0-3.26-1.91a.69.69,0,0,0-.61,0L270.29,269Z"/><path class="cls-12" d="M265.73,270.49c.21.13.16.35-.11.5l-4.33,2.41a1,1,0,0,1-.87.06l-3.26-1.92c-.21-.12-.15-.34.12-.5l4.32-2.41a1,1,0,0,1,.87-.05Z"/><path class="cls-8" d="M260.77,273.79a1,1,0,0,1-.53-.1L257,271.77a.4.4,0,0,1-.2-.45.85.85,0,0,1,.42-.49l4.33-2.41a1.25,1.25,0,0,1,1.12-.07l3.26,1.92a.38.38,0,0,1,.2.45.78.78,0,0,1-.41.48l-4.33,2.42A1.39,1.39,0,0,1,260.77,273.79Zm-3.46-2.5,0,0,3.26,1.92a.73.73,0,0,0,.61,0l4.33-2.41,0,0,0,0-3.26-1.91a.73.73,0,0,0-.61,0l-4.33,2.42Z"/><path class="cls-12" d="M272.92,271.45c.22.12.16.34-.11.49l-4.32,2.42a1,1,0,0,1-.87.05l-3.26-1.92c-.21-.12-.16-.34.11-.49l4.33-2.42a1,1,0,0,1,.87-.05Z"/><path class="cls-8" d="M268,274.74a1,1,0,0,1-.53-.1l-3.26-1.92a.38.38,0,0,1-.2-.45.83.83,0,0,1,.41-.49l4.33-2.41a1.27,1.27,0,0,1,1.13-.07l3.26,1.92a.4.4,0,0,1,.2.45.88.88,0,0,1-.42.49l-4.33,2.41A1.38,1.38,0,0,1,268,274.74Zm-3.47-2.5,0,0,3.26,1.91a.73.73,0,0,0,.61,0l4.32-2.42,0,0,0,0-3.26-1.91a.73.73,0,0,0-.61,0l-4.33,2.42Z"/></g><g class="cls-1"><path class="cls-12" d="M243.92,267.89c.21.12.15.35-.12.5l-4.32,2.41a1,1,0,0,1-.87.05l-1.72-1c-.2-.13-.15-.35.12-.5l4.33-2.41a1,1,0,0,1,.87-.06Z"/><path class="cls-8" d="M239,271.19a.91.91,0,0,1-.53-.11l-1.72-1a.39.39,0,0,1-.2-.44.82.82,0,0,1,.42-.49l4.33-2.41a1.19,1.19,0,0,1,1.12-.07l1.72,1a.41.41,0,0,1,.2.45.82.82,0,0,1-.42.49L239.56,271A1.44,1.44,0,0,1,239,271.19Zm-1.92-1.6,0,0,1.71,1a.73.73,0,0,0,.61,0l4.33-2.41,0,0,0,0-1.72-1a.74.74,0,0,0-.61,0l-4.32,2.41Z"/><path class="cls-12" d="M252.78,267.87c.21.13.16.35-.11.5l-4.33,2.41a1,1,0,0,1-.87.06l-3.26-1.92c-.21-.12-.16-.34.12-.5l4.32-2.41a1,1,0,0,1,.87-.05Z"/><path class="cls-8" d="M247.82,271.17a1,1,0,0,1-.53-.1L244,269.15a.4.4,0,0,1-.2-.45.85.85,0,0,1,.42-.49l4.32-2.41a1.24,1.24,0,0,1,1.13-.07l3.26,1.92a.38.38,0,0,1,.2.45.78.78,0,0,1-.41.48L248.42,271A1.39,1.39,0,0,1,247.82,271.17Zm-3.46-2.51,0,0,3.26,1.92a.73.73,0,0,0,.61,0l4.33-2.41,0,0,0,0-3.26-1.91a.7.7,0,0,0-.61,0l-4.32,2.42Z"/><path class="cls-12" d="M260,268.74c.21.13.16.35-.12.5l-4.32,2.42a1,1,0,0,1-.87,0l-3.26-1.92c-.21-.12-.16-.34.11-.49l4.33-2.42a1,1,0,0,1,.87-.05Z"/><path class="cls-8" d="M255,272a.91.91,0,0,1-.53-.11L251.22,270a.39.39,0,0,1-.2-.45.8.8,0,0,1,.41-.49l4.33-2.41a1.24,1.24,0,0,1,1.13-.07l3.26,1.92a.4.4,0,0,1,.2.45.8.8,0,0,1-.42.48l-4.33,2.42A1.38,1.38,0,0,1,255,272Zm-3.47-2.5,0,0,3.26,1.92a.73.73,0,0,0,.61,0l4.33-2.41,0,0,0,0-3.26-1.91a.73.73,0,0,0-.61,0l-4.33,2.42Z"/><path class="cls-12" d="M247.05,271.07c.21.12.16.34-.11.5L242.62,274a1,1,0,0,1-.87,0l-3.26-1.91c-.21-.13-.16-.35.11-.5l4.33-2.41a1,1,0,0,1,.86-.06Z"/><path class="cls-8" d="M242.1,274.36a.94.94,0,0,1-.54-.1l-3.26-1.92a.39.39,0,0,1-.2-.44.82.82,0,0,1,.42-.49l4.33-2.42a1.21,1.21,0,0,1,1.12-.06l3.27,1.91a.4.4,0,0,1,.2.45.82.82,0,0,1-.42.49l-4.33,2.41A1.38,1.38,0,0,1,242.1,274.36Zm-3.47-2.5,0,0,3.25,1.92a.76.76,0,0,0,.62,0l4.33-2.42,0,0,0,0-3.27-1.92a.74.74,0,0,0-.61,0l-4.32,2.41Z"/><path class="cls-12" d="M254.24,271.94c.21.12.16.34-.11.5l-4.33,2.41a1,1,0,0,1-.87,0L245.67,273c-.21-.13-.16-.35.11-.5l4.33-2.41A1,1,0,0,1,251,270Z"/><path class="cls-8" d="M249.28,275.24a1,1,0,0,1-.53-.11l-3.26-1.92a.39.39,0,0,1-.2-.45.77.77,0,0,1,.42-.48l4.32-2.42a1.23,1.23,0,0,1,1.13-.06l3.26,1.91a.4.4,0,0,1,.2.45.76.76,0,0,1-.42.49l-4.32,2.41A1.6,1.6,0,0,1,249.28,275.24Zm-3.47-2.51,0,0,3.26,1.91a.7.7,0,0,0,.61,0l4.33-2.42,0,0,0,0-3.26-1.92a.73.73,0,0,0-.61,0l-4.33,2.41S245.83,272.73,245.81,272.73Z"/><path class="cls-12" d="M260,273.7c.21.12.16.34-.11.5l-4.33,2.41a1,1,0,0,1-.87.05l-3.26-1.91c-.21-.13-.16-.35.11-.5l4.33-2.42a1,1,0,0,1,.87-.05Z"/><path class="cls-8" d="M255,277a1,1,0,0,1-.53-.1L251.24,275a.4.4,0,0,1-.2-.45.77.77,0,0,1,.42-.48l4.32-2.42a1.27,1.27,0,0,1,1.13-.07l3.26,1.92a.4.4,0,0,1,.2.45.79.79,0,0,1-.42.49l-4.32,2.41A1.43,1.43,0,0,1,255,277Zm-3.46-2.5,0,0,3.26,1.91a.7.7,0,0,0,.61,0L259.8,274l0,0,0,0L256.55,272a.77.77,0,0,0-.61,0l-4.33,2.42Z"/></g><path class="cls-12" d="M249.88,264.57c.21.12.16.34-.12.49l-4.32,2.42a1,1,0,0,1-.87,0l-1.72-1c-.2-.12-.15-.34.12-.49l4.32-2.42a1,1,0,0,1,.87-.05Z"/><path class="cls-8" d="M244.92,267.86a1,1,0,0,1-.53-.1l-1.72-1a.4.4,0,0,1-.2-.45.88.88,0,0,1,.42-.49l4.33-2.41a1.27,1.27,0,0,1,1.13-.07l1.71,1a.4.4,0,0,1,.2.45.82.82,0,0,1-.42.49l-4.32,2.41A1.47,1.47,0,0,1,244.92,267.86ZM243,266.27l0,0,1.71,1a.7.7,0,0,0,.61,0l4.33-2.41,0,0,0,0-1.72-1a.7.7,0,0,0-.61,0l-4.32,2.42Z"/><path class="cls-12" d="M283,260.88c.21.12.16.34-.11.5l-4.33,2.41a1,1,0,0,1-.87,0l-3.26-1.91c-.21-.13-.16-.35.11-.5l4.33-2.41a1,1,0,0,1,.87-.06Z"/><path class="cls-8" d="M278,264.18a1,1,0,0,1-.53-.11l-3.26-1.91a.42.42,0,0,1-.2-.46.8.8,0,0,1,.42-.48l4.32-2.41a1.21,1.21,0,0,1,1.13-.07l3.26,1.91a.4.4,0,0,1,.2.45.8.8,0,0,1-.41.49L278.6,264A1.4,1.4,0,0,1,278,264.18Zm-3.46-2.51,0,0,3.26,1.92a.73.73,0,0,0,.61,0l4.33-2.41,0,0,0,0-3.26-1.92a.73.73,0,0,0-.61,0l-4.33,2.41Z"/><path class="cls-12" d="M313.6,254.3c.2.12.15.34-.12.49l-4.32,2.42a1,1,0,0,1-.87.05l-1.6-.94c-.21-.12-.16-.34.11-.5l4.33-2.41a1,1,0,0,1,.87,0Z"/><path class="cls-8" d="M308.64,257.59a1,1,0,0,1-.53-.1l-1.6-.94a.4.4,0,0,1-.2-.45.79.79,0,0,1,.42-.49l4.32-2.41a1.24,1.24,0,0,1,1.13-.07l1.6.94a.4.4,0,0,1,.2.45.8.8,0,0,1-.42.48l-4.33,2.42A1.38,1.38,0,0,1,308.64,257.59Zm-1.8-1.52,0,0,1.6.94a.73.73,0,0,0,.61,0l4.32-2.42.05,0,0,0-1.6-.94a.7.7,0,0,0-.61,0L306.88,256Z"/><g class="cls-1"><path class="cls-12" d="M300.06,246.37c.21.13.16.35-.11.5l-4.33,2.41a1,1,0,0,1-.87.05l-3.26-1.91c-.21-.12-.16-.35.12-.5l4.32-2.41a1,1,0,0,1,.87,0Z"/><path class="cls-8" d="M295.1,249.67a1,1,0,0,1-.53-.11l-3.26-1.91a.4.4,0,0,1-.2-.45.79.79,0,0,1,.42-.49l4.32-2.41a1.21,1.21,0,0,1,1.13-.07l3.26,1.91a.39.39,0,0,1,.2.45.77.77,0,0,1-.41.49l-4.33,2.41A1.27,1.27,0,0,1,295.1,249.67Zm-3.46-2.5,0,0,3.26,1.92a.73.73,0,0,0,.61,0l4.33-2.41.05,0,0,0-3.26-1.92a.73.73,0,0,0-.61,0l-4.33,2.41Z"/><path class="cls-12" d="M279.68,247.94c.21.12.16.34-.11.49l-4.33,2.42a1,1,0,0,1-.87.05l-1.71-1c-.21-.12-.16-.34.11-.5L277.1,247a1,1,0,0,1,.87,0Z"/><path class="cls-8" d="M274.72,251.23a1,1,0,0,1-.53-.1l-1.71-1a.38.38,0,0,1-.2-.45.83.83,0,0,1,.41-.49l4.33-2.41a1.27,1.27,0,0,1,1.13-.07l1.71,1a.38.38,0,0,1,.2.45.83.83,0,0,1-.41.49l-4.33,2.41A1.43,1.43,0,0,1,274.72,251.23Zm-1.92-1.59s0,0,0,0l1.71,1a.7.7,0,0,0,.61,0l4.33-2.41.05,0,0,0-1.71-1a.7.7,0,0,0-.61,0l-4.33,2.42Z"/><path class="cls-12" d="M287.15,248.7c.21.12.16.34-.11.49l-4.33,2.42a1,1,0,0,1-.87,0l-3.26-1.92c-.21-.12-.16-.34.11-.49l4.33-2.42a1,1,0,0,1,.87-.05Z"/><path class="cls-8" d="M282.19,252a1,1,0,0,1-.53-.1L278.4,250a.38.38,0,0,1-.2-.45.78.78,0,0,1,.41-.48l4.33-2.42a1.27,1.27,0,0,1,1.13-.07l3.26,1.92a.4.4,0,0,1,.2.45.81.81,0,0,1-.42.49l-4.32,2.41A1.47,1.47,0,0,1,282.19,252Zm-3.47-2.5,0,0,3.26,1.91a.73.73,0,0,0,.61,0L287,249l0,0,0,0L283.71,247a.73.73,0,0,0-.61,0l-4.33,2.41Z"/><path class="cls-12" d="M294.33,249.57c.21.12.16.34-.11.5l-4.33,2.41a1,1,0,0,1-.87.05l-3.26-1.91c-.21-.13-.15-.35.12-.5l4.32-2.42a1,1,0,0,1,.87,0Z"/><path class="cls-8" d="M289.37,252.86a1,1,0,0,1-.53-.1l-3.26-1.92a.4.4,0,0,1-.2-.45.84.84,0,0,1,.42-.48l4.33-2.42a1.25,1.25,0,0,1,1.12-.07l3.27,1.92a.42.42,0,0,1,.2.45.85.85,0,0,1-.42.49L290,252.69A1.39,1.39,0,0,1,289.37,252.86Zm-3.46-2.5,0,0,3.26,1.91a.75.75,0,0,0,.62,0l4.32-2.42.05,0,0,0-3.26-1.92a.73.73,0,0,0-.61,0L286,250.33Z"/><path class="cls-12" d="M273.72,251.26c.21.12.16.35-.11.5l-4.33,2.41a1,1,0,0,1-.87.05l-1.71-1c-.21-.12-.16-.35.11-.5l4.33-2.41a1,1,0,0,1,.87-.06Z"/><path class="cls-8" d="M268.76,254.56a1,1,0,0,1-.53-.11l-1.71-1a.4.4,0,0,1-.2-.46.78.78,0,0,1,.41-.48l4.33-2.42a1.23,1.23,0,0,1,1.13-.06l1.71,1a.4.4,0,0,1,.2.46.77.77,0,0,1-.42.48l-4.32,2.41A1.31,1.31,0,0,1,268.76,254.56Zm-1.92-1.6,0,0,1.71,1a.73.73,0,0,0,.61,0l4.33-2.41.05,0,0,0-1.71-1a.76.76,0,0,0-.62,0l-4.32,2.41Z"/><path class="cls-12" d="M281.42,251.89c.21.13.16.35-.11.5L277,254.8a1,1,0,0,1-.87.06l-3.26-1.92c-.21-.12-.16-.35.12-.5l4.32-2.41a1,1,0,0,1,.87-.05Z"/><path class="cls-8" d="M276.46,255.19a.91.91,0,0,1-.53-.11l-3.26-1.91a.4.4,0,0,1-.2-.45.79.79,0,0,1,.42-.49l4.32-2.41a1.27,1.27,0,0,1,1.13-.07l3.26,1.91a.4.4,0,0,1,.2.46.77.77,0,0,1-.42.48L277.06,255A1.43,1.43,0,0,1,276.46,255.19Zm-3.46-2.5,0,0,3.26,1.92a.73.73,0,0,0,.61,0l4.33-2.41,0,0,0,0L278,250.21a.7.7,0,0,0-.61,0L273,252.66Z"/><path class="cls-12" d="M304.3,248.94c.2.12.16.34-.12.49l-8.58,4.79a1,1,0,0,1-.87.06l-3.26-1.92c-.21-.12-.16-.34.11-.49l8.59-4.8a1,1,0,0,1,.87,0Z"/><path class="cls-8" d="M295.08,254.61a1,1,0,0,1-.53-.1l-3.26-1.92a.39.39,0,0,1-.2-.45.8.8,0,0,1,.41-.49l8.59-4.79a1.27,1.27,0,0,1,1.13-.07l3.26,1.92a.4.4,0,0,1,.2.45.84.84,0,0,1-.42.48l-8.59,4.8A1.38,1.38,0,0,1,295.08,254.61Zm-3.47-2.5,0,0,3.26,1.92a.73.73,0,0,0,.61,0l8.59-4.79,0,0,0,0-3.26-1.91a.73.73,0,0,0-.61,0l-8.59,4.8Z"/><path class="cls-12" d="M288.61,252.76c.21.13.15.35-.12.5l-4.32,2.42a1,1,0,0,1-.87,0L280,253.81c-.21-.12-.16-.34.11-.49l4.33-2.42a1,1,0,0,1,.87-.05Z"/><path class="cls-8" d="M283.65,256.06a.89.89,0,0,1-.53-.11L279.86,254a.39.39,0,0,1-.2-.45.8.8,0,0,1,.41-.49l4.33-2.41a1.27,1.27,0,0,1,1.13-.07l3.26,1.92a.4.4,0,0,1,.2.45.84.84,0,0,1-.42.48l-4.33,2.42A1.38,1.38,0,0,1,283.65,256.06Zm-3.47-2.5,0,0,3.26,1.92a.73.73,0,0,0,.61,0l4.32-2.41,0,0,0,0-3.25-1.91a.72.72,0,0,0-.62,0l-4.32,2.42Z"/><path class="cls-12" d="M267.76,254.59c.21.12.16.34-.11.49l-4.33,2.42a1,1,0,0,1-.87.05l-1.71-1c-.21-.12-.16-.34.11-.49l4.33-2.42a1,1,0,0,1,.87,0Z"/><path class="cls-8" d="M262.8,257.88a1,1,0,0,1-.53-.1l-1.72-1a.38.38,0,0,1-.19-.45.83.83,0,0,1,.41-.49l4.33-2.41a1.27,1.27,0,0,1,1.13-.07l1.71,1a.4.4,0,0,1,.2.45.79.79,0,0,1-.42.49l-4.32,2.41A1.43,1.43,0,0,1,262.8,257.88Zm-1.92-1.59,0,0,1.71,1a.7.7,0,0,0,.61,0l4.33-2.42,0,0s0,0,0,0l-1.71-1a.73.73,0,0,0-.61,0l-4.33,2.42Z"/><path class="cls-12" d="M294.45,254.47c.21.12.16.35-.12.5L290,257.38a1,1,0,0,1-.87.05l-3.26-1.91c-.21-.12-.16-.35.11-.5l4.33-2.41a1,1,0,0,1,.87-.05Z"/><path class="cls-8" d="M289.49,257.77a.89.89,0,0,1-.53-.11l-3.26-1.91a.41.41,0,0,1-.21-.45.82.82,0,0,1,.42-.49l4.33-2.41a1.21,1.21,0,0,1,1.13-.07l3.26,1.91a.4.4,0,0,1,.2.45.82.82,0,0,1-.42.49l-4.33,2.41A1.4,1.4,0,0,1,289.49,257.77Zm-3.47-2.5,0,0,3.26,1.92a.73.73,0,0,0,.61,0l4.32-2.41.05,0,0,0L291,252.78a.76.76,0,0,0-.62,0l-4.32,2.41Z"/><path class="cls-12" d="M308.63,251.41c.21.12.16.34-.11.5L297,258.32a1,1,0,0,1-.87.06l-3.26-1.92c-.21-.12-.16-.34.12-.5l11.5-6.42a1,1,0,0,1,.87,0Z"/><path class="cls-8" d="M296.49,258.71a.91.91,0,0,1-.53-.11l-3.26-1.91a.4.4,0,0,1-.2-.45.82.82,0,0,1,.42-.49l11.5-6.42a1.23,1.23,0,0,1,1.13-.06l3.26,1.91a.38.38,0,0,1,.2.45.8.8,0,0,1-.41.49l-11.51,6.42A1.39,1.39,0,0,1,296.49,258.71Zm-3.46-2.5,0,0,3.26,1.92a.73.73,0,0,0,.61,0l11.51-6.42,0,0,0,0-3.26-1.92a.73.73,0,0,0-.61,0l-11.51,6.42Z"/><path class="cls-12" d="M288.7,257.68c.21.12.16.34-.11.49l-4.33,2.42a1,1,0,0,1-.87.05l-3.26-1.92c-.21-.12-.15-.34.12-.49l4.32-2.42a1,1,0,0,1,.88-.05Z"/><path class="cls-8" d="M283.75,261a1,1,0,0,1-.54-.1L280,259a.4.4,0,0,1-.2-.45.8.8,0,0,1,.42-.48l4.33-2.42a1.27,1.27,0,0,1,1.13-.07l3.25,1.92a.4.4,0,0,1,.21.45.81.81,0,0,1-.42.48l-4.33,2.42A1.38,1.38,0,0,1,283.75,261Zm-3.47-2.5,0,0,3.26,1.91a.72.72,0,0,0,.62,0l4.32-2.41.05,0,0,0L285.26,256a.7.7,0,0,0-.61,0l-4.32,2.41Z"/><path class="cls-12" d="M295.89,258.64c.21.12.15.34-.12.49l-4.32,2.41a1,1,0,0,1-.87.06l-3.26-1.92c-.21-.12-.16-.34.11-.49l4.33-2.42a1,1,0,0,1,.87,0Z"/><path class="cls-8" d="M290.93,261.93a1,1,0,0,1-.54-.1l-3.26-1.92a.39.39,0,0,1-.19-.45.8.8,0,0,1,.41-.49l4.33-2.41a1.27,1.27,0,0,1,1.13-.07l3.26,1.92a.4.4,0,0,1,.2.45.84.84,0,0,1-.42.48l-4.33,2.42A1.38,1.38,0,0,1,290.93,261.93Zm-3.47-2.5,0,0,3.26,1.92a.73.73,0,0,0,.61,0l4.32-2.41.05,0,0,0L292.45,257a.7.7,0,0,0-.61,0l-4.33,2.41Z"/></g><g class="cls-1"><path class="cls-12" d="M261.8,257.91c.21.13.16.35-.12.5l-4.32,2.42a1,1,0,0,1-.87.05l-1.71-1c-.21-.12-.16-.35.11-.5l4.32-2.41a1,1,0,0,1,.88,0Z"/><path class="cls-8" d="M256.84,261.21a.91.91,0,0,1-.53-.11l-1.71-1a.4.4,0,0,1-.21-.45.82.82,0,0,1,.42-.49l4.33-2.41a1.22,1.22,0,0,1,1.12-.07l1.72,1a.4.4,0,0,1,.2.45.82.82,0,0,1-.41.48L257.44,261A1.43,1.43,0,0,1,256.84,261.21Zm-1.92-1.59,0,0,1.71,1a.73.73,0,0,0,.61,0l4.33-2.41,0,0,0,0-1.71-1a.76.76,0,0,0-.62,0L255,259.59Z"/><path class="cls-12" d="M255.84,261.24c.21.12.16.34-.12.5l-4.32,2.41a1,1,0,0,1-.87.05l-1.72-1c-.2-.13-.15-.35.12-.5l4.32-2.41a1,1,0,0,1,.88-.06Z"/><path class="cls-8" d="M250.88,264.53a.9.9,0,0,1-.53-.1l-1.72-1a.4.4,0,0,1-.2-.45.84.84,0,0,1,.42-.48l4.33-2.42a1.21,1.21,0,0,1,1.12-.06l1.72,1a.4.4,0,0,1,.2.45.79.79,0,0,1-.42.49l-4.32,2.41A1.47,1.47,0,0,1,250.88,264.53ZM249,262.94l0,0,1.71,1a.73.73,0,0,0,.61,0l4.33-2.42,0,0,0,0-1.72-1a.74.74,0,0,0-.61,0L249,262.91Z"/><path class="cls-12" d="M264.24,261.48c.21.12.16.35-.11.5l-4.33,2.41a1,1,0,0,1-.87.06l-3.26-1.92c-.21-.12-.16-.35.11-.5l4.33-2.41a1,1,0,0,1,.87-.06Z"/><path class="cls-8" d="M259.28,264.78a1,1,0,0,1-.53-.11l-3.26-1.91a.39.39,0,0,1-.2-.45.76.76,0,0,1,.42-.49l4.32-2.41a1.21,1.21,0,0,1,1.13-.07l3.26,1.91a.4.4,0,0,1,.2.45.82.82,0,0,1-.42.49l-4.32,2.41A1.48,1.48,0,0,1,259.28,264.78Zm-3.47-2.5,0,0,3.26,1.92a.73.73,0,0,0,.61,0l4.32-2.41,0,0,0,0-3.26-1.92a.73.73,0,0,0-.61,0l-4.33,2.42Z"/></g><path class="cls-12" d="M258.51,264.68c.21.12.16.34-.11.49l-4.33,2.42a1,1,0,0,1-.87.05l-3.26-1.91c-.21-.13-.16-.35.11-.5l4.33-2.42a1,1,0,0,1,.87-.05Z"/><path class="cls-8" d="M253.55,268a1,1,0,0,1-.53-.1L249.76,266a.4.4,0,0,1-.2-.45A.77.77,0,0,1,250,265l4.32-2.42a1.27,1.27,0,0,1,1.13-.07l3.26,1.92a.4.4,0,0,1,.2.45.79.79,0,0,1-.42.49l-4.32,2.41A1.43,1.43,0,0,1,253.55,268Zm-3.46-2.5,0,0,3.26,1.91a.73.73,0,0,0,.61,0l4.33-2.42,0,0,0,0L255.07,263a.73.73,0,0,0-.61,0l-4.33,2.41Z"/><path class="cls-12" d="M285.64,244.61c.21.12.16.34-.11.5l-4.33,2.41a1,1,0,0,1-.87,0l-1.71-1c-.21-.13-.16-.35.11-.5l4.33-2.41a1,1,0,0,1,.87-.06Z"/><path class="cls-8" d="M280.68,247.9a.9.9,0,0,1-.53-.1l-1.71-1a.38.38,0,0,1-.2-.45.78.78,0,0,1,.41-.48l4.33-2.42a1.27,1.27,0,0,1,1.13-.07l1.71,1a.39.39,0,0,1,.2.45.8.8,0,0,1-.41.49l-4.33,2.41A1.39,1.39,0,0,1,280.68,247.9Zm-1.92-1.59,0,0,1.71,1a.73.73,0,0,0,.61,0l4.33-2.42,0,0s0,0,0,0l-1.71-1a.73.73,0,0,0-.61,0l-4.33,2.41Z"/><path class="cls-12" d="M291.6,241.29c.21.12.16.34-.11.49l-4.33,2.41a1,1,0,0,1-.87.06l-1.71-1c-.21-.12-.16-.35.11-.5l4.33-2.41a1,1,0,0,1,.87-.05Z"/><path class="cls-8" d="M286.64,244.58a1,1,0,0,1-.53-.1l-1.71-1a.39.39,0,0,1-.2-.45.79.79,0,0,1,.42-.49l4.32-2.41a1.24,1.24,0,0,1,1.13-.07l1.71,1a.37.37,0,0,1,.2.45.78.78,0,0,1-.41.48l-4.33,2.42A1.39,1.39,0,0,1,286.64,244.58ZM284.73,243l0,0,1.71,1a.73.73,0,0,0,.61,0l4.33-2.41,0,0,0,0-1.71-1a.73.73,0,0,0-.61,0L284.77,243Z"/><path class="cls-12" d="M295.8,243.87c.21.12.16.34-.11.5l-7.15,4a.94.94,0,0,1-.87.05l-3.26-1.91c-.2-.12-.16-.34.12-.5l7.14-4a1,1,0,0,1,.87-.05Z"/><path class="cls-8" d="M288,248.74a1,1,0,0,1-.53-.11l-3.26-1.91a.4.4,0,0,1-.2-.45.79.79,0,0,1,.42-.49l7.15-4a1.21,1.21,0,0,1,1.12-.06l3.26,1.91a.39.39,0,0,1,.2.45.8.8,0,0,1-.41.49l-7.15,4A1.4,1.4,0,0,1,288,248.74Zm-3.46-2.51,0,0,3.26,1.92a.73.73,0,0,0,.61,0l7.15-4,.05,0,0,0-3.26-1.92a.73.73,0,0,0-.61,0l-7.14,4Z"/><path class="cls-12" d="M282.88,256c.21.12.16.34-.11.5l-4.33,2.41a1,1,0,0,1-.87.05L274.31,257c-.21-.13-.16-.35.11-.5l4.33-2.41a1,1,0,0,1,.87-.06Z"/><path class="cls-8" d="M277.92,259.25a.9.9,0,0,1-.53-.1l-3.26-1.91a.39.39,0,0,1-.2-.45.77.77,0,0,1,.41-.49l4.33-2.42a1.23,1.23,0,0,1,1.13-.06l3.26,1.91a.4.4,0,0,1,.2.45.79.79,0,0,1-.42.49l-4.32,2.41A1.47,1.47,0,0,1,277.92,259.25Zm-3.46-2.5,0,0,3.26,1.91a.7.7,0,0,0,.61,0l4.33-2.42,0,0,0,0-3.26-1.92a.73.73,0,0,0-.61,0l-4.33,2.41Z"/><path class="cls-12" d="M244.23,287.46c.21.12.16.35-.11.5l-4.33,2.41a1,1,0,0,1-.87.05l-3.26-1.91c-.21-.12-.16-.35.11-.5l4.33-2.41a1,1,0,0,1,.87-.05Z"/><path class="cls-8" d="M239.27,290.75a.9.9,0,0,1-.53-.1l-3.26-1.92a.37.37,0,0,1-.2-.45.77.77,0,0,1,.42-.48l4.32-2.42a1.23,1.23,0,0,1,1.13-.06l3.26,1.91a.4.4,0,0,1,.2.45.82.82,0,0,1-.42.49l-4.32,2.41A1.47,1.47,0,0,1,239.27,290.75Zm-3.47-2.5,0,0,3.26,1.92a.73.73,0,0,0,.61,0l4.33-2.42,0,0,0,0-3.26-1.92a.73.73,0,0,0-.61,0l-4.33,2.41Z"/><path class="cls-12" d="M236.22,297.47c.21.13.16.35-.12.5l-4.32,2.41a1,1,0,0,1-.87.06L227,298.16c-.21-.12-.16-.34.12-.49l4.32-2.41a1,1,0,0,1,.87-.06Z"/><path class="cls-8" d="M231.26,300.77a1,1,0,0,1-.53-.1l-3.87-2.28a.4.4,0,0,1-.2-.45.84.84,0,0,1,.42-.48L231.4,295a1.23,1.23,0,0,1,1.13-.06l3.87,2.27a.4.4,0,0,1,.2.45.84.84,0,0,1-.42.48l-4.32,2.42A1.47,1.47,0,0,1,231.26,300.77Zm-4.07-2.86,0,0,3.87,2.27a.73.73,0,0,0,.61,0l4.33-2.41,0,0,0,0-3.87-2.27a.73.73,0,0,0-.61,0l-4.33,2.41Z"/><path class="cls-12" d="M254.78,287.12c.21.12.16.34-.11.49l-5.59,3.12a1,1,0,0,1-.87,0l-3.86-2.27c-.21-.12-.16-.35.11-.5l5.59-3.11a.94.94,0,0,1,.87,0Z"/><path class="cls-8" d="M248.56,291.11a1,1,0,0,1-.53-.1l-3.86-2.27a.41.41,0,0,1-.2-.46.8.8,0,0,1,.42-.48l5.58-3.12a1.23,1.23,0,0,1,1.13-.06l3.86,2.27a.4.4,0,0,1,.2.45.77.77,0,0,1-.42.48l-5.58,3.12A1.39,1.39,0,0,1,248.56,291.11Zm-4.07-2.86,0,0,3.86,2.27a.75.75,0,0,0,.62,0l5.58-3.12,0,0,0,0-3.86-2.27a.73.73,0,0,0-.61,0l-5.59,3.11Z"/><path class="cls-12" d="M247.76,291c.2.13.15.35-.12.5L243.31,294a1,1,0,0,1-.86.05l-3.87-2.27c-.21-.12-.16-.35.11-.5l4.33-2.41a1,1,0,0,1,.87-.06Z"/><path class="cls-8" d="M242.8,294.33a1,1,0,0,1-.54-.1L238.4,292a.4.4,0,0,1-.2-.45.77.77,0,0,1,.42-.48l4.32-2.42a1.27,1.27,0,0,1,1.13-.07l3.87,2.28a.4.4,0,0,1,.2.45.84.84,0,0,1-.42.48l-4.33,2.42A1.38,1.38,0,0,1,242.8,294.33Zm-4.07-2.86,0,0,3.87,2.27a.74.74,0,0,0,.61,0l4.32-2.41.05,0,0,0L243.71,289a.73.73,0,0,0-.61,0l-4.33,2.41Z"/><path class="cls-12" d="M238.53,290.64c.2.13.15.35-.12.5l-11.5,6.42a1,1,0,0,1-.87.05l-3.26-1.91c-.21-.13-.16-.35.11-.5l11.51-6.42a1,1,0,0,1,.86,0Z"/><path class="cls-8" d="M226.39,297.94a.94.94,0,0,1-.54-.1l-3.25-1.92a.37.37,0,0,1-.2-.45.78.78,0,0,1,.41-.48l11.51-6.42a1.22,1.22,0,0,1,1.12-.07l3.27,1.91a.41.41,0,0,1,.19.46.78.78,0,0,1-.41.48L227,297.77A1.38,1.38,0,0,1,226.39,297.94Zm-3.47-2.5,0,0,3.25,1.91a.75.75,0,0,0,.62,0l11.5-6.42,0,0,0,0L235.08,289a.7.7,0,0,0-.61,0L223,295.41Z"/><path class="cls-12" d="M242,294.25c.21.13.15.35-.12.5l-4.32,2.41a1,1,0,0,1-.87.06L232.81,295c-.21-.13-.16-.35.11-.5l4.33-2.41a1,1,0,0,1,.87-.06Z"/><path class="cls-8" d="M237,297.55a1,1,0,0,1-.53-.1l-3.87-2.28a.4.4,0,0,1-.2-.45.8.8,0,0,1,.42-.48l4.32-2.42a1.23,1.23,0,0,1,1.13-.06l3.87,2.27a.4.4,0,0,1,.2.45.84.84,0,0,1-.42.48l-4.33,2.42A1.38,1.38,0,0,1,237,297.55ZM233,294.69l0,0,3.87,2.27a.73.73,0,0,0,.61,0l4.32-2.41.05,0,0,0-3.87-2.27a.73.73,0,0,0-.61,0L233,294.66Z"/><path class="cls-12" d="M307.87,257.49c.21.12.16.35-.11.5l-4.33,2.41a1,1,0,0,1-.87.05l-3.86-2.27c-.21-.12-.16-.34.11-.49l4.33-2.42a1,1,0,0,1,.87-.05Z"/><path class="cls-8" d="M302.91,260.79a.91.91,0,0,1-.53-.11l-3.86-2.27a.39.39,0,0,1-.21-.45.88.88,0,0,1,.42-.49l4.33-2.41a1.27,1.27,0,0,1,1.13-.07l3.86,2.27a.4.4,0,0,1,.2.45.76.76,0,0,1-.42.49l-4.32,2.42A1.59,1.59,0,0,1,302.91,260.79Zm-4.07-2.86,0,0,3.86,2.28a.73.73,0,0,0,.61,0l4.33-2.41,0,0,0,0-3.86-2.27a.75.75,0,0,0-.62,0l-4.32,2.42Z"/><path class="cls-12" d="M302.17,260.67c.21.13.16.35-.12.5l-4.32,2.41a1,1,0,0,1-.87.06l-1.6-.94c-.21-.12-.16-.35.11-.5l4.33-2.41a1,1,0,0,1,.87-.05Z"/><path class="cls-8" d="M297.21,264a1,1,0,0,1-.53-.1l-1.6-.94a.4.4,0,0,1-.2-.45.79.79,0,0,1,.42-.49l4.32-2.41a1.21,1.21,0,0,1,1.13-.07l1.6.94a.4.4,0,0,1,.2.45.8.8,0,0,1-.42.48l-4.32,2.42A1.47,1.47,0,0,1,297.21,264Zm-1.8-1.53,0,0,1.6.94a.73.73,0,0,0,.61,0L302,261l0,0,0,0-1.6-.94a.73.73,0,0,0-.61,0l-4.33,2.41Z"/><path class="cls-12" d="M290.15,261.84c.21.12.16.34-.12.49l-4.32,2.42a1,1,0,0,1-.87.05l-3.26-1.92c-.21-.12-.16-.34.11-.49L286,260a1,1,0,0,1,.87-.05Z"/><path class="cls-8" d="M285.19,265.13a.89.89,0,0,1-.53-.1l-3.26-1.92a.38.38,0,0,1-.2-.45.78.78,0,0,1,.41-.48l4.33-2.42a1.27,1.27,0,0,1,1.13-.07l3.26,1.92a.4.4,0,0,1,.2.45.85.85,0,0,1-.42.49L285.78,265A1.38,1.38,0,0,1,285.19,265.13Zm-3.47-2.5,0,0,3.26,1.91a.67.67,0,0,0,.61,0l4.33-2.41,0,0,0,0-3.26-1.91a.72.72,0,0,0-.62,0l-4.32,2.41Z"/><path class="cls-12" d="M290.51,267.18c.21.12.16.34-.11.5l-5.59,3.11a1,1,0,0,1-.87,0l-3.86-2.27c-.21-.12-.16-.34.11-.5l5.58-3.11a1,1,0,0,1,.88,0Z"/><path class="cls-8" d="M284.29,271.18a1,1,0,0,1-.53-.11l-3.86-2.27a.39.39,0,0,1-.2-.45.8.8,0,0,1,.41-.49l5.59-3.11a1.24,1.24,0,0,1,1.13-.07l3.86,2.27a.4.4,0,0,1,.2.45.79.79,0,0,1-.42.49L284.89,271A1.55,1.55,0,0,1,284.29,271.18Zm-4.07-2.86,0,0,3.86,2.28a.76.76,0,0,0,.62,0l5.58-3.12,0,0,0,0-3.87-2.27a.7.7,0,0,0-.61,0l-5.58,3.12Z"/><path class="cls-12" d="M296.46,263.86c.21.12.16.34-.11.49L292,266.77a1,1,0,0,1-.87.05l-3.86-2.27c-.21-.12-.16-.35.11-.5l4.33-2.41a1,1,0,0,1,.87-.05Z"/><path class="cls-8" d="M291.51,267.15a1,1,0,0,1-.54-.1l-3.86-2.27a.4.4,0,0,1-.2-.45.77.77,0,0,1,.41-.49l4.33-2.41a1.21,1.21,0,0,1,1.13-.07l3.86,2.27a.39.39,0,0,1,.21.45.84.84,0,0,1-.42.48L292.1,267A1.38,1.38,0,0,1,291.51,267.15Zm-4.07-2.86,0,0,3.87,2.27a.73.73,0,0,0,.61,0l4.32-2.42.05,0,0,0-3.86-2.27a.73.73,0,0,0-.61,0l-4.33,2.41Z"/><path class="cls-12" d="M267.19,274.65c.21.12.15.34-.12.5l-4.32,2.41a1,1,0,0,1-.87.05l-3.26-1.91c-.21-.13-.16-.35.11-.5l4.33-2.41a1,1,0,0,1,.87-.06Z"/><path class="cls-8" d="M262.23,277.94a.9.9,0,0,1-.53-.1l-3.26-1.92a.38.38,0,0,1-.2-.45.78.78,0,0,1,.41-.48l4.33-2.42a1.27,1.27,0,0,1,1.13-.07l3.26,1.92a.4.4,0,0,1,.2.45.82.82,0,0,1-.42.49l-4.33,2.41A1.38,1.38,0,0,1,262.23,277.94Zm-3.47-2.5,0,0,3.26,1.91a.7.7,0,0,0,.61,0l4.33-2.42,0,0,0,0L263.75,273a.73.73,0,0,0-.61,0l-4.33,2.41Z"/><path class="cls-12" d="M283.43,271.13c.21.12.16.35-.11.49l-27.14,15.14a1,1,0,0,1-.86.06l-3.87-2.27c-.21-.13-.16-.35.12-.5l27.13-15.14a1,1,0,0,1,.86-.05Z"/><path class="cls-8" d="M255.67,287.15a1,1,0,0,1-.53-.1l-3.87-2.28a.4.4,0,0,1-.2-.45.8.8,0,0,1,.42-.48l27.13-15.14a1.25,1.25,0,0,1,1.12-.07l3.87,2.27a.4.4,0,0,1,.2.45.79.79,0,0,1-.42.49L256.26,287A1.38,1.38,0,0,1,255.67,287.15Zm-4.07-2.86,0,0,3.87,2.27a.73.73,0,0,0,.61,0l27.13-15.14,0,0,0,0-3.87-2.27a.7.7,0,0,0-.61,0l-27.13,15.14Z"/><path class="cls-12" d="M250,284.26c.21.12.16.34-.12.49l-4.32,2.42a1,1,0,0,1-.87.05l-3.26-1.91c-.21-.13-.16-.35.11-.5l4.33-2.42a1,1,0,0,1,.87-.05Z"/><path class="cls-8" d="M245,287.55a1,1,0,0,1-.53-.1l-3.26-1.92a.38.38,0,0,1-.2-.45.78.78,0,0,1,.41-.48l4.33-2.42a1.27,1.27,0,0,1,1.13-.07l3.26,1.92a.4.4,0,0,1,.2.45.82.82,0,0,1-.42.49l-4.33,2.41A1.38,1.38,0,0,1,245,287.55Zm-3.47-2.5,0,0,3.26,1.91a.73.73,0,0,0,.61,0l4.33-2.42,0,0,0,0-3.26-1.92a.73.73,0,0,0-.61,0L241.59,285Z"/><path class="cls-12" d="M231.27,289.72c.21.13.16.35-.11.5L222.57,295a1,1,0,0,1-.87.06l-3.26-1.92c-.21-.12-.16-.35.11-.5l8.59-4.79a1,1,0,0,1,.87-.05Z"/><path class="cls-8" d="M222.05,295.39a.9.9,0,0,1-.53-.1l-3.26-1.92a.39.39,0,0,1-.2-.45.77.77,0,0,1,.42-.48l8.58-4.79a1.24,1.24,0,0,1,1.13-.07l3.26,1.92a.38.38,0,0,1,.2.45.78.78,0,0,1-.41.48l-8.59,4.79A1.43,1.43,0,0,1,222.05,295.39Zm-3.46-2.5,0,0,3.26,1.92a.73.73,0,0,0,.61,0l8.59-4.79,0,0,0,0L227.83,288a.7.7,0,0,0-.61,0l-8.59,4.79Z"/><path class="cls-12" d="M225.49,288c.21.12.16.34-.11.5l-7.15,4a.92.92,0,0,1-.86.05l-3.26-1.91c-.21-.12-.16-.35.11-.5l7.15-4a1,1,0,0,1,.87-.06Z"/><path class="cls-8" d="M217.72,292.85a.92.92,0,0,1-.54-.11l-3.26-1.91a.4.4,0,0,1-.2-.45.85.85,0,0,1,.42-.49l7.15-4a1.21,1.21,0,0,1,1.13-.07l3.25,1.91a.39.39,0,0,1,.2.45.8.8,0,0,1-.41.49l-7.15,4A1.54,1.54,0,0,1,217.72,292.85Zm-3.47-2.5,0,0,3.26,1.92a.73.73,0,0,0,.61,0l7.14-4,0,0,0,0-3.26-1.92a.74.74,0,0,0-.61,0l-7.14,4Z"/><path class="cls-12" d="M238,271.22c.21.12.15.34-.12.49l-4.32,2.42a1,1,0,0,1-.87.05l-1.72-1c-.2-.12-.15-.34.12-.49l4.32-2.42a1,1,0,0,1,.87-.05Z"/><path class="cls-8" d="M233,274.51a.9.9,0,0,1-.53-.1l-1.72-1a.4.4,0,0,1-.2-.45.88.88,0,0,1,.42-.49l4.33-2.41a1.25,1.25,0,0,1,1.12-.07l1.72,1a.4.4,0,0,1,.2.45.85.85,0,0,1-.42.49l-4.32,2.41A1.47,1.47,0,0,1,233,274.51Zm-1.92-1.59,0,0,1.72,1a.73.73,0,0,0,.61,0l4.33-2.42,0,0,0,0-1.72-1a.7.7,0,0,0-.61,0l-4.33,2.41Z"/><path class="cls-13" d="M108.22,114.17a15.37,15.37,0,0,0-6.84,11.93V261.48c0,4.35,3.07,6.1,6.82,3.87l164.9-98a15.48,15.48,0,0,0,6.81-12V21.61c0-4.36-3.08-6.12-6.84-3.92Z"/><path class="cls-14" d="M116,120.33H102.87a13.48,13.48,0,0,0-1.49,5.77V261.48c0,4.35,3.07,6.1,6.82,3.87l16-9.52Z"/><path class="cls-11" d="M232.67,230v1.68l-1.48,2-1.49-.88-.52-1.68s.32-.93.55-.93S232.67,230,232.67,230Z"/><path class="cls-11" d="M216.68,201.08s-6.19,16.92,0,20.49l3,1.73h0l11.74,6.78c1.65.95,1.65,2.51,0,3.47l-16.5,9.53a6.54,6.54,0,0,1-6-.05l-8.37-5-.08,0-2.68-1.67-.37-.21-.08-.07-2.85-1.8s-5.24-3.84-5.24-17.47Z"/><path class="cls-8" d="M189.27,215.17c0,13.63,5.24,17.46,5.24,17.46l2.86,1.8.09.08.36.21,2.67,1.67.09,0,1,.57,7.4,4.38a6.5,6.5,0,0,0,6,0l16.48-9.52c1.67-.95,1.67-2.51,0-3.47L224,224.06l-4.32-2.49h0c-1.07-.62-2.1-1.21-3-1.74-6.05-3.48-.3-19.65,0-20.45v0h0Z"/><path class="cls-9" d="M189.27,215.17c0,13.63,5.24,17.46,5.24,17.46l2.86,1.8.09.08.36.21,2.67,1.67.09,0,1,.57L224,224.06l-4.32-2.49h0c-1.07-.62-2.1-1.21-3-1.74-6.05-3.48-.3-19.65,0-20.45v0Z"/><path class="cls-15" d="M276.47,16.76s5.82,1.4,7,2.28-2.21,4.72-2.21,4.72a14.54,14.54,0,0,1-1.69,1.16c-.18,0-.53,1-1.63,0a9.05,9.05,0,0,1-2-3.43C275.94,21.25,276.47,16.76,276.47,16.76Z"/><path class="cls-14" d="M103.38,265.88l5.75,1.82,3-3a7.79,7.79,0,0,0-1.17-.31c-.23,0-3-.38-3.22-.46s-3.92,0-3.92,0Z"/><path class="cls-16" d="M113.35,115.73a15.32,15.32,0,0,0-6.84,11.92V263c0,4.36,3.06,6.1,6.81,3.88l164.9-98A15.46,15.46,0,0,0,285,157V23.16c0-4.35-3.08-6.12-6.84-3.92Z"/><polygon class="cls-14" points="118.14 124.68 118.14 239.29 275.94 147.36 275.94 32.44 118.14 124.68"/><path class="cls-13" d="M179,184.24l-49.35,30.29c-1.9,1.16-3.43.56-3.43-1.33V179.38a7.42,7.42,0,0,1,3.43-5.54L179,143.56c1.89-1.16,3.43-.57,3.43,1.33v33.82A7.43,7.43,0,0,1,179,184.24Z"/><path class="cls-17" d="M174.82,174.91l-41,25.19c-.65.39-1.17.19-1.17-.45v-.11a2.5,2.5,0,0,1,1.17-1.88l41-25.19c.64-.39,1.16-.19,1.16.46V173A2.53,2.53,0,0,1,174.82,174.91Z"/><path class="cls-17" d="M157.17,191.45l-23.4,14.36c-.65.39-1.17.19-1.17-.45v-.11a2.5,2.5,0,0,1,1.17-1.87L157.17,189c.64-.39,1.16-.19,1.16.45v.11A2.51,2.51,0,0,1,157.17,191.45Z"/><path class="cls-18" d="M146.62,175.85c0,4.26-3.46,9.85-7.73,12.47s-7.73,1.28-7.73-3,3.46-9.85,7.73-12.47S146.62,171.58,146.62,175.85Z"/><path class="cls-13" d="M170.75,127.48l-42.9,26.33c-.65.39-1.17.19-1.17-.45v-.11a2.53,2.53,0,0,1,1.17-1.88l42.9-26.32c.64-.39,1.16-.19,1.16.45v.11A2.51,2.51,0,0,1,170.75,127.48Z"/><path class="cls-13" d="M170.75,142.81l-42.9,26.33c-.65.39-1.17.19-1.17-.45v-.12a2.5,2.5,0,0,1,1.17-1.87l42.9-26.32c.64-.39,1.16-.19,1.16.45v.11A2.51,2.51,0,0,1,170.75,142.81Z"/><path class="cls-13" d="M181,128.86l-53.1,32.58c-.65.39-1.17.19-1.17-.45v-.11a2.5,2.5,0,0,1,1.17-1.87L181,126.42c.65-.39,1.17-.19,1.17.45V127A2.53,2.53,0,0,1,181,128.86Z"/><path class="cls-13" d="M266.27,130.69,199,172c-2,1.2-3.56.59-3.56-1.38V106.43a7.71,7.71,0,0,1,3.56-5.74l67.25-41.27c2-1.2,3.56-.59,3.56,1.38V125A7.69,7.69,0,0,1,266.27,130.69Z"/><polygon class="cls-19" points="257.55 125.58 208.87 155.44 208.87 106.77 257.55 76.91 257.55 125.58"/><polygon class="cls-13" points="235 124.16 243.69 108.44 257.55 112.46 257.55 125.58 235 139.41 235 124.16"/><polygon class="cls-20" points="208.87 140 218.69 118.92 249.93 130.25 208.87 155.44 208.87 140"/><polygon class="cls-21" points="280.8 163.31 280.87 189.12 262.01 200 261.95 174.2 280.8 163.31"/><polygon class="cls-13" points="273.35 164.16 273.37 170.7 268.59 173.45 268.57 166.92 273.35 164.16"/><polygon class="cls-21" points="257.82 174.98 257.88 200.79 239.02 211.67 238.96 185.87 257.82 174.98"/><polygon class="cls-13" points="250.37 175.83 250.38 182.37 245.6 185.12 245.59 178.59 250.37 175.83"/><g class="cls-1"><path class="cls-3" d="M49,294.93,14.12,315.21a5.66,5.66,0,0,1-5.16,0l-7.87-4.54A1.84,1.84,0,0,1,0,309.16v2.21a1.85,1.85,0,0,0,1.08,1.51L9,317.42a5.68,5.68,0,0,0,5.17,0L49,297.14a1.8,1.8,0,0,0,1.06-1.49v-2.21A1.8,1.8,0,0,1,49,294.93Z"/><path class="cls-4" d="M49,291.94c1.44.82,1.44,2.16,0,3L14.12,315.21a5.66,5.66,0,0,1-5.16,0l-7.87-4.54c-1.44-.83-1.44-2.17,0-3L36,287.39a5.68,5.68,0,0,1,5.17,0Z"/></g><path class="cls-3" d="M43.55,275H40.74V242.43a1.4,1.4,0,0,1,1.4-1.4h0a1.41,1.41,0,0,1,1.41,1.4Z"/><g class="cls-1"><path class="cls-9" d="M36,258.09a3.17,3.17,0,0,0-3.19.31L5.26,274.29A9.88,9.88,0,0,0,.79,282l.06,20.59a3.18,3.18,0,0,0,1.31,2.88l7.63,4.43A3.17,3.17,0,0,1,8.48,307l-.06-20.59a9.88,9.88,0,0,1,4.47-7.73l27.52-15.89a3.19,3.19,0,0,1,3.19-.31Z"/><path class="cls-13" d="M40.41,262.83c2.47-1.42,4.48-.28,4.49,2.57L45,286a9.84,9.84,0,0,1-4.46,7.74L13,309.61c-2.48,1.43-4.49.28-4.5-2.57l-.06-20.59a9.88,9.88,0,0,1,4.47-7.73Z"/></g><path class="cls-22" d="M13.74,282.52c.66-.38,1.2-.08,1.2.68a2.62,2.62,0,0,1-1.19,2.06c-.66.38-1.2.08-1.2-.68A2.62,2.62,0,0,1,13.74,282.52Z"/><path class="cls-22" d="M16.93,280.55c.66-.38,1.2-.07,1.2.68a2.64,2.64,0,0,1-1.19,2.07c-.66.38-1.19.07-1.2-.69A2.64,2.64,0,0,1,16.93,280.55Z"/><path class="cls-22" d="M20.12,278.58c.66-.38,1.2-.07,1.2.69a2.59,2.59,0,0,1-1.19,2.06c-.66.38-1.2.08-1.2-.68A2.65,2.65,0,0,1,20.12,278.58Z"/><path class="cls-23" d="M23.32,276.62c.65-.38,1.19-.08,1.19.68a2.61,2.61,0,0,1-1.19,2.07c-.66.38-1.2.07-1.2-.69A2.65,2.65,0,0,1,23.32,276.62Z"/><path class="cls-23" d="M26.51,274.65c.66-.38,1.19-.07,1.2.69a2.63,2.63,0,0,1-1.2,2.06c-.65.38-1.19.08-1.2-.68A2.65,2.65,0,0,1,26.51,274.65Z"/><path class="cls-23" d="M29.7,272.69c.66-.38,1.19-.08,1.2.68a2.6,2.6,0,0,1-1.2,2.06c-.65.38-1.19.08-1.19-.68A2.59,2.59,0,0,1,29.7,272.69Z"/><path class="cls-23" d="M32.89,270.72c.66-.38,1.19-.07,1.2.68a2.65,2.65,0,0,1-1.19,2.07c-.66.38-1.2.08-1.2-.68A2.64,2.64,0,0,1,32.89,270.72Z"/><path class="cls-24" d="M90.62,224.38,55.07,242l6.41,46.89c1.3,9.5,15,15.46,30.57,13.33s27.16-11.55,25.86-21l-6.41-46.89Z"/><path class="cls-25" d="M111.5,234.27c1.29,9.49-10.28,18.92-25.87,21S56.37,251.48,55.07,242s10.28-18.91,25.86-21S110.2,224.78,111.5,234.27Z"/><path class="cls-26" d="M60.5,250.44c5.64,4.22,15,6.27,25.13,4.88s18.61-5.87,22.91-11.46a9.31,9.31,0,0,0,.1-3.16c-1.13-8.25-13-13.44-26.59-11.59s-23.63,10-22.5,18.31A9.5,9.5,0,0,0,60.5,250.44Z"/><path class="cls-27" d="M81.2,222.92c14.23-1.94,27.19,3.38,28.32,11.62s-9.93,16.86-24.16,18.8S58.17,250,57.05,241.72,67,224.87,81.2,222.92m-.27-2c-15.58,2.13-27.16,11.55-25.86,21s15,15.46,30.56,13.33,27.16-11.56,25.87-21-15-15.46-30.57-13.32Z"/><path class="cls-28" d="M54.22,239.9s-13.83-.54-19.53-20.44c0,0,10.67-4,19.72-.58,0,0-6.28-16.64-3.83-28,0,0,18.18-2.87,23,13.17,0,0,16.27-16.06,34.8-16.3,0,0,10.2,16.93-16.83,32.07S54.22,239.9,54.22,239.9Z"/><path class="cls-29" d="M98.75,229.41s-2.89-9.92,6-14.16,31.15,11.61,18.33,45.87Z"/><path class="cls-30" d="M98.75,229.41s-7.46-4.88-14.34,3.15c-5.78,6.76.37,28.73,38.63,28.56Z"/><path class="cls-13" d="M99.09,230,119,256,122.1,260c.06.09.2,0,.13-.09q-9.95-13-19.9-26l-3.11-4.06a.08.08,0,0,0-.13.1Z"/><path class="cls-13" d="M117.31,253.75c.06,2,.13,3.95.19,5.93,0,.1.17.09.17,0-.07-2-.13-4-.2-5.92a.08.08,0,0,0-.16,0Z"/><path class="cls-13" d="M113,248.15c.25,3.57.49,7.15.73,10.72,0,.11.18.09.17,0-.25-3.58-.49-7.15-.73-10.73,0-.1-.17-.09-.17,0Z"/><path class="cls-13" d="M109.46,243.51l1,15.23a.08.08,0,0,0,.16,0c-.32-5.08-.63-10.16-1-15.24,0-.1-.17-.08-.16,0Z"/><path class="cls-13" d="M100.23,231.44,96.33,254a.08.08,0,0,0,.16,0l3.9-22.55c0-.1-.14-.13-.16,0Z"/><path class="cls-13" d="M99.66,230.66l-8.94,20.16c0,.1.11.17.15.07l8.94-20.16a.08.08,0,0,0-.15-.07Z"/><path class="cls-13" d="M99.4,230.26,85.8,241.85c-.09.06,0,.2.09.13L99.5,230.39c.08-.07,0-.2-.1-.13Z"/><path class="cls-13" d="M99.15,229.86l-13.36,2.33c-.1,0-.09.18,0,.16L99.16,230c.11,0,.09-.18,0-.16Z"/><path class="cls-13" d="M102.5,234.42q-.16,10.94-.34,21.87c0,.11.16.1.16,0q.18-10.93.35-21.87c0-.1-.17-.09-.17,0Z"/><path class="cls-13" d="M105.93,238.9l1,19.64c0,.11.17.09.16,0q-.51-9.82-1-19.64c0-.11-.18-.09-.17,0Z"/><path class="cls-13" d="M119.61,256.71l4-.13a.08.08,0,1,0,0-.16l-4,.13a.08.08,0,0,0,0,.16Z"/><path class="cls-13" d="M115.25,251.07q0,4.08.07,8.18c0,.1.16.09.16,0,0-2.72,0-5.45-.07-8.18,0-.1-.16-.09-.16,0Z"/><path class="cls-13" d="M119.52,256.64c.07,1.16.15,2.32.23,3.47a.08.08,0,1,0,.16,0c-.08-1.16-.15-2.31-.23-3.47a.08.08,0,0,0-.16,0Z"/><path class="cls-13" d="M99.24,230q1.82-6.26,3.65-12.51c0-.1-.13-.13-.16,0l-3.66,12.51c0,.1.14.13.17,0Z"/><path class="cls-13" d="M99.51,230.38,109.59,216c.06-.09-.06-.2-.13-.11L99.39,230.27c-.06.09.06.19.12.11Z"/><path class="cls-13" d="M99.78,230.76l15.72-11.6c.09-.06,0-.2-.09-.13l-15.72,11.6c-.08.06,0,.2.09.13Z"/><path class="cls-13" d="M100.34,231.53l20.57-6.29c.1,0,0-.18-.06-.15l-20.57,6.28c-.1,0,0,.19.06.16Z"/><path class="cls-13" d="M102.62,234.54l20.63-3.43c.11,0,.09-.18,0-.16l-20.63,3.42c-.11,0-.09.18,0,.17Z"/><path class="cls-13" d="M106,239l18.9-.63c.11,0,.09-.17,0-.16l-18.91.62c-.1,0-.09.17,0,.17Z"/><path class="cls-13" d="M109.55,243.59l15.55.21c.11,0,.09-.16,0-.16l-15.54-.22c-.11,0-.1.16,0,.17Z"/><path class="cls-13" d="M113.11,248.41l11.68.13c.11,0,.09-.16,0-.16l-11.69-.14c-.1,0-.09.17,0,.17Z"/><path class="cls-13" d="M115.34,251.14l9.22.23c.1,0,.08-.16,0-.16l-9.22-.24c-.1,0-.09.17,0,.17Z"/><path class="cls-13" d="M117.49,254l6.53.2c.1,0,.09-.16,0-.17l-6.53-.19c-.11,0-.1.16,0,.16Z"/><polygon class="cls-29" points="107.34 240.63 107.34 240.63 98.75 229.41 107.34 240.63"/><g class="cls-31"><path class="cls-32" d="M104.71,215.25c-8.85,4.24-6,14.16-6,14.16l8.59,11.22c0-1.53.78-2.69,3.15-3.26,6.09-1.45,13.09.08,14.93-6.27C121.4,218,110.34,212.56,104.71,215.25Z"/></g><g class="cls-31"><path class="cls-32" d="M84.41,232.56c-4.38,5.13-1.9,19,16.24,25.33a13.29,13.29,0,0,0,5.75-3.13c4.79-4.68.84-10.46.94-14.13l-8.59-11.22S91.29,224.53,84.41,232.56Z"/></g><g class="cls-31"><path class="cls-33" d="M122.21,260.05l.83,1.07c4.92-13.14,4.67-23.58,2-31.21v0a28,28,0,0,0-1.42-3.33h0a26.22,26.22,0,0,0-2.31-3.81s0,0,0,0a26.29,26.29,0,0,0-2-2.38h0l-.67-.67,0,0a21.64,21.64,0,0,0-2.12-1.79l-.09-.07c-.21-.15-.41-.3-.63-.44l-.09-.07q-.72-.47-1.44-.87l-.08,0c-.2-.11-.41-.21-.62-.31l-.15-.08-.57-.25-.14-.06a12.74,12.74,0,0,0-1.38-.5l-.17-.05-.5-.14-.2,0-.51-.11-.15,0c-.22,0-.43-.07-.65-.09H109l-.51,0h-.83a3.59,3.59,0,0,0-.47,0H107l-.57.08-.15,0-.4.09-.18.05-.36.12-.16,0-.5.21c-8.85,4.24-6,14.16-6,14.16s-7.46-4.88-14.34,3.15c-.12.14-.23.3-.35.45l-.07.12a4.07,4.07,0,0,0-.31.49l0,0c-.09.17-.18.34-.26.52l-.06.12c-.08.19-.16.38-.23.57,0,0,0,0,0,.05a4.75,4.75,0,0,0-.18.57.65.65,0,0,0,0,.13c-.06.21-.11.43-.15.65,0,0,0,0,0,.05,0,.21-.07.42-.1.64,0,0,0,.08,0,.13,0,.23,0,.47-.06.71v.05c0,.23,0,.46,0,.7v.11c0,.26,0,.52,0,.78v0c0,.25.06.51.1.77a.28.28,0,0,0,0,.09c0,.27.09.55.15.83v0c.06.28.13.57.21.85v0c.09.29.17.59.28.89h0c1.86,5.43,7.1,11.37,17.29,14.93h0c5.78,2,13.14,3.28,22.39,3.23l-.83-1.07Z"/></g><path class="cls-29" d="M96.5,266.06s4.52-2.45,7.52,1.4-2.37,16.38-20.38,13.75Z"/><path class="cls-30" d="M96.5,266.06s1.59-4.14-3-6.65c-3.9-2.1-13.94,3.21-9.83,21.8Z"/><path class="cls-13" d="M96.25,266.28,85.72,278.7l-1.65,1.94s0,.1.06.06l10.54-12.42,1.65-1.94s0-.1-.07-.06Z"/><path class="cls-13" d="M86.62,277.65l-2.86.72c-.05,0,0,.09,0,.08,1-.25,1.91-.48,2.86-.72a0,0,0,0,0,0-.08Z"/><path class="cls-13" d="M88.89,275l-5.14,1.48a0,0,0,1,0,0,.08l5.14-1.48s0-.09,0-.08Z"/><path class="cls-13" d="M90.77,272.75l-7.3,2.07s0,.1,0,.08l7.31-2.07s0-.09,0-.08Z"/><path class="cls-13" d="M95.67,267l-11.37.48s0,.09,0,.08l11.38-.48s0-.08,0-.08Z"/><path class="cls-13" d="M96,266.63l-10.75-2.22s-.07.07,0,.08L96,266.71s.07-.07,0-.08Z"/><path class="cls-13" d="M96.16,266.46l-7.07-5.39s-.1,0-.06.06l7.07,5.39a0,0,0,1,0,.06-.06Z"/><path class="cls-13" d="M96.33,266.3q-1.27-3.14-2.54-6.25c0-.05-.1,0-.08,0,.84,2.08,1.69,4.17,2.54,6.25a0,0,0,0,0,.08,0Z"/><path class="cls-13" d="M94.46,268.41l-10.67,2.14c-.06,0,0,.09,0,.08l10.67-2.14s0-.09,0-.08Z"/><path class="cls-13" d="M92.64,270.55l-9.45,2.56s0,.09,0,.08l9.45-2.56s0-.09,0-.08Z"/><path class="cls-13" d="M85.42,279.08c.16.64.32,1.29.49,1.93,0,.05.09,0,.07,0l-.48-1.92c0-.06-.09,0-.08,0Z"/><path class="cls-13" d="M87.71,276.36l-4,.9c-.06,0,0,.09,0,.08l4-.9s0-.09,0-.08Z"/><path class="cls-13" d="M85.45,279l-1.67.48s0,.09,0,.07l1.67-.47s0-.1,0-.08Z"/><path class="cls-13" d="M96.29,266.35l6.47.46s0-.08,0-.08l-6.47-.46s0,.08,0,.08Z"/><path class="cls-13" d="M96.11,266.53l8,3.39s.09-.05,0-.07l-8-3.39c-.05,0-.09.05,0,.07Z"/><path class="cls-13" d="M96,266.7l7.3,6.43s.1,0,.06-.07L96,266.64s-.1,0-.06.06Z"/><path class="cls-13" d="M95.64,267.05l5.22,9.34a0,0,0,1,0,.07,0L95.71,267c0-.05-.09,0-.07,0Z"/><path class="cls-13" d="M94.41,268.48q1.94,4.83,3.85,9.67c0,.05.1,0,.08,0q-1.94-4.83-3.85-9.68s-.1,0-.08,0Z"/><path class="cls-13" d="M92.61,270.6c.77,3,1.53,6.08,2.3,9.13,0,0,.09,0,.08,0q-1.14-4.56-2.3-9.12c0-.05-.09,0-.08,0Z"/><path class="cls-13" d="M90.75,272.8l1.53,7.59c0,.05.09,0,.08,0-.51-2.53-1-5.06-1.54-7.59,0,0-.08,0-.07,0Z"/><path class="cls-13" d="M88.77,275l1.17,5.7c0,.05.09,0,.08,0L88.85,275s-.09,0-.08,0Z"/><path class="cls-13" d="M87.68,276.41c.29,1.51.57,3,.86,4.51,0,.06.09,0,.08,0-.29-1.5-.58-3-.86-4.51,0-.05-.09,0-.08,0Z"/><path class="cls-13" d="M86.54,277.76c.19,1.06.39,2.13.59,3.19,0,.06.08,0,.08,0l-.6-3.2c0-.05-.09,0-.07,0Z"/><polygon class="cls-29" points="91.95 271.42 91.95 271.42 96.5 266.06 91.95 271.42"/><g class="cls-31"><path class="cls-32" d="M104,267.46c-3-3.85-7.52-1.4-7.52-1.4L92,271.42c.75-.14,1.39.09,1.92,1.18,1.34,2.81,1.34,6.38,4.62,6.6C104.45,275.87,105.92,269.92,104,267.46Z"/></g><g class="cls-31"><path class="cls-32" d="M93.46,259.41c-3-1.59-9.44,1.08-10.61,10.57A6.49,6.49,0,0,0,85,272.45c2.78,1.83,5.17-.7,7-1l4.55-5.36S98.09,261.92,93.46,259.41Z"/></g><g class="cls-31"><path class="cls-33" d="M84.07,280.7l-.43.51c6.91,1,12-.21,15.39-2.32h0a13.72,13.72,0,0,0,1.47-1h0a13.09,13.09,0,0,0,1.61-1.53h0a12.89,12.89,0,0,0,1-1.21h0l.26-.4,0,0a13.2,13.2,0,0,0,.65-1.22.08.08,0,0,1,0-.05l.15-.36,0,0c.1-.27.19-.53.27-.79,0,0,0,0,0,0l.09-.34s0-.05,0-.08,0-.2.07-.3a.22.22,0,0,1,0-.08q.06-.36.09-.72a.28.28,0,0,0,0-.09,2.26,2.26,0,0,0,0-.26s0-.07,0-.1a2.26,2.26,0,0,0,0-.26v-.08c0-.1,0-.21,0-.32a.13.13,0,0,0,0-.06l0-.25s0-.07,0-.1a1.55,1.55,0,0,0,0-.21.29.29,0,0,1,0-.09,2,2,0,0,0-.07-.23s0,0,0-.06-.07-.17-.1-.26l0-.07-.09-.19,0-.08-.1-.17,0-.07-.15-.22c-3-3.85-7.52-1.4-7.52-1.4s1.59-4.14-3-6.65l-.26-.12-.06,0-.27-.1h0l-.27-.07h-.07l-.3-.06h0l-.3,0h-.42l-.32,0h-.06l-.36.05h0l-.34.06-.06,0a2.54,2.54,0,0,0-.37.1h0l-.37.13h0l-.39.17h0l-.39.19h0l-.4.23h0c-2.44,1.47-4.78,4.65-5.44,10h0a33.52,33.52,0,0,0,.78,11.23l.44-.51Z"/></g><path class="cls-34" d="M98.94,282.84l-.42-.18c1.92-4.5,4.34-4,4.44-4l-.1.44S100.69,278.72,98.94,282.84Z"/><path class="cls-35" d="M115.72,214.28a13.46,13.46,0,0,1-13,9.42c-5,0-9.78-2-14.38-3.67a14.94,14.94,0,0,0-5.74-1.2,10.74,10.74,0,0,0-6.25,2.92c-.15.13-.33-.13-.18-.26,3-2.48,6.11-3.54,9.91-2.53,1.81.48,3.55,1.23,5.3,1.88a44,44,0,0,0,8,2.23c4.78.82,9.56-.1,13-3.73a13.11,13.11,0,0,0,3-5.12c.06-.19.36-.14.31.06Z"/><path class="cls-29" d="M109.33,213s-4.79-11.21,5.45-13,39.49,21.27,28.27,53.31Z"/><path class="cls-13" d="M110,213.59l23.56,28.14q4.18,5,8.38,10c.08.1-.06.23-.14.13l-23.56-28.14-8.38-10c-.07-.09.06-.22.14-.13Z"/><path class="cls-13" d="M138.31,247.46l4.86,1c.11,0,.06.2-.06.18l-4.86-1c-.12,0-.06-.2.06-.17Z"/><path class="cls-13" d="M109.81,213.63q1.43-6,2.84-12c0-.12.21-.06.18.05q-1.42,6-2.84,12c0,.12-.21.06-.18-.05Z"/><path class="cls-13" d="M110.23,214.09l10.13-12.45c.07-.09.23,0,.16.1l-10.13,12.45c-.08.09-.24,0-.16-.1Z"/><path class="cls-13" d="M110.66,214.54l17.92-8c.11-.05.2.11.09.16l-17.92,8c-.11.05-.2-.11-.09-.16Z"/><path class="cls-13" d="M111.51,215.48l22.89-1.83c.12,0,.11.18,0,.19l-22.89,1.82c-.12,0-.11-.17,0-.18Z"/><path class="cls-13" d="M114.7,219.29l24.73,2.46c.12,0,.11.2,0,.19l-24.72-2.46c-.12,0-.12-.2,0-.19Z"/><path class="cls-13" d="M119.45,224.93l23,4.89c.11,0,.06.2-.06.17l-23-4.88c-.12,0-.06-.2.06-.18Z"/><path class="cls-13" d="M124.35,230.79l19,4.78c.12,0,.06.21-.05.18l-19-4.78c-.11,0-.06-.21.06-.18Z"/><path class="cls-13" d="M129.31,236.87l14.27,3.56c.11,0,.06.21-.06.18l-14.26-3.56a.09.09,0,0,1,.05-.18Z"/><path class="cls-13" d="M132.38,240.38l11.27,2.94c.12,0,.06.21-.05.18l-11.27-2.94a.09.09,0,1,1,0-.18Z"/><path class="cls-13" d="M135.37,244l8,2.11a.09.09,0,0,1-.06.18l-8-2.11c-.11,0-.06-.21.06-.18Z"/><g class="cls-31"><path class="cls-32" d="M109.38,203.07c9.19,7.09,28.36,24.35,34.11,48.86-.14.43-.28.88-.44,1.31L109.33,213S106.78,207,109.38,203.07Z"/></g><path class="cls-30" d="M108.65,210.84s-7.05-6.21-10.72-6.28c-4.31-.09-.66,3.14,10.51,14.7s34.61,34,34.61,34S129,226.42,108.65,210.84Z"/><g class="cls-31"><path class="cls-32" d="M143,253.18c-1.4-1.34-23.73-22.71-34.54-33.92-8.69-9-12.83-12.95-12.21-14.22,2.71,1.41,6.52,4.24,11.39,9.91,10.67,12.4,13.9,15.91,20.86,20.06a17.25,17.25,0,0,1,8.3,10.89,13.73,13.73,0,0,0,3.79,4.52A9,9,0,0,1,143,253.18Z"/></g><path class="cls-34" d="M115.51,193.94a.29.29,0,0,0-.39-.13A117.55,117.55,0,0,0,104.39,200c-3.48,2.24-6.88,4.6-10.15,7.11s-6.49,5.12-9.55,7.89l-1.16,1-.57.51-.56.54-2.24,2.14c-.76.7-1.48,1.45-2.2,2.19l-2,2,1.41-.2L78.58,222c.71-.73,1.42-1.48,2.17-2.19L83,217.69l.56-.53.57-.52,1.14-1c3-2.79,6.21-5.4,9.46-7.91s6.61-4.89,10-7.14a115.62,115.62,0,0,1,10.63-6.22h0A.28.28,0,0,0,115.51,193.94Z"/><path class="cls-34" d="M101.77,259.91l-.14-.88-.29-1.75-.34-1.75-.16-.87-.2-.87-.39-1.74-.46-1.72c-.29-1.16-.62-2.27-.93-3.42q-.94-3.42-2.15-6.78T94,233.54a47.46,47.46,0,0,0-3.49-6.26,21.39,21.39,0,0,0-4.94-5.34A12.57,12.57,0,0,0,84,221a10.83,10.83,0,0,0-1.77-.69,9.48,9.48,0,0,0-1.91-.29,8.83,8.83,0,0,0-1.92.14,10.89,10.89,0,0,0-3.52,1.39,17.35,17.35,0,0,0-2.93,2.24h0a.87.87,0,0,0-.18.26l2.65-.36a13.06,13.06,0,0,1,1.24-.86,9.5,9.5,0,0,1,3-1.22,7.08,7.08,0,0,1,1.59-.14,7.73,7.73,0,0,1,1.58.23,9.33,9.33,0,0,1,1.52.58,10.25,10.25,0,0,1,1.42.85,19.8,19.8,0,0,1,4.64,5,45.53,45.53,0,0,1,3.45,6q1.5,3.16,2.71,6.47c.81,2.19,1.54,4.42,2.18,6.67.31,1.13.66,2.28,1,3.4l.46,1.7.4,1.7.2.86.18.86.34,1.72.3,1.73.15.87.12.87a140,140,0,0,1,1.34,14c.23,4.7.29,9.41.21,14.11s-.28,9.41-.59,14.11-.73,9.39-1.3,14.06h0a.29.29,0,0,0,.26.32.28.28,0,0,0,.32-.25c.62-4.69,1.06-9.38,1.42-14.09s.6-9.42.71-14.14.1-9.45-.09-14.17-.57-9.44-1.23-14.13Z"/><path class="cls-34" d="M92.9,197a.29.29,0,0,0-.41-.08c-2.56,1.73-5,3.59-7.41,5.54a86.15,86.15,0,0,0-6.86,6.24c-1.08,1.11-2.13,2.25-3.13,3.45a44.4,44.4,0,0,0-2.8,3.74A27.29,27.29,0,0,0,70,220a16.53,16.53,0,0,0-1.27,4.42l1.57-.22a15.43,15.43,0,0,1,1-3.66,26.85,26.85,0,0,1,2.05-4c.81-1.28,1.7-2.51,2.63-3.7s2-2.34,3-3.46a82.48,82.48,0,0,1,6.62-6.33c2.32-2,4.72-3.92,7.21-5.69h0A.29.29,0,0,0,92.9,197Z"/><path class="cls-34" d="M81.19,224.6a6.36,6.36,0,0,0-.41-1.07,3.57,3.57,0,0,0-.69-1,2,2,0,0,0-1.21-.57,2.55,2.55,0,0,0-1.25.26A6.69,6.69,0,0,0,76,223.42l1.64-.22L78,223a1.73,1.73,0,0,1,.83-.19,1.13,1.13,0,0,1,.71.32,4.11,4.11,0,0,1,.93,1.7,13.45,13.45,0,0,1,.46,2,33.52,33.52,0,0,1,.35,4.25c0,1.43,0,2.86-.06,4.28h0a.3.3,0,0,0,.27.31.28.28,0,0,0,.31-.27c.11-1.45.15-2.89.14-4.34a33.17,33.17,0,0,0-.28-4.34A13.75,13.75,0,0,0,81.19,224.6Z"/><path class="cls-29" d="M101.34,250.79s-2.18-7.5,4.51-10.71,23.57,8.78,13.87,34.7Z"/><path class="cls-30" d="M101.34,250.79s-5.64-3.69-10.85,2.39c-4.37,5.11.28,21.73,29.22,21.6Z"/><path class="cls-13" d="M101.6,251.23l15.05,19.65L119,274c0,.06.15,0,.1-.07l-15.06-19.66-2.35-3.08a.06.06,0,0,0-.1.08Z"/><path class="cls-13" d="M115.38,269.21l.15,4.48c0,.08.12.07.12,0l-.15-4.48c0-.08-.13-.07-.12,0Z"/><path class="cls-13" d="M112.13,265c.18,2.7.37,5.4.55,8.11a.07.07,0,0,0,.13,0c-.19-2.71-.37-5.41-.56-8.11a.06.06,0,1,0-.12,0Z"/><path class="cls-13" d="M109.44,261.46q.38,5.76.73,11.52c0,.08.13.07.12,0l-.72-11.52a.07.07,0,0,0-.13,0Z"/><path class="cls-13" d="M102.46,252.32q-1.47,8.54-2.95,17.06c0,.08.11.1.12,0q1.49-8.52,3-17.06c0-.08-.11-.1-.12,0Z"/><path class="cls-13" d="M102,251.74,95.27,267c0,.07.08.13.11.05q3.38-7.62,6.76-15.25c0-.07-.08-.13-.11,0Z"/><path class="cls-13" d="M101.83,251.43,91.54,260.2c-.06.05,0,.15.07.1l10.3-8.77c.06-.05,0-.15-.08-.1Z"/><path class="cls-13" d="M101.64,251.13l-10.1,1.76c-.08,0-.07.14,0,.12l10.1-1.76a.06.06,0,1,0,0-.12Z"/><path class="cls-13" d="M104.18,254.58q-.14,8.28-.26,16.55c0,.08.12.07.12,0q.13-8.28.26-16.54c0-.09-.12-.07-.12,0Z"/><path class="cls-13" d="M106.77,258q.39,7.42.77,14.86a.06.06,0,1,0,.12,0q-.37-7.43-.76-14.86a.07.07,0,0,0-.13,0Z"/><path class="cls-13" d="M117.12,271.45l3-.1c.08,0,.07-.13,0-.12l-3,.09a.07.07,0,0,0,0,.13Z"/><path class="cls-13" d="M113.82,267.17q0,3.1.05,6.19c0,.08.13.07.13,0l-.06-6.19c0-.08-.12-.07-.12,0Z"/><path class="cls-13" d="M117.05,271.39c.06.88.12,1.75.17,2.63a.07.07,0,0,0,.13,0c-.06-.88-.12-1.75-.17-2.63a.07.07,0,0,0-.13,0Z"/><path class="cls-13" d="M101.71,251.2l2.76-9.46c0-.08-.1-.1-.12,0l-2.76,9.46c0,.08.09.1.12,0Z"/><path class="cls-13" d="M101.92,251.52l7.62-10.85c0-.06-.05-.15-.09-.08l-7.63,10.85c0,.07.05.15.1.08Z"/><path class="cls-13" d="M102.12,251.82,114,243a.06.06,0,0,0-.08-.1l-11.89,8.77c-.07,0,0,.15.07.11Z"/><path class="cls-13" d="M102.54,252.39l15.57-4.75c.07,0,0-.14,0-.12l-15.56,4.75a.06.06,0,0,0,0,.12Z"/><path class="cls-13" d="M104.27,254.67l15.61-2.6a.06.06,0,1,0,0-.12l-15.61,2.6a.06.06,0,1,0,0,.12Z"/><path class="cls-13" d="M106.84,258l14.3-.48c.08,0,.07-.12,0-.12l-14.3.47c-.08,0-.07.13,0,.13Z"/><path class="cls-13" d="M109.51,261.51l11.77.17c.08,0,.06-.12,0-.12l-11.76-.17c-.08,0-.07.12,0,.12Z"/><path class="cls-13" d="M112.2,265.16l8.84.1c.08,0,.07-.12,0-.12l-8.84-.1c-.08,0-.07.12,0,.12Z"/><path class="cls-13" d="M113.89,267.23l7,.17c.08,0,.07-.12,0-.12l-7-.17c-.08,0-.07.12,0,.12Z"/><path class="cls-13" d="M115.52,269.37l4.94.14c.08,0,.07-.12,0-.12l-4.94-.15c-.08,0-.07.12,0,.13Z"/><polygon class="cls-29" points="107.84 259.28 107.84 259.28 101.34 250.79 107.84 259.28"/><g class="cls-31"><path class="cls-32" d="M105.85,240.08c-6.69,3.21-4.51,10.71-4.51,10.71l6.5,8.49c0-1.16.59-2,2.38-2.47,4.61-1.1,9.91.06,11.3-4.74C118.48,242.15,110.11,238,105.85,240.08Z"/></g><g class="cls-31"><path class="cls-32" d="M90.49,253.18c-3.32,3.87-1.43,14.37,12.29,19.16a10.1,10.1,0,0,0,4.35-2.37c3.62-3.54.64-7.91.71-10.69l-6.5-8.49S95.7,247.1,90.49,253.18Z"/></g><path class="cls-30" d="M99,282s.09-7.81-7.22-9.1-20.34,14.79-4,37.15Z"/><path class="cls-29" d="M99,282s4.44-5.07,11.09-.61c5.59,3.75,5.57,21-22.34,28.66Z"/><path class="cls-13" d="M98.82,282.46l-9.22,23L88.16,309a.06.06,0,1,1-.12,0l9.23-23,1.44-3.59c0-.07.14,0,.11,0Z"/><path class="cls-13" d="M90.38,303.48c.35,1.46.7,2.91,1.06,4.36,0,.08-.11.1-.13,0-.35-1.46-.7-2.91-1.06-4.36,0-.08.11-.11.13,0Z"/><path class="cls-13" d="M92.36,298.53l1.65,8c0,.08-.1.1-.12,0l-1.65-8c0-.08.11-.1.12,0Z"/><path class="cls-13" d="M94,294.43l2.4,11.29c0,.08-.11.1-.12,0l-2.4-11.29c0-.08.11-.1.12,0Z"/><path class="cls-13" d="M98.29,283.75l7.42,15.64c0,.07-.08.12-.12.05L98.17,283.8c0-.07.08-.12.12-.05Z"/><path class="cls-13" d="M98.54,283.07,109.15,296c0,.06,0,.14-.09.08L98.45,283.15c0-.06,0-.14.09-.08Z"/><path class="cls-13" d="M98.65,282.72l12.27,5.68c.07,0,0,.15,0,.12l-12.27-5.68c-.08,0,0-.15,0-.12Z"/><path class="cls-13" d="M98.75,282.38l10.21-1c.08,0,.1.12,0,.13l-10.2,1c-.08,0-.11-.11,0-.12Z"/><path class="cls-13" d="M97.24,286.39q2.34,7.94,4.69,15.87c0,.07-.1.1-.12,0q-2.36-7.93-4.69-15.87c0-.07.09-.1.12,0Z"/><path class="cls-13" d="M95.65,290.35q1.62,7.26,3.25,14.52c0,.08-.11.1-.12,0q-1.64-7.26-3.25-14.52c0-.08.1-.1.12,0Z"/><path class="cls-13" d="M89.3,306.11l-2.94.71c-.08,0-.1-.1,0-.12l2.94-.71c.08,0,.1.1,0,.12Z"/><path class="cls-13" d="M91.33,301.11c.54,2,1.07,4,1.61,6,0,.08-.1.1-.12,0-.54-2-1.07-4-1.61-6,0-.08.1-.1.12,0Z"/><path class="cls-13" d="M89.35,306l.54,2.57c0,.08-.11.1-.12,0l-.54-2.58c0-.08.1-.1.12,0Z"/><path class="cls-13" d="M98.71,282.47,93.5,274.1c0-.07.07-.12.12-.06l5.2,8.37c0,.07-.07.13-.11.06Z"/><path class="cls-13" d="M98.59,282.83l-10.26-8.4c-.06-.05,0-.16.08-.1l10.25,8.4c.07,0,0,.15-.07.1Z"/><path class="cls-13" d="M98.47,283.17l-13.81-5.26c-.08,0,0-.15,0-.12l13.82,5.26a.07.07,0,0,1,0,.12Z"/><path class="cls-13" d="M98.22,283.84,82,283.44c-.09,0-.07-.13,0-.12l16.26.39a.07.07,0,0,1,0,.13Z"/><path class="cls-13" d="M97.17,286.49l-15.73,1.7c-.08,0-.1-.11,0-.12l15.73-1.7c.08,0,.1.12,0,.12Z"/><path class="cls-13" d="M95.6,290.42l-13.9,3.39a.07.07,0,0,1,0-.13l13.91-3.38c.07,0,.1.1,0,.12Z"/><path class="cls-13" d="M94,294.5l-11.29,3.32c-.07,0-.1-.1,0-.13l11.29-3.31c.08,0,.1.09,0,.12Z"/><path class="cls-13" d="M92.35,298.74l-8.49,2.47c-.08,0-.1-.1,0-.13l8.48-2.47c.08,0,.1.1,0,.13Z"/><path class="cls-13" d="M91.28,301.18l-6.67,2c-.08,0-.1-.1,0-.12l6.68-2c.07,0,.1.09,0,.12Z"/><path class="cls-13" d="M90.28,303.67l-4.71,1.47c-.08,0-.1-.1,0-.12l4.72-1.47c.08,0,.1.1,0,.12Z"/><polygon class="cls-29" points="94.97 291.89 94.97 291.89 98.95 281.97 94.97 291.89"/><g class="cls-31"><path class="cls-32" d="M91.73,272.87C99,274.16,99,282,99,282l-4,9.92c-.34-1.1-1.12-1.8-3-1.73-4.74.18-9.53,2.72-12.16-1.54C80.12,278.25,87.08,272,91.73,272.87Z"/></g><g class="cls-31"><path class="cls-32" d="M110,281.36c4.24,2.84,5.25,13.45-6.69,21.76A10.16,10.16,0,0,1,98.52,302c-4.43-2.43-2.73-7.45-3.55-10.11L99,282S103.39,276.9,110,281.36Z"/></g><path class="cls-30" d="M81.06,234.68s3.39-5.2,8.79-2.83,6.93,18.75-13.72,26.34Z"/><path class="cls-29" d="M73.17,255.06a32.05,32.05,0,0,0,3,3.13l4.93-23.51s-.75-5.16-4.92-5.74-10.55,7.15-8.81,15.21a21.59,21.59,0,0,0,2.59,6.34c.93-.82,2.21.64,1.28,1.49a.91.91,0,0,1-.23.17c.33.5.68,1,1,1.42A1,1,0,0,1,73.17,255.06ZM73,251.57c.93-.86,2.24.62,1.31,1.48S72.08,252.43,73,251.57Z"/><path class="cls-13" d="M80.93,235.06q-2,9.63-4,19.26l-.63,3c0,.07.08.09.09,0L80.4,238.1l.63-3c0-.06-.08-.09-.1,0Z"/><path class="cls-13" d="M77.24,252.69l-3.07,2.82a.05.05,0,0,0,.07.08l3.07-2.83s0-.12-.07-.07Z"/><path class="cls-13" d="M78.12,248.53l-3.31,3s0,.12.07.07l3.3-3c0-.05,0-.12-.06-.08Z"/><path class="cls-13" d="M78.84,245.1l-6,5.47a.05.05,0,0,0,.07.08l6-5.49s0-.11-.07-.06Z"/><path class="cls-13" d="M80.71,236.16l-11.62,8.15s0,.11.07.07l11.62-8.15s0-.11-.07-.07Z"/><path class="cls-13" d="M80.85,235.59l-12.69,3.83c-.06,0,0,.12,0,.1l12.69-3.83c.06,0,0-.12,0-.1Z"/><path class="cls-13" d="M80.92,235.31,70.3,233.65c-.06,0-.06.09,0,.1l10.62,1.66c.06,0,.06-.09,0-.1Z"/><path class="cls-13" d="M81,235l-6.29-5.17s-.1,0-.06.08l6.3,5.18s.1-.05,0-.09Z"/><path class="cls-13" d="M80.28,238.21,70,247.39s0,.11.07.07l10.33-9.18c.05,0,0-.12-.07-.07Z"/><path class="cls-13" d="M79.55,241.68q-4,3.76-7.93,7.52c0,.05,0,.12.07.08l7.93-7.53s0-.12-.07-.07Z"/><path class="cls-13" d="M76.79,254.9l1.63,1.77c0,.05.12,0,.07-.07l-1.62-1.77a.05.05,0,0,0-.08.07Z"/><path class="cls-13" d="M77.66,250.7l-3.08,2.83c0,.05,0,.12.06.08l3.09-2.84a0,0,0,1,0-.07-.07Z"/><path class="cls-13" d="M76.6,255.74l-1.2,1.11c-.05,0,0,.11.07.07l1.2-1.11s0-.11-.07-.07Z"/><path class="cls-13" d="M81,235.12l7.14-3.24c.06,0,0-.11,0-.09L81,235c-.06,0,0,.12,0,.09Z"/><path class="cls-13" d="M80.93,235.41l10.56-1.26c.06,0,0-.11,0-.1l-10.56,1.26c-.06,0,0,.11,0,.1Z"/><path class="cls-13" d="M80.85,235.68l11.79,2.53a.05.05,0,0,0,0-.1l-11.79-2.52c-.07,0-.09.08,0,.09Z"/><path class="cls-13" d="M80.72,236.24l11,6.07c.06,0,.11-.06,0-.09l-11-6.07s-.11.06,0,.09Z"/><path class="cls-13" d="M80.24,238.46l9.66,8.06s.12,0,.07-.07l-9.66-8.06s-.12,0-.07.07Z"/><path class="cls-13" d="M79.55,241.75l7.7,8.37s.11,0,.07-.07l-7.7-8.37c0-.05-.11,0-.07.07Z"/><path class="cls-13" d="M78.83,245.16l6,7.18s.12,0,.08-.07l-6-7.17s-.12,0-.08.06Z"/><path class="cls-13" d="M78,248.68l4.52,5.37s.12,0,.07-.06l-4.52-5.38c0-.05-.11,0-.07.07Z"/><path class="cls-13" d="M77.66,250.76l3.51,4.3c0,.05.11,0,.07-.07l-3.51-4.29s-.11,0-.07.06Z"/><path class="cls-13" d="M77.22,252.85l2.47,3.06c0,.05.11,0,.07-.07l-2.47-3.05a0,0,0,1,0-.07.06Z"/><g class="cls-31"><path class="cls-32" d="M72,242.72c3.62-.87,3.31,2.95,5.61,3.61s.12-5,6.55-6.16c3.84-.69,6.17,2.83,7.43,5.79,3.25-6.46,1.42-12.71-1.77-14.11-5.4-2.37-8.79,2.83-8.79,2.83s-.75-5.16-4.92-5.74-10.55,7.15-8.81,15.21a19,19,0,0,0,.81,2.69C69.25,245.09,70.46,243.09,72,242.72Z"/></g><path class="cls-29" d="M100.33,316.47s3.38-5.21,8.79-2.84S116,332.39,95.39,340Z"/><path class="cls-30" d="M92.44,336.85a32.83,32.83,0,0,0,3,3.13l4.94-23.51s-.75-5.16-4.92-5.74-10.56,7.14-8.82,15.2a22.15,22.15,0,0,0,2.59,6.34c.93-.82,2.21.64,1.28,1.5a.87.87,0,0,1-.23.16c.34.5.68,1,1,1.42A1,1,0,0,1,92.44,336.85Zm-.16-3.5c.94-.86,2.25.62,1.31,1.48S91.35,334.21,92.28,333.35Z"/><path class="cls-13" d="M100.19,316.85q-2,9.63-4,19.26c-.22,1-.43,2-.64,3a.05.05,0,0,0,.1,0q2-9.61,4-19.25l.63-3c0-.07-.08-.1-.1,0Z"/><path class="cls-13" d="M96.51,334.47l-3.08,2.83s0,.11.07.07l3.08-2.83s0-.11-.07-.07Z"/><path class="cls-13" d="M97.38,330.32l-3.3,3s0,.12.06.08l3.31-3s0-.12-.07-.07Z"/><path class="cls-13" d="M98.1,326.88l-6,5.48s0,.11.07.07l6-5.48s0-.12-.07-.07Z"/><path class="cls-13" d="M100,317.94,88.36,326.1c-.06,0,0,.1.06.07L100,318s0-.11-.07-.08Z"/><path class="cls-13" d="M100.11,317.37,87.42,321.2c-.06,0,0,.12,0,.1l12.7-3.83c.06,0,0-.11,0-.1Z"/><path class="cls-13" d="M100.19,317.1l-10.62-1.66c-.07,0-.07.09,0,.1l10.62,1.66a.05.05,0,0,0,0-.1Z"/><path class="cls-13" d="M100.27,316.82,94,311.64s-.1,0,0,.09l6.3,5.17s.1,0,0-.08Z"/><path class="cls-13" d="M99.54,320l-10.33,9.18s0,.11.07.07l10.33-9.18s0-.11-.07-.07Z"/><path class="cls-13" d="M98.82,323.46,90.88,331s0,.11.07.07l7.93-7.52c.05-.05,0-.12-.06-.08Z"/><path class="cls-13" d="M96.05,336.68l1.63,1.77c0,.05.12,0,.08-.06-.55-.59-1.09-1.19-1.63-1.78,0,0-.12,0-.08.07Z"/><path class="cls-13" d="M96.93,332.48l-3.09,2.84s0,.11.07.07L97,332.55c.05,0,0-.11-.06-.07Z"/><path class="cls-13" d="M95.87,337.52l-1.21,1.11s0,.12.07.07l1.2-1.1c0-.05,0-.12-.06-.08Z"/><path class="cls-13" d="M100.27,316.9l7.13-3.23c.06,0,0-.12-.05-.09l-7.13,3.24c-.06,0,0,.11,0,.08Z"/><path class="cls-13" d="M100.19,317.19l10.56-1.26c.06,0,0-.1,0-.09l-10.56,1.26c-.06,0,0,.1,0,.09Z"/><path class="cls-13" d="M100.11,317.47l11.8,2.52c.06,0,.09-.08,0-.09l-11.8-2.53c-.06,0-.09.09,0,.1Z"/><path class="cls-13" d="M100,318l11,6.07c.06,0,.11,0,.06-.08l-11-6.07s-.1.05,0,.08Z"/><path class="cls-13" d="M99.5,320.24l9.66,8.06s.12,0,.07-.06l-9.65-8.07s-.12,0-.08.07Z"/><path class="cls-13" d="M98.82,323.53l7.69,8.37c0,.05.12,0,.07-.07l-7.69-8.36c0-.05-.12,0-.07.06Z"/><path class="cls-13" d="M98.1,327l6,7.17a.05.05,0,0,0,.08-.07l-6-7.17c0-.05-.11,0-.07.07Z"/><path class="cls-13" d="M97.3,330.46l4.52,5.38c0,.05.11,0,.07-.07q-2.27-2.68-4.52-5.38c0-.05-.12,0-.07.07Z"/><path class="cls-13" d="M96.92,332.55l3.51,4.29c0,.05.12,0,.07-.06q-1.74-2.16-3.51-4.3c0-.05-.11,0-.07.07Z"/><path class="cls-13" d="M96.48,334.64,99,337.69c0,.05.12,0,.08-.07l-2.48-3.05c0-.05-.11,0-.07.07Z"/><g class="cls-31"><path class="cls-32" d="M91.29,324.5c3.62-.87,3.32,2.95,5.61,3.61s.12-5,6.55-6.16c3.84-.69,6.17,2.84,7.43,5.8,3.25-6.46,1.42-12.72-1.76-14.12-5.41-2.37-8.79,2.84-8.79,2.84s-.75-5.16-4.92-5.74-10.56,7.14-8.82,15.2a19,19,0,0,0,.81,2.69C88.52,326.87,89.72,324.88,91.29,324.5Z"/></g><path class="cls-29" d="M114.8,192.35s-5.09-2.55-3.48-7.72,16.38-8.22,25.4,9.82Z"/><path class="cls-30" d="M114.8,192.35s-4.77,1.18-4.11,7c.56,4.88,11.74,10.64,26-4.87Z"/><path class="cls-13" d="M115.16,192.45l20.68,2h.09c.07,0,.08-.11,0-.11l-20.68-2h-.09a.06.06,0,0,0,0,.12Z"/><path class="cls-13" d="M131.59,194l2.47,2.15c.05,0,.12,0,.06-.1l-2.46-2.14a.06.06,0,1,0-.07.09Z"/><path class="cls-13" d="M127.71,193.64l4.61,3.73c.05,0,.12-.05.06-.09l-4.6-3.73c-.06-.05-.12,0-.07.09Z"/><path class="cls-13" d="M124.51,193.33l6.51,5.33c0,.05.12,0,.07-.09l-6.51-5.33c-.06-.05-.13,0-.07.09Z"/><path class="cls-13" d="M116.17,192.52l7.63,10a.06.06,0,1,0,.09-.07l-7.63-10c-.05,0-.14,0-.09.07Z"/><path class="cls-13" d="M115.64,192.46q2.39,5.59,4.78,11.18c0,.06.13,0,.11,0q-2.4-5.58-4.79-11.17a.05.05,0,1,0-.1,0Z"/><path class="cls-13" d="M115.37,192.41l-.42,9.84c0,.07.11.09.11,0,.14-3.28.29-6.56.43-9.84a.06.06,0,0,0-.12,0Z"/><path class="cls-13" d="M115.12,192.36c-1.36,2.08-2.71,4.17-4.07,6.26,0,.06,0,.13.09.07l4.07-6.27c0-.06,0-.13-.09-.06Z"/><path class="cls-13" d="M118.23,192.73l8.7,8.35s.12,0,.07-.09l-8.71-8.35c-.05,0-.11,0-.06.09Z"/><path class="cls-13" d="M121.32,193l8.31,7a.06.06,0,1,0,.07-.09l-8.31-7c-.06-.05-.12,0-.07.09Z"/><path class="cls-13" d="M133.66,194.19l1.45-1.66a.06.06,0,1,0-.09-.07c-.48.55-1,1.11-1.45,1.66,0,0,0,.12.09.07Z"/><path class="cls-13" d="M129.73,193.83l3.33,3c.06,0,.12,0,.07-.09l-3.33-3c-.06-.05-.12,0-.07.09Z"/><path class="cls-13" d="M133.58,194.2l1.49,1.21a.06.06,0,1,0,.07-.09l-1.49-1.21c-.05-.05-.12,0-.07.09Z"/><path class="cls-13" d="M115.22,192.37c-1.23-2.06-2.45-4.12-3.68-6.17,0-.06-.14,0-.1,0q1.83,3.09,3.68,6.17c0,.06.14,0,.1,0Z"/><path class="cls-13" d="M115.49,192.41l-2-9.46c0-.07-.13,0-.11,0l2,9.45c0,.07.12.06.11,0Z"/><path class="cls-13" d="M115.75,192.45c.4-3.57.81-7.14,1.21-10.71,0-.07-.1-.08-.11,0q-.61,5.36-1.21,10.7a.06.06,0,1,0,.11,0Z"/><path class="cls-13" d="M116.26,192.51l5.19-10.66c0-.07-.08-.11-.11,0l-5.18,10.67c0,.06.07.1.1,0Z"/><path class="cls-13" d="M118.33,192.72l6.36-9.62c0-.06,0-.13-.09-.06l-6.36,9.61c0,.06.05.13.09.07Z"/><path class="cls-13" d="M121.4,193c2.28-2.61,4.56-5.24,6.84-7.86,0-.06,0-.12-.09-.07L121.31,193c0,.05,0,.12.09.06Z"/><path class="cls-13" d="M124.59,193.32l5.92-6.2c.05-.05,0-.12-.09-.06l-5.92,6.19c0,.06,0,.12.09.07Z"/><path class="cls-13" d="M127.87,193.69l4.44-4.66c.05-.06,0-.12-.09-.07l-4.44,4.66a.06.06,0,1,0,.09.07Z"/><path class="cls-13" d="M129.8,193.83c1.18-1.21,2.37-2.42,3.55-3.64.05-.05,0-.14-.07-.08l-3.55,3.63s0,.14.07.09Z"/><path class="cls-13" d="M131.75,194c.84-.85,1.68-1.71,2.53-2.56.05-.05,0-.14-.07-.09-.85.85-1.69,1.71-2.53,2.56-.05,0,0,.14.07.09Z"/><polygon class="cls-36" points="122.25 193.07 122.25 193.07 114.8 192.35 122.25 193.07"/><g class="cls-31"><path class="cls-32" d="M111.32,184.63c-1.61,5.17,3.48,7.72,3.48,7.72l7.45.72c.09-2.55,4.41-4.1,4.78-9.13a8.48,8.48,0,0,0,0-.87C119.68,178.56,112.42,181.1,111.32,184.63Z"/></g><g class="cls-31"><path class="cls-32" d="M110.69,199.32a4.79,4.79,0,0,0,1.47,2.77c2.25-1.34,2.84.54,7.23.27,5.08-.32,7.66-2.41,3.94-6.83a3.64,3.64,0,0,1-1.08-2.46l-7.45-.72S110,193.53,110.69,199.32Z"/></g><path class="cls-30" d="M68.81,222.48s5.69,7.46-.42,14-30.2.34-30.53-32.88Z"/><path class="cls-29" d="M68.81,222.48s7.91,1.7,11.12-7.35c2.69-7.62-9.7-24.23-42.07-11.59Z"/><path class="cls-13" d="M68.34,222.09,39.15,204.23a.57.57,0,0,0-.13-.08.09.09,0,0,0-.1.16l29.2,17.86.12.07a.09.09,0,0,0,.1-.15Z"/><path class="cls-13" d="M45.14,207.91,43,203c0-.11-.21,0-.17.09q1.07,2.47,2.11,5c.05.11.21,0,.16-.09Z"/><path class="cls-13" d="M50.61,211.26q-2.05-4.42-4.12-8.85c-.05-.11-.21,0-.16.08q2.06,4.42,4.12,8.85c0,.11.21,0,.16-.08Z"/><path class="cls-13" d="M55.14,214l-5.79-12.59c-.05-.11-.22,0-.17.09L55,214.11c.05.11.22,0,.17-.09Z"/><path class="cls-13" d="M66.91,221.25q-2-10.2-4.07-20.38c0-.12-.2-.08-.18,0q2,10.18,4.07,20.38c0,.11.2.07.18,0Z"/><path class="cls-13" d="M67.65,221.72q.48-10,1-20c0-.12-.18-.12-.19,0q-.48,10-1,20c0,.12.18.13.19,0Z"/><path class="cls-13" d="M68,222l7.74-14.27c.06-.1-.1-.21-.16-.1l-7.74,14.27c-.06.1.1.2.16.1Z"/><path class="cls-13" d="M68.34,222.25l10.55-6.34c.11-.06,0-.23-.08-.17l-10.56,6.34c-.1.06,0,.23.09.17Z"/><path class="cls-13" d="M64,219.45q-3.44-9.31-6.86-18.64c0-.12-.21,0-.17.08q3.44,9.33,6.86,18.64c0,.12.21,0,.17-.08Z"/><path class="cls-13" d="M59.64,216.78q-3.64-8.16-7.28-16.31c0-.12-.22,0-.17.08q3.64,8.16,7.28,16.31a.09.09,0,0,0,.17-.08Z"/><path class="cls-13" d="M42.2,206.14l-3.34,1.42a.09.09,0,0,0,.08.17l3.35-1.42c.11-.05,0-.21-.09-.17Z"/><path class="cls-13" d="M47.77,209.51q-1.37-3.45-2.74-6.9c0-.12-.21,0-.16.08l2.73,6.91c0,.11.21,0,.17-.09Z"/><path class="cls-13" d="M42.33,206.18c-.45-1-.89-1.91-1.33-2.86a.09.09,0,0,0-.17.08c.44,1,.89,1.92,1.33,2.87.05.11.22,0,.17-.09Z"/><path class="cls-13" d="M68.2,222.16l1,11.79c0,.12.2.13.18,0q-.48-5.9-1-11.79c0-.12-.2-.13-.19,0Z"/><path class="cls-13" d="M67.83,221.91Q65.9,229.64,64,237.36c0,.11.15.17.18,0Q66.08,229.69,68,222a.09.09,0,1,0-.17-.05Z"/><path class="cls-13" d="M67.47,221.66q-4.76,7.49-9.53,15a.09.09,0,0,0,.16.1q4.77-7.48,9.53-15c.07-.1-.09-.2-.16-.1Z"/><path class="cls-13" d="M66.76,221.2l-15.38,12c-.1.08,0,.21.12.14l15.38-12c.1-.07,0-.21-.12-.13Z"/><path class="cls-13" d="M63.84,219.39,47.48,229c-.1.06,0,.22.08.16l16.37-9.65c.1-.06,0-.23-.09-.16Z"/><path class="cls-13" d="M59.51,216.74l-15.81,6.7c-.11.05,0,.22.09.17L59.6,216.9c.11,0,0-.21-.09-.16Z"/><path class="cls-13" d="M55,214l-13.25,4.9c-.12,0,0,.21.08.17l13.25-4.9c.11,0,0-.21-.08-.17Z"/><path class="cls-13" d="M50.42,211.06l-9.94,3.71c-.11,0,0,.2.08.16l9.95-3.7c.11,0,0-.21-.09-.17Z"/><path class="cls-13" d="M47.66,209.47l-7.88,2.81c-.11,0-.08.23,0,.18l7.89-2.81c.11,0,.07-.23-.05-.18Z"/><path class="cls-13" d="M44.92,207.78l-5.6,2c-.11,0-.07.22,0,.18l5.6-2c.11,0,.07-.22,0-.18Z"/><polygon class="cls-36" points="58.3 216.05 58.3 216.05 68.81 222.48 58.3 216.05"/><g class="cls-31"><path class="cls-32" d="M68.39,236.43c6.11-6.49.42-14,.42-14l-10.52-6.43c-2,3.7-9.49,2.88-13.66,10.06a13.89,13.89,0,0,0-.65,1.27C51.62,239.39,64.2,240.86,68.39,236.43Z"/></g><path class="cls-37" d="M79.93,215.13a7.94,7.94,0,0,0-.17-5.16c-4.32.36-3.82-2.84-10.52-5.61-7.75-3.2-13.08-2-10.77,7.26a6.09,6.09,0,0,1-.17,4.43l10.51,6.43S76.72,224.18,79.93,215.13Z"/><path class="cls-29" d="M76.76,219.63s-6.91,9.46-16.86,4.45-11.16-36,28.52-48.26Z"/><path class="cls-30" d="M76.76,219.63s.78,10.08,12.77,10.69c10.08.51,25.55-20.25-1.11-54.5Z"/><path class="cls-13" d="M77,218.92q4.77-18,9.55-35.89l1.5-5.61c0-.12-.15-.18-.18-.06q-4.78,18-9.55,35.89l-1.5,5.61c0,.12.15.17.18.06Z"/><path class="cls-13" d="M85.77,186.07,91,181.79c.09-.08,0-.21-.13-.14l-5.19,4.29c-.09.08,0,.21.13.13Z"/><path class="cls-13" d="M83.71,193.82l9.12-8.09c.09-.08,0-.22-.12-.14l-9.13,8.09c-.09.08,0,.22.13.14Z"/><path class="cls-13" d="M82,200.22l13-11.41c.09-.08,0-.22-.12-.14q-6.53,5.7-13,11.42a.09.09,0,1,0,.12.13Z"/><path class="cls-13" d="M77.55,216.89l23-12.13c.11,0,0-.22-.08-.16l-23,12.12c-.1.06,0,.23.09.17Z"/><path class="cls-13" d="M77.25,217.94,101.56,212a.09.09,0,1,0,0-.18l-24.31,5.94a.1.1,0,0,0,0,.19Z"/><path class="cls-13" d="M77.07,218.45l19.84,4.19c.12,0,.17-.15,0-.17l-19.84-4.2c-.12,0-.17.16-.05.18Z"/><path class="cls-13" d="M76.88,219l11.35,10.39c.09.09.23,0,.14-.12L77,218.83c-.09-.08-.22,0-.14.12Z"/><path class="cls-13" d="M78.66,212.77l19.89-14.84c.1-.08,0-.21-.13-.14L78.54,212.64c-.1.07,0,.21.12.13Z"/><path class="cls-13" d="M80.31,206.59l16.94-14.53c.09-.07,0-.21-.12-.13L80.18,206.45c-.09.08,0,.22.13.14Z"/><path class="cls-13" d="M86.83,182l-2.89-3.5c-.07-.09-.21,0-.13.13l2.89,3.5c.07.09.21,0,.13-.13Z"/><path class="cls-13" d="M84.78,189.79l7.3-5.73c.1-.08,0-.22-.12-.14l-7.31,5.73c-.09.08,0,.21.13.14Z"/><path class="cls-13" d="M86.83,182.09l3-2.62c.09-.08,0-.21-.13-.13l-3,2.61c-.09.08,0,.22.13.14Z"/><path class="cls-13" d="M76.91,218.81l-13.77,5.38c-.11.05,0,.21.09.17L77,219c.11,0,0-.21-.09-.17Z"/><path class="cls-13" d="M77.1,218.27l-19.88.88c-.11,0-.12.2,0,.19l19.87-.89c.12,0,.13-.19,0-.18Z"/><path class="cls-13" d="M77.26,217.75l-21.33-6.08c-.11,0-.17.15,0,.18l21.32,6.08a.09.09,0,0,0,.06-.18Z"/><path class="cls-13" d="M77.55,216.73,57.65,202.6c-.1-.07-.19.09-.1.16l19.91,14.13c.1.07.19-.09.09-.16Z"/><path class="cls-13" d="M78.68,212.59,61.3,196.43c-.09-.08-.23,0-.14.12l17.38,16.17c.09.08.23-.05.14-.13Z"/><path class="cls-13" d="M80.31,206.46,66.65,189.91c-.08-.09-.21,0-.14.13q6.84,8.27,13.66,16.55c.08.09.22,0,.14-.13Z"/><path class="cls-13" d="M82,200.09,71.42,186c-.07-.1-.21,0-.13.12l10.58,14.13c.07.09.21,0,.14-.13Z"/><path class="cls-13" d="M83.87,193.55,75.9,183c-.08-.09-.21,0-.14.13l8,10.59c.07.09.21,0,.13-.13Z"/><path class="cls-13" d="M84.79,189.66l-6.19-8.45c-.07-.09-.21,0-.13.13l6.18,8.44c.07.1.21,0,.14-.12Z"/><path class="cls-13" d="M85.83,185.77l-4.35-6c-.07-.09-.21,0-.14.13l4.35,6c.07.1.21,0,.14-.12Z"/><polygon class="cls-29" points="80.88 204.13 80.88 204.13 76.76 219.63 80.88 204.13"/><g class="cls-31"><path class="cls-32" d="M59.9,224.08c9.95,5,16.86-4.45,16.86-4.45l4.12-15.5c-1.4,1-3,1.16-5.1-.57-5.53-4.47-9-11.82-16-9.07C50.79,207.19,53.58,220.9,59.9,224.08Z"/></g><g class="cls-31"><path class="cls-32" d="M89.53,230.32c7.64.39,18.38-11.46,11.5-32.15a15.21,15.21,0,0,0-6.8-3c-7.52-1-10,6.5-13.35,9l-4.12,15.5S77.54,229.71,89.53,230.32Z"/></g><polygon class="cls-38" points="379.86 170.89 350.17 170.89 343.53 191.52 290.24 191.52 290.24 164.23 347.52 143.97 379.86 170.89"/><polygon class="cls-39" points="346.55 138.43 391.49 164.23 391.49 92.87 346.55 67.06 346.55 138.43"/><polygon class="cls-40" points="379.86 170.89 392.96 163.32 392.96 91.88 379.86 99.44 379.86 170.89"/><polygon class="cls-39" points="334.91 145.08 379.86 170.89 379.86 99.52 334.91 73.71 334.91 145.08"/><polygon class="cls-41" points="334.91 145.08 379.86 170.89 379.86 99.52 334.91 73.71 334.91 145.08"/><polygon class="cls-42" points="334.91 73.67 336.38 72.82 379.87 97.7 389.88 91.94 346.55 67.06 348.01 66.21 391.43 91.05 391.43 91.05 392.96 91.93 391.49 92.87 391.41 92.82 379.86 99.52 378.28 98.61 378.32 98.59 334.91 73.67"/><polygon class="cls-13" points="386.9 93.65 346.55 70.5 339.42 74.56 379.87 97.7 386.9 93.65"/><polygon class="cls-43" points="325.41 150.48 359.88 170.28 359.88 106.14 325.41 86.33 325.41 150.48"/><polygon class="cls-44" points="348.24 176.93 361.34 169.37 361.34 105.15 348.24 112.71 348.24 176.93"/><polygon class="cls-43" points="313.78 157.13 348.24 176.93 348.24 112.79 313.78 92.99 313.78 157.13"/><polygon class="cls-45" points="313.78 157.13 348.24 176.93 348.24 112.79 313.78 92.99 313.78 157.13"/><polygon class="cls-46" points="313.78 92.94 315.24 92.09 348.25 110.97 358.27 105.21 325.41 86.33 326.88 85.48 359.81 104.32 359.82 104.32 361.34 105.2 359.88 106.14 359.8 106.09 348.24 112.79 346.67 111.88 346.71 111.86 313.78 92.94"/><polygon class="cls-13" points="355.29 106.92 325.41 89.77 318.28 93.84 348.25 110.97 355.29 106.92"/><polygon class="cls-47" points="310.54 159.1 355.16 184.87 355.16 139.14 310.54 113.37 310.54 159.1"/><polygon class="cls-48" points="343.53 191.52 356.63 183.96 356.63 138.15 343.53 145.71 343.53 191.52"/><polygon class="cls-47" points="298.9 165.76 343.53 191.52 343.53 145.79 298.9 120.02 298.9 165.76"/><polygon class="cls-49" points="298.9 165.76 343.53 191.52 343.53 145.79 298.9 120.02 298.9 165.76"/><polygon class="cls-50" points="298.9 119.98 300.37 119.13 343.54 143.97 353.56 138.21 310.54 113.37 312 112.52 355.1 137.32 355.11 137.32 356.63 138.2 355.16 139.14 355.09 139.09 343.53 145.79 341.96 144.88 342 144.86 298.9 119.98"/><polygon class="cls-13" points="350.57 139.92 310.54 116.81 303.4 120.87 343.54 143.97 350.57 139.92"/><path class="cls-51" d="M58.42,173.34l86.44-49.9a4.32,4.32,0,0,0,2.14-3.72V31a4.29,4.29,0,0,0-6.43-3.71L56,76.11a8,8,0,0,0-4,7v86.55A4.29,4.29,0,0,0,58.42,173.34Z"/><path class="cls-52" d="M191,98.48l58-33.52a2.87,2.87,0,0,0,1.44-2.49V2.88A2.88,2.88,0,0,0,246.19.39L189.4,33.18a5.38,5.38,0,0,0-2.69,4.67V96A2.88,2.88,0,0,0,191,98.48Z"/><path class="cls-40" d="M114.23,75.56,134.8,63.68a1,1,0,0,0,.51-.88V49.22a1,1,0,0,0-1.53-.89L113.65,60a1.91,1.91,0,0,0-1,1.66V74.67A1,1,0,0,0,114.23,75.56Z"/><path class="cls-40" d="M119.23,122,135,112.84a.79.79,0,0,0,.39-.68V96a.79.79,0,0,0-1.18-.68l-15.43,8.92a1.45,1.45,0,0,0-.74,1.27v15.8A.79.79,0,0,0,119.23,122Z"/><line class="cls-53" x1="135.33" y1="73.14" x2="63.66" y2="114.51"/><line class="cls-53" x1="135.33" y1="78.45" x2="63.66" y2="119.82"/><line class="cls-53" x1="135.33" y1="83.76" x2="63.66" y2="125.13"/><line class="cls-53" x1="135.33" y1="89.07" x2="63.66" y2="130.44"/><line class="cls-53" x1="104.91" y1="69.2" x2="63.66" y2="93.02"/><line class="cls-53" x1="104.91" y1="74.51" x2="63.66" y2="98.33"/><line class="cls-53" x1="104.91" y1="79.82" x2="63.66" y2="103.64"/><line class="cls-53" x1="135.33" y1="67.57" x2="63.66" y2="108.95"/><line class="cls-53" x1="112.7" y1="107.44" x2="63.66" y2="135.75"/><line class="cls-53" x1="112.7" y1="112.75" x2="63.66" y2="141.06"/><line class="cls-53" x1="112.7" y1="118.06" x2="63.66" y2="146.37"/><line class="cls-53" x1="112.7" y1="123.37" x2="63.66" y2="151.68"/><path class="cls-54" d="M206.08,71.13c-3.62-2.1-5.62-6.39-5.62-12.08,0-11.09,7.8-24.61,17.4-30.14,4.93-2.85,9.65-3.27,13.27-1.17s5.63,6.39,5.63,12.08c0,11.08-7.8,24.6-17.4,30.14a16.6,16.6,0,0,1-8.19,2.48A10.08,10.08,0,0,1,206.08,71.13Zm13.28-39.62c-8.76,5.06-15.89,17.41-15.89,27.54,0,4.57,1.46,7.93,4.12,9.47s6.31,1.12,10.27-1.17c8.76-5.06,15.89-17.41,15.89-27.53,0-4.57-1.46-7.94-4.12-9.47a7.07,7.07,0,0,0-3.59-.91A13.66,13.66,0,0,0,219.36,31.51Z"/><polygon class="cls-54" points="222.95 57.6 222.95 36.25 210.37 54.19 222.95 57.6"/><path class="cls-51" d="M263.9,162.4l66.36-38.31a3.3,3.3,0,0,0,1.65-2.85V53.12A3.29,3.29,0,0,0,327,50.27L262,87.75A6.18,6.18,0,0,0,259,93.09v66.46A3.29,3.29,0,0,0,263.9,162.4Z"/><path class="cls-55" d="M295.33,125.64l9.07-15.7,17.8,10.28a2.26,2.26,0,0,0,2.26-3.91l-21.72-12.54-9.06,15.7-22.75-13.13a2.26,2.26,0,1,0-2.26,3.91Z"/><path class="cls-55" d="M267.55,122.89a2.26,2.26,0,0,0,2.25-2.26V109.25l9-5.18a2.27,2.27,0,0,0,.83-3.09,2.25,2.25,0,0,0-3.08-.82l-11.23,6.48v14A2.26,2.26,0,0,0,267.55,122.89Z"/><line class="cls-56" x1="322.72" y1="68.44" x2="307.46" y2="77.25"/><line class="cls-56" x1="298.57" y1="82.12" x2="293.07" y2="85.29"/><path class="cls-57" d="M313.64,44.41c2.44-1.41,4.43-.27,4.44,2.54a9.74,9.74,0,0,1-4.41,7.65c-2.45,1.41-4.44.28-4.44-2.54A9.74,9.74,0,0,1,313.64,44.41Z"/><path class="cls-57" d="M313.72,34.2a13.68,13.68,0,0,1,5.62-1.92,7.56,7.56,0,0,1,4.58.95c1.19.7,1.18,2.94,0,5a6.31,6.31,0,0,1-2.15,2.25,2.19,2.19,0,0,1-2.18.21,4.4,4.4,0,0,0-2.62-.55,8,8,0,0,0-3.22,1.1,14.21,14.21,0,0,0-3.2,2.62,19.47,19.47,0,0,0-2.62,3.56,6.2,6.2,0,0,1-2.17,2.32,2.19,2.19,0,0,1-2.15.23c-1.21-.67-1.23-2.89,0-5a33.91,33.91,0,0,1,4.56-6.24A24.9,24.9,0,0,1,313.72,34.2Z"/><path class="cls-57" d="M313.68,23a23.12,23.12,0,0,1,9.41-3.23,12.75,12.75,0,0,1,7.68,1.55c1.2.69,1.2,2.93,0,5a6.11,6.11,0,0,1-2.15,2.26,2.15,2.15,0,0,1-2.17.22,9.57,9.57,0,0,0-5.73-1.16,17.24,17.24,0,0,0-7,2.41,31.18,31.18,0,0,0-7,5.69A42,42,0,0,0,301,43.5a6.1,6.1,0,0,1-2.17,2.29,2.19,2.19,0,0,1-2.15.23c-1.2-.68-1.22-2.9,0-5a56.59,56.59,0,0,1,7.64-10.42A42,42,0,0,1,313.68,23Z"/><path class="cls-57" d="M313.65,11.81a32.06,32.06,0,0,1,13-4.48,17.74,17.74,0,0,1,10.61,2.14c1.2.69,1.2,2.92,0,5a6.14,6.14,0,0,1-2.15,2.27,2.15,2.15,0,0,1-2.17.22,14.55,14.55,0,0,0-8.67-1.74,25.89,25.89,0,0,0-10.6,3.66,46.58,46.58,0,0,0-10.59,8.59,63.43,63.43,0,0,0-8.62,11.74,6.25,6.25,0,0,1-2.17,2.29,2.18,2.18,0,0,1-2.16.22c-1.2-.67-1.21-2.9,0-5a77.63,77.63,0,0,1,10.57-14.38A57.62,57.62,0,0,1,313.65,11.81Z"/></g></g></g></svg>