<svg xmlns="http://www.w3.org/2000/svg" xmlns:xlink="http://www.w3.org/1999/xlink" viewBox="0 0 434.62 284.3"><defs><style>.cls-1{isolation:isolate;}.cls-2{fill:#e5e3e3;}.cls-16,.cls-18,.cls-19,.cls-2{mix-blend-mode:multiply;}.cls-3{fill:#fff;}.cls-4{fill:#fddeda;}.cls-5{fill:#595076;}.cls-6{fill:#494b77;}.cls-7{fill:#fff1ee;}.cls-8{fill:#ff9889;}.cls-9{fill:#fbf5e7;}.cls-10{fill:#ffdbd6;}.cls-11{fill:#214a80;}.cls-12{fill:#ffbfb6;}.cls-13{fill:#d3cccb;mix-blend-mode:overlay;}.cls-14{fill:#f76c5e;}.cls-15,.cls-16{fill:#586ba4;}.cls-16{opacity:0.35;}.cls-17{fill:#f6d365;}.cls-18{fill:#ffaf65;opacity:0.34;}.cls-19{opacity:0.5;fill:url(#Degradado_sin_nombre_30);}.cls-20{fill:#f7b1ab;}.cls-21{fill:#324376;}.cls-22{fill:#f68e5f;}.cls-23{fill:#e8505b;}</style><linearGradient id="Degradado_sin_nombre_30" x1="343.03" y1="46.32" x2="393.12" y2="46.32" gradientUnits="userSpaceOnUse"><stop offset="0" stop-color="#feff7f" stop-opacity="0"/><stop offset="1" stop-color="#fa7f5e" stop-opacity="0.97"/></linearGradient></defs><title>Recurso 2</title><g class="cls-1"><g id="Capa_2" data-name="Capa 2"><g id="Layer_1" data-name="Layer 1"><path class="cls-2" d="M383.69,241.08a2.59,2.59,0,0,0-1.42-2.24l-25.74-16.29a7.53,7.53,0,0,0-7.11-.14l-60.5,35.17a2.51,2.51,0,0,0-1.48,2.18h0v5.51h0a2.58,2.58,0,0,0,1.45,2.05l9.45,5.7-.11.06a1.18,1.18,0,0,0-.51,1,49,49,0,0,1-17.19,3.52l0,1.07A50.09,50.09,0,0,0,298.14,275a1.25,1.25,0,0,0,1.46.1c.36-.23.72-.46,1.09-.68l14.85,8.95a7.77,7.77,0,0,0,7.16.05l59.49-34.77a2.55,2.55,0,0,0,1.49-2.26h0v-5.34Z"/><path class="cls-3" d="M276.4,278.9h-.94c-8.27-.18-16.18-7.46-18.39-16.94-2.81-12,4-23.64,18.16-31l4.3-2.23c17.79-9.2,30.65-15.85,31.76-24.09.62-4.7-2.44-10-9.66-16.62a86.18,86.18,0,0,0-22.34-14.7c-8.94-4.38-13.86-6.79-11.46-18.76,2.33-11.66-19.69-22.14-50.17-36.65-18.73-8.91-40-19-61.29-32C111.06,58.35,82.57,48.36,64,53.53,55.62,55.86,49.34,61.24,44.77,70c-9.12,17.45-.81,29.19,5.86,38.61,5,7.13,9.41,13.29,2.86,19.06-3.32,2.92-3.85,6.19-1.53,9.47,6.54,9.27,32.38,14.8,53.32,3.17l.52.94c-21.42,11.9-48,6.09-54.72-3.49-2.63-3.74-2-7.61,1.7-10.9,5.83-5.13,2.12-10.37-3-17.63-6.48-9.16-15.36-21.7-5.94-39.73,4.71-9,11.22-14.57,19.88-17,18.9-5.25,47.64,4.77,93.23,32.49,21.28,13,42.48,23,61.19,31.94,30.92,14.72,53.25,25.35,50.76,37.83-2.24,11.16,2.15,13.31,10.88,17.58a87.17,87.17,0,0,1,22.6,14.88c7.49,6.9,10.67,12.48,10,17.56-1.18,8.79-13.57,15.2-32.33,24.9l-4.3,2.22c-13.71,7.12-20.29,18.27-17.6,29.81,2.1,9,9.56,15.94,17.37,16.11,16.14.3,18.74-8.45,18.85-8.83l1,.28C295.27,269.67,292.63,278.9,276.4,278.9Z"/><path class="cls-3" d="M284.76,263c-2-1.18-1.95-3.09,0-4.24l60.5-35.17a7.53,7.53,0,0,1,7.11.14l25.74,16.29c1.94,1.23,1.9,3.18-.07,4.33l-59.5,34.77a7.74,7.74,0,0,1-7.16,0Z"/><polygon class="cls-3" points="283.3 255.47 283.3 260.98 293.76 266.73 314.81 276.65 379.57 242.13 379.57 236.79 348.47 238.09 324.48 244.21 283.3 255.47"/><path class="cls-4" d="M284.76,257.54c-2-1.19-1.95-3.1,0-4.25l60.5-35.16a7.53,7.53,0,0,1,7.11.13l25.74,16.3c1.94,1.22,1.9,3.17-.07,4.33l-59.5,34.77a7.77,7.77,0,0,1-7.16-.05Z"/><polygon class="cls-5" points="348.59 221.82 372.97 236.79 323.38 265.38 298.15 251.41 348.59 221.82"/><path class="cls-5" d="M308.43,261c.53,1.66-.84,3.56-3.05,4.26s-4.42-.08-4.94-1.74.85-3.56,3.05-4.25S307.91,259.33,308.43,261Z"/><path class="cls-3" d="M358.23,225.68l8,5.32c.66.43,1.28-.63.62-1.06l-8-5.31c-.66-.44-1.27.62-.62,1.05Z"/><path class="cls-4" d="M296.53,267.28l-2.21,1.38a1.22,1.22,0,0,0,1.36,2l2.22-1.38a1.22,1.22,0,1,0-1.37-2Z"/><path class="cls-3" d="M296.31,267.42c-.73.47-1.47.93-2.21,1.39a1.22,1.22,0,0,0,1.37,2l2.21-1.39a1.21,1.21,0,0,0,.33-1.69,1.24,1.24,0,0,0-1.7-.34Z"/><polygon class="cls-2" points="159.24 281.31 348.66 242.81 219.77 181.54 157.95 238.6 159.24 281.31"/><path class="cls-3" d="M137.54,9s1.18-3.91,4.37-2.73L300.13,91.13s3.32,1.34,1.11,8.83c-2.71,9.19-32.89,117.3-32.89,117.3s-.2,1.74-11,2.15c-5.34.2-54.19-103.24-54.19-103.24Z"/><path class="cls-6" d="M108.24,118.67,137.54,9s1.54-3.92,6.09-1.24S298.21,92.14,298.21,92.14s2.09,1,.54,6.79c-1.36,5-31.9,116.62-31.9,116.62s-.75,1.91-5,1.71c-3.5-.15-129.08-60.47-130.88-61.54S108.24,118.67,108.24,118.67Z"/><path class="cls-4" d="M262.92,211.73v2.86L159,275.14,0,181.54v6.1a4.89,4.89,0,0,0,2.45,4.07h0l153,88.63c.21.11,3.59,2,6.44.24h0l102.53-61.89v-7.2Z"/><path class="cls-7" d="M108.24,118.67,0,181.54l159,93.6,104-60.55s3.75-2.6-.4-5.94Z"/><polygon class="cls-8" points="147.2 220.55 156.65 214.34 97.18 179.34 87.57 185.66 147.2 220.55"/><polygon class="cls-8" points="208.72 229.26 76.52 151.46 65.39 158.15 197.36 235.81 208.72 229.26"/><polygon class="cls-8" points="234.7 214.29 244.03 208.91 110.2 131.22 101.97 136.17 234.7 214.29"/><polygon class="cls-8" points="158.71 215.55 149.26 221.76 185.22 242.81 195.22 237.04 158.71 215.55"/><polygon class="cls-8" points="89.17 143.85 78.61 150.2 210.86 228.03 221.64 221.82 89.17 143.85"/><polygon class="cls-8" points="95.12 178.13 63.3 159.4 53.14 165.51 85.51 184.45 95.12 178.13"/><polygon class="cls-8" points="99.88 137.43 91.26 142.6 223.78 220.59 232.57 215.52 99.88 137.43"/><polygon class="cls-9" points="142.73 15.93 115.58 116.67 262.86 201.44 290.8 97.86 142.73 15.93"/><path class="cls-10" d="M211.37,147.2l42.5,24a2.45,2.45,0,0,0,3.8-1.45l8.43-30.66a4.47,4.47,0,0,0-2.1-4.78l-42.49-24a2.46,2.46,0,0,0-3.81,1.44l-8.43,30.67A4.46,4.46,0,0,0,211.37,147.2Z"/><path class="cls-11" d="M217.93,138.44l35.35,20a.82.82,0,0,0,1.28-.49l0-.1a1.49,1.49,0,0,0-.71-1.61l-35.34-20a.83.83,0,0,0-1.29.49l0,.1A1.5,1.5,0,0,0,217.93,138.44Z"/><path class="cls-11" d="M231.7,152.21l20.15,11.38a.83.83,0,0,0,1.29-.49l0-.1a1.5,1.5,0,0,0-.71-1.61L232.31,150a.83.83,0,0,0-1.29.48l0,.11A1.48,1.48,0,0,0,231.7,152.21Z"/><path class="cls-3" d="M246.29,137.33c-1.07,3.86,1.05,8.68,4.72,10.76s7.52.62,8.58-3.25-1-8.69-4.73-10.76S247.35,133.46,246.29,137.33Z"/><path class="cls-3" d="M233.87,95.16,270.81,116a.84.84,0,0,0,1.29-.49l0-.1a1.49,1.49,0,0,0-.72-1.61L234.48,93a.83.83,0,0,0-1.29.49l0,.1A1.5,1.5,0,0,0,233.87,95.16Z"/><path class="cls-3" d="M230.05,109.06,267,129.93a.84.84,0,0,0,1.29-.49l0-.1a1.52,1.52,0,0,0-.71-1.62l-36.94-20.87a.84.84,0,0,0-1.29.49l0,.1A1.51,1.51,0,0,0,230.05,109.06Z"/><path class="cls-3" d="M223.18,97.12,268.91,123a.84.84,0,0,0,1.29-.49l0-.1a1.51,1.51,0,0,0-.72-1.62L223.79,94.91a.84.84,0,0,0-1.29.49l0,.1A1.52,1.52,0,0,0,223.18,97.12Z"/><path class="cls-8" d="M136.23,104.75l57.9,32.71a2.55,2.55,0,0,0,4-1.49l16-58.17a4.64,4.64,0,0,0-2.18-5L154,40.13a2.56,2.56,0,0,0-3.95,1.5l-16,58.16A4.62,4.62,0,0,0,136.23,104.75Z"/><polygon class="cls-12" points="146.34 99.5 188.25 123.17 200.38 79.05 158.47 55.37 146.34 99.5"/><polygon class="cls-3" points="169.56 96.64 164.66 83 149.61 87.61 146.34 99.5 165.76 110.47 169.56 96.64"/><polygon class="cls-11" points="192.1 109.18 187.4 90.75 152.9 103.21 188.25 123.17 192.1 109.18"/><polygon class="cls-8" points="256.02 220.59 256.02 222.38 250.87 225.39 250.87 223.65 256.02 220.59"/><polygon class="cls-8" points="247.35 225.63 247.35 227.42 242.2 230.44 242.2 228.69 247.35 225.63"/><polygon class="cls-8" points="239.34 230.44 239.34 232.22 228.03 238.85 228.03 237.18 239.34 230.44"/><polygon class="cls-4" points="88.12 192.51 61.69 208.95 112.59 238.6 139.39 222.52 88.12 192.51"/><polygon class="cls-13" points="181.58 154.66 262.86 201.44 275.48 154.66 181.58 154.66"/><polygon class="cls-13" points="280.68 135.37 290.8 97.86 115.58 116.67 148.07 135.37 280.68 135.37"/><path class="cls-14" d="M405.52,9.84c-1.18-4-12.44,4.07-13.76,4.94a.4.4,0,0,0-.19.32.48.48,0,0,0-.09.37A.42.42,0,0,0,392,16c3.64-1.16,7.44-2.16,11-3.59C403.87,12.07,405.92,11.2,405.52,9.84Z"/><path class="cls-14" d="M394.26,19.91a.43.43,0,0,0-.28.24h0a.45.45,0,0,0,0,.86,22.81,22.81,0,0,0,8.51-.41c.9-.18,4.55-.44,4.61-2C407.19,15.71,395.57,19.52,394.26,19.91Z"/><path class="cls-14" d="M395.09.39c-1.65-.52-3,2.43-3.4,3.44-1.14,2.6-2.72,5.94-2.75,8.8a.44.44,0,0,0,.66.38.4.4,0,0,0,.56-.17C390.87,11.53,398.5,1.47,395.09.39Z"/><path class="cls-3" d="M366.07,97.07c-.64,2.47-4.12,5.82-11.3,6.59-.64.08-1.3.13-2,.15-9.86.38-14.86-5.89-15.31-8.61a3.49,3.49,0,0,1-.05-.53c0-.1,0-.2,0-.3a3.06,3.06,0,0,1,1.64-2.29,4.88,4.88,0,0,1,1-.44l13.62.31,8.69.2a8,8,0,0,1,2.11,1.16,4.1,4.1,0,0,1,1.68,2.59h0A2.93,2.93,0,0,1,366.07,97.07Z"/><path class="cls-15" d="M366.07,97.07c-2.36,2.25-6.62,4.29-13,4.51-9,.32-13.54-3.72-15.63-6.91,0-2.3,2.63-3,2.63-3l22.31.51s3.41,1.14,3.79,3.76A2.93,2.93,0,0,1,366.07,97.07Z"/><path class="cls-3" d="M366.15,95.9c-2,2.08-5.76,4-11.47,4.55q-.85.09-1.77.12c-7.8.3-12.92-3.09-15.47-6.2a8.44,8.44,0,0,1-1.88-3.56,3.25,3.25,0,0,1,.22-1.89,2.91,2.91,0,0,1,.34-.54,4.31,4.31,0,0,1,1.47-1.22,3.94,3.94,0,0,1,.45-.06l22.16.49,3.11.07a15.56,15.56,0,0,1,1.65.23,6.65,6.65,0,0,1,2.54,2.22,3.89,3.89,0,0,1,.53,1.35l0,.15C368.23,92.79,367.63,94.38,366.15,95.9Z"/><path class="cls-15" d="M368,91.46c-1.85,3.17-7.49,6.16-15.43,6.52-11.61.54-15.68-5.78-16.82-9.06a4,4,0,0,1,1.81-1.76,3.94,3.94,0,0,1,.45-.06l25.27.56a15.56,15.56,0,0,1,1.65.23A5.58,5.58,0,0,1,368,91.46Z"/><path class="cls-3" d="M367.5,90.11a9.27,9.27,0,0,1-3,3.2,20.44,20.44,0,0,1-10.06,3.18c-.49.05-1,.08-1.5.09a19.31,19.31,0,0,1-13.83-4.5,12.7,12.7,0,0,1-3-3.7,5.6,5.6,0,0,1-.56-1.56,3.16,3.16,0,0,1,1.18-3.08,5.1,5.1,0,0,1,1.75-.94l25.27.57a8.73,8.73,0,0,1,1.91,1,5.62,5.62,0,0,1,2.08,2.28,3.68,3.68,0,0,1,.31,1A4.18,4.18,0,0,1,367.5,90.11Z"/><path class="cls-15" d="M367.75,86.61c-1.62,3-5.37,7.11-14.7,7.07-12.93,0-15.72-7.19-16.31-9.94a5.1,5.1,0,0,1,1.75-.94l25.27.57S366.74,84.36,367.75,86.61Z"/><path class="cls-16" d="M366.15,95.91a2.93,2.93,0,0,1-.08,1.16c-.64,2.47-4.12,5.82-11.3,6.59a4.33,4.33,0,0,0-.1-3.2h0a2.74,2.74,0,0,0-.31-3.85.76.76,0,0,1,0-.11,4.83,4.83,0,0,0-.74-4.54c-.16-.2-.27-.31-.27-.31l6.8-4,5.47-3.26a5.62,5.62,0,0,1,2.08,2.28,3.68,3.68,0,0,1,.31,1,4.18,4.18,0,0,1-.56,2.48,3.89,3.89,0,0,1,.53,1.35l0,.15c.17,1.18-.43,2.77-1.91,4.29Z"/><path class="cls-17" d="M377.17,72.57c-5.29,3.64-7.38,9.61-11,14.08a19,19,0,0,1-1.34,1.49,14.88,14.88,0,0,1-10.62,4.39c-.49,0-1,0-1.52,0a20.89,20.89,0,0,1-6.29-1.09,12.63,12.63,0,0,1-1.29-.49A17.92,17.92,0,0,1,343,90a16.69,16.69,0,0,1-2.7-2c-2.4-2.16-3.16-5.26-4.71-8a8.57,8.57,0,0,0-.84-1.2c-1.54-1.89-3.73-3.09-5.79-4.42-.86-.56-1.7-1.16-2.51-1.8C307.89,58,307.31,27,324.33,11.09a39.62,39.62,0,0,1,11.4-7.43,44.06,44.06,0,0,1,20-3.59l.36,0c9.59.66,19.12,4.51,25.92,11.41C398.4,28.11,396.53,59.25,377.17,72.57Z"/><path class="cls-18" d="M377.17,72.57c-9.08,6.24-8.73,19.38-23,20a23.84,23.84,0,0,1-6.47-16.84c.41-11,8.53-21,7.21-32-.77-6.45-4.82-12.12-9.75-16.33-3-2.58-6.46-4.79-8.72-8.06a15.09,15.09,0,0,1-.73-15.67A44,44,0,0,1,356.12.1c9.59.66,19.12,4.51,25.92,11.41C398.4,28.11,396.53,59.25,377.17,72.57Z"/><path class="cls-19" d="M377.17,72.57c-9.08,6.24-8.73,19.38-23,20-.49,0-1,0-1.52,0A20,20,0,0,1,343,90c2.85,0,6.13.87,8.43.72,4.29-.27,8.67-1.82,11.47-5.07,2-2.29,3-5.23,4.73-7.73,2.16-3.19,5.3-5.56,8.11-8.2a45.36,45.36,0,0,0,12.61-20,38.45,38.45,0,0,0-13.7-40.36c-5-3.8-11.07-4.77-16.77-7.16-1-.4-2.05-1.06-2.15-2.11l.36,0c9.59.66,19.12,4.51,25.92,11.41C398.4,28.11,396.53,59.25,377.17,72.57Z"/><path class="cls-3" d="M375,51.09a2.64,2.64,0,0,0-2.94,1.22,22.58,22.58,0,0,0-2.64,6.78c-.12.42-.22.82-.34,1.21-.26.92-.51,1.87-.74,2.84-2.57,1.61-5.51,3-8.34,2.26a8.06,8.06,0,0,1-5.17-5.31c-.09-.24-.16-.49-.24-.74A21,21,0,0,0,357,54.72l.12-.35a14.76,14.76,0,0,0,1.25-5.46,3,3,0,0,0-1.91-2.83,2.37,2.37,0,0,0-2.59,1.1,8.91,8.91,0,0,0-1.24,5,30.32,30.32,0,0,0,.67,7,18.85,18.85,0,0,1-1.88,2.19,8.55,8.55,0,0,1-2.88,2c-1.76.68-4,.48-6.65-.62-.52-.21-1-.45-1.54-.71-1.08-4.92-2.37-9.24-5.65-12.3a3.7,3.7,0,0,0-2.92-1.26,3.1,3.1,0,0,0-2.49,3.22,6.62,6.62,0,0,0,1.46,3.6,24.84,24.84,0,0,0,8.56,7.54c0,.19.09.4.13.59l3.35,16c.8,3.81,1.62,7.72,2.26,11.63a12.63,12.63,0,0,0,1.29.49c-.66-4.17-1.54-8.32-2.39-12.37l-3.28-15.62.77.34c2.94,1.21,5.47,1.43,7.53.63a9.72,9.72,0,0,0,3.28-2.29,20.9,20.9,0,0,0,1.48-1.63,9.21,9.21,0,0,0,6,6c2.88.77,5.73-.33,8.27-1.8-.34,1.56-.66,3.2-1,4.93-.89,5.25-1.44,10.64-2,15.84-.08.88-.17,1.75-.26,2.62a19,19,0,0,0,1.34-1.49c0-.34.07-.67.1-1,.53-5.19,1.07-10.55,2-15.77.37-2.12.77-4.11,1.21-6a1.19,1.19,0,0,0,.15-.09c3.57-2.32,7.22-5.31,7.22-10A2.7,2.7,0,0,0,375,51.09Zm-43.28,3.49a5.64,5.64,0,0,1-1.25-2.95,1.94,1.94,0,0,1,1.44-2l.15,0a2.89,2.89,0,0,1,1.83,1c2.82,2.63,4.08,6.37,5.07,10.67A23.65,23.65,0,0,1,331.76,54.58Zm22.09-2.46a8,8,0,0,1,1-4.25,1.38,1.38,0,0,1,1.05-.69,1,1,0,0,1,.25,0A1.85,1.85,0,0,1,357.23,49a13.85,13.85,0,0,1-1.18,5l-.13.35a19.48,19.48,0,0,1-1.66,3.44A35.39,35.39,0,0,1,353.85,52.12Zm16,10.06c.14-.53.28-1,.43-1.56s.22-.8.33-1.21A21.87,21.87,0,0,1,373.07,53a1.71,1.71,0,0,1,1.3-.82,1.13,1.13,0,0,1,.32,0,1.53,1.53,0,0,1,.91,1.58C375.61,57.53,372.82,60.13,369.84,62.18Z"/><path class="cls-3" d="M321.35,26.55c2.76-10.7,14.29-17.5,24.1-20.26A.89.89,0,0,0,345,4.58c-10.41,2.92-22.41,10.19-25.33,21.49a.89.89,0,0,0,1.71.48Z"/><path class="cls-3" d="M353.79,4.51a2.58,2.58,0,1,1-2.57-2.57A2.57,2.57,0,0,1,353.79,4.51Z"/><polygon class="cls-17" points="424.6 29.81 413.1 44.7 411.84 36.74 424.6 29.81"/><polygon class="cls-17" points="424.6 29.81 406.17 32.48 411.47 36.33 424.6 29.81"/><polygon class="cls-14" points="408.51 34.38 405.82 44.2 424.6 29.81 408.51 34.38"/><path class="cls-17" d="M399.77,149.4a11.94,11.94,0,0,0,1.12-1.33l.48.36a14.2,14.2,0,0,1-1.17,1.38Zm2.09-2.78c.28-.49.55-1,.79-1.56l.54.25a17.36,17.36,0,0,1-.82,1.61Zm1.92-4.87.57.14a17.47,17.47,0,0,1-.5,1.73l-.56-.19C403.47,142.9,403.63,142.33,403.78,141.75Zm.57-3.46.59.05c-.06.61-.13,1.21-.23,1.79l-.58-.1C404.22,139.47,404.3,138.88,404.35,138.29Zm.12-3.53h.59c0,.6,0,1.21,0,1.8l-.6,0C404.48,136,404.48,135.36,404.47,134.76Zm-.19-2.87c0-.21,0-.43-.08-.64l.59-.07c0,.21,0,.43.08.65s.07.75.1,1.13l-.59,0C404.35,132.63,404.32,132.26,404.28,131.89Zm-.66-4.13.58-.12c.12.59.23,1.17.33,1.76l-.58.1Q403.8,128.63,403.62,127.76Zm-.86-3.42.57-.17c.17.57.33,1.15.47,1.73l-.57.14C403.08,125.47,402.93,124.9,402.76,124.34ZM401.63,121l.55-.21c.22.55.42,1.12.61,1.68l-.56.19C402,122.09,401.84,121.54,401.63,121Zm-1-2.38c-.13-.29-.26-.58-.4-.87l.54-.25c.14.29.27.58.4.87s.23.51.34.76l-.55.23C400.86,119.1,400.75,118.86,400.63,118.61Zm-2-4,.51-.29c.3.52.58,1,.86,1.57l-.52.28C399.16,115.64,398.88,115.12,398.59,114.61Zm-1.84-3,.5-.32c.32.5.64,1,.95,1.52l-.51.31C397.38,112.58,397.07,112.08,396.75,111.58Zm-2-2.94.49-.34,1,1.47-.49.33C395.45,109.61,395.11,109.13,394.77,108.64Zm-2.07-2.88.48-.35,1.05,1.44-.48.34Zm-2.13-2.85.48-.36,1.07,1.43-.48.35Zm-2.13-2.85.48-.35c.35.47.7,1,1.06,1.42l-.48.36Zm-2.1-2.88.48-.34,1,1.44-.48.35Zm-1.43-2.05c-.2-.3-.4-.59-.59-.89l.49-.33.59.89.4.58-.48.34Zm-2.49-3.91.5-.31c.31.51.62,1,.93,1.51l-.5.32C383,92.24,382.72,91.73,382.42,91.22Zm-1.75-3.12.53-.28q.41.78.84,1.56l-.52.29C381.23,89.15,381,88.62,380.67,88.1Zm-1.54-3.23.54-.24c.24.54.48,1.08.74,1.61l-.53.25Q379.49,85.7,379.13,84.87Zm-1.3-3.34.56-.19c.19.56.4,1.11.61,1.66l-.55.21C378.23,82.66,378,82.09,377.83,81.53Zm-1-3.45.58-.13c.12.55.27,1.12.44,1.71l-.57.16C377.12,79.23,377,78.64,376.84,78.08Zm-.53-3.56.59,0c0,.56.1,1.15.19,1.74l-.59.09C376.41,75.7,376.34,75.1,376.31,74.52Zm.08-3c0-.22.06-.44.1-.66l.58.09c0,.22-.07.43-.09.64a10,10,0,0,0-.09,1.1l-.6,0C376.31,72.32,376.34,71.94,376.39,71.57Zm1.08-4.14.55.22a16.05,16.05,0,0,0-.56,1.65l-.57-.16C377.05,68.57,377.25,68,377.47,67.43Zm.73-1.65c.26-.51.54-1,.85-1.58l.52.29c-.31.53-.59,1.05-.84,1.55ZM380,62.67l.36-.54c.21-.32.43-.63.65-.94l.49.34-.65.93-.35.53Zm2.09-2.91c.37-.48.74-.94,1.13-1.39l.45.38c-.38.45-.75.91-1.12,1.37ZM384.4,57c.4-.44.82-.87,1.24-1.29l.42.42c-.42.41-.83.84-1.23,1.27Zm2.54-2.53c.44-.41.88-.8,1.34-1.19l.38.46c-.45.38-.89.77-1.32,1.16Zm2.73-2.32,1.43-1.07.35.48L390,52.65Zm2.91-2.08c.5-.33,1-.65,1.51-1l.31.51c-.51.3-1,.62-1.5.94Zm3.06-1.85c.53-.29,1.06-.56,1.59-.83l.27.53c-.53.26-1.05.54-1.57.82Zm3.21-1.59c.55-.25,1.1-.48,1.65-.7l.22.55c-.54.22-1.09.45-1.62.69Zm3.33-1.32c.57-.2,1.13-.39,1.71-.56l.17.57q-.85.26-1.68.54Z"/><path class="cls-20" d="M434.62,79.85a9.7,9.7,0,1,1-9.7-9.69A9.7,9.7,0,0,1,434.62,79.85Z"/><path class="cls-21" d="M413.86,94a4.19,4.19,0,1,1-4.19-4.19A4.19,4.19,0,0,1,413.86,94Z"/><path class="cls-14" d="M304.42,49.52A10.53,10.53,0,1,1,293.89,39,10.53,10.53,0,0,1,304.42,49.52Z"/><path class="cls-17" d="M320.52,111.24a5.44,5.44,0,1,1-5.44-5.44A5.43,5.43,0,0,1,320.52,111.24Z"/><path class="cls-17" d="M383.16,109.52a2.11,2.11,0,1,1,0-3A2.11,2.11,0,0,1,383.16,109.52Z"/><path class="cls-22" d="M405.78,162a5.44,5.44,0,1,1-5.44-5.44A5.43,5.43,0,0,1,405.78,162Z"/><path class="cls-21" d="M312.84,77.9a3.2,3.2,0,1,1-3.2-3.2A3.2,3.2,0,0,1,312.84,77.9Z"/><path class="cls-23" d="M393.63,151.47a18.24,18.24,0,0,0,.25-4.95,12,12,0,0,0-.34-2.79c-.33.53-.69,1.06-1.07,1.57-.88,1.22-2.94,0-2-1.19a16.5,16.5,0,0,0,2.74-5,15.79,15.79,0,0,0,.41-5.69,24.62,24.62,0,0,0-3.33-11.1,19.76,19.76,0,0,0-8.35-7.14,9.52,9.52,0,0,0-5.11-.69c-1.26.17-3,.41-3.91,1.36a1.12,1.12,0,0,1-.54.33,1,1,0,0,1-1.4-.49,11,11,0,0,0-3.88-4.4,16.4,16.4,0,0,0-4.83-2.73c-3.33-.91-7.17-.51-10.56-.07s-7.19,1.35-9.93,3.58c-.42.35-.9.74-1.4,1.18a1.11,1.11,0,0,1-.52.48c-1.71,1.6-3.35,3.66-2.93,5.78.29,1.5-2,2.13-2.28.63a7.5,7.5,0,0,1,1.7-6,25.73,25.73,0,0,0-12.58,5.49C319.88,123,317.4,128,319.8,133c.67,1.37-1.37,2.57-2,1.2a12.31,12.31,0,0,1-1.17-4.1,10.54,10.54,0,0,0-3.61,7,17.55,17.55,0,0,0,1.62,10.3,12.58,12.58,0,0,0,5.67,5.66c2.23,1,5.69,1.61,8.05.5-2.67-2.71-3.5-6.74-3.17-10.51a14.83,14.83,0,0,1,6.43-11.48c.75-2.15,2.27-7.38-.65-7.89-1.5-.26-.86-2.54.63-2.28,3.84.66,3.72,5.12,2.93,8.57,3.29-1.51,7.44-2.48,10.38-.48,1.25.85.07,2.91-1.2,2-1.62-1.1-3.75-.81-5.55-.31a17.75,17.75,0,0,0-5,2.19,12.33,12.33,0,0,0-5.58,9.64c-.22,3.19.2,7.05,2.85,9.22s7.22,2.15,9.52-.58c1-1.17,2.65.51,1.67,1.67-2.35,2.81-6.8,3.54-10.23,2.21a4.64,4.64,0,0,0,1.08,1.74,12.67,12.67,0,0,0,3.09,1.94,10.73,10.73,0,0,0,7.76.8,9.33,9.33,0,0,0,6.76-8.68,5,5,0,0,1-3.61-2.74c-.61-1.39,1.43-2.59,2.05-1.2.74,1.67,2.57,1.86,4.22,1.93a9.78,9.78,0,0,0,5.76-1.55l.4-.34c4.39-3.43,10.72-4.13,16.05-3.06,5,1,10.55,4.21,11.23,9.8a9.1,9.1,0,0,1,0,2.5,7.45,7.45,0,0,0,4.27-.81A7.09,7.09,0,0,0,393.63,151.47Zm-29.82-23c3.2-2.1,4.65-5,5.67-8.59a1.18,1.18,0,0,1,2.28.63c-1.17,4.13-3,7.67-6.76,10a23.45,23.45,0,0,1-12.37,3.17,1.19,1.19,0,0,1,0-2.37C356.5,131.27,360.52,130.6,363.81,128.44Zm-18.95-10.33c-.31-1.49,2-2.12,2.28-.63a5.61,5.61,0,0,0,4.87,4.85c2.49.38,6,0,6.3-3.11.16-1.5,2.53-1.52,2.37,0-.45,4.32-4.43,6-8.38,5.52S345.68,122,344.86,118.11Zm28.48,23.28a26.93,26.93,0,0,0-3.57-1.58,15.93,15.93,0,0,0-3.63-.54,26.87,26.87,0,0,0-6.88.36,32.62,32.62,0,0,0-5.33,1.76c-1.12.45-2.92,1.05-3.43,2.26-.6,1.39-2.64.19-2.05-1.2.71-1.64,2.79-2.49,4.32-3.12a31.1,31.1,0,0,1,5.86-2A28.91,28.91,0,0,1,367,137a14.06,14.06,0,0,1,4.15.84c1.13.47,2.23,1,3.34,1.53C375.92,140,374.72,142,373.34,141.39Z"/><path class="cls-23" d="M381.24,149.91c-4.09-3.69-10.75-4.35-15.9-3a13.74,13.74,0,0,0-5.36,2.58,1.12,1.12,0,0,1-.32.29,6.27,6.27,0,0,0-1.22,1.63,4.31,4.31,0,0,0-.11,4.24,6.43,6.43,0,0,0,1.76,1.89l.12,0c.21.09.43.18.65.25,2.88.81,5.77-.62,8.67-.5a8.32,8.32,0,0,1,4.28,1.29,11.29,11.29,0,0,0,3.19,1.86c2.31.53,5.87-.78,6.53-3.26A7.2,7.2,0,0,0,381.24,149.91Z"/><path class="cls-23" d="M367.17,166.13c-3.4-.65-6.48-2.63-7.46-6.15a6.92,6.92,0,0,1-4.12-4.78,7.78,7.78,0,0,1,.33-3.8,12.41,12.41,0,0,1-3.56.3,12.76,12.76,0,0,1-.83,3.71c1,1,1.1,2.54,1.89,3.74a10.9,10.9,0,0,0,4.46,3.92,10.4,10.4,0,0,1,3.78,2.73,17.56,17.56,0,0,1,1.66,3c.72,1.52,1.86,4.7,4.07,3.78S367.94,168,367.17,166.13Z"/><path class="cls-23" d="M372.24,160.47a6.74,6.74,0,0,0-4.1-.69,44.47,44.47,0,0,1-5.7.67,7,7,0,0,0,5.06,3.36c2.24.41,5.45-.4,4.74-3.33Z"/><path class="cls-23" d="M354.4,163.69a10.16,10.16,0,0,1-1.91-1.81,11.49,11.49,0,0,1-1.71-2.64c-.15-.36-.27-1-.47-1.53a11.47,11.47,0,0,1-6.75,4.71,13.53,13.53,0,0,1-8.22-.68,8.19,8.19,0,0,0,3.25,3.89,13.28,13.28,0,0,0,6.73,1.57C348.4,167.21,352.85,166.79,354.4,163.69Z"/></g></g></g></svg>