<svg xmlns="http://www.w3.org/2000/svg" xmlns:xlink="http://www.w3.org/1999/xlink" viewBox="0 0 468.56 334.34"><defs><style>.cls-1,.cls-13{fill:none;}.cls-2{isolation:isolate;}.cls-3{fill:#b0b0ff;opacity:0.3;}.cls-4{fill:#0059d6;}.cls-5{fill:#0cba83;}.cls-6{fill:#c7d0d8;}.cls-7{fill:#b3b3b3;opacity:0.4;}.cls-29,.cls-38,.cls-7,.cls-9{mix-blend-mode:multiply;}.cls-8,.cls-9{fill:#294f98;}.cls-10,.cls-32,.cls-33{fill:#fff;}.cls-11{fill:#91c3ff;}.cls-12{fill:#1f264c;}.cls-13{stroke:#fff;stroke-miterlimit:10;stroke-width:0.25px;}.cls-14{fill:#33376f;}.cls-15{fill:#ffb049;}.cls-16{fill:#00c9ce;}.cls-17{fill:#ff6672;}.cls-18{fill:#a7eef7;}.cls-19{fill:#ffe159;}.cls-20{clip-path:url(#clip-path);}.cls-21{fill:#fd4964;}.cls-22{opacity:0.03;}.cls-23{fill:#5785c3;}.cls-24{fill:#4c3edb;}.cls-25{fill:#9a90fc;}.cls-26{fill:#ffcc4d;}.cls-27{fill:#ed1e79;}.cls-28{fill:#fdd305;}.cls-29{opacity:0.55;}.cls-30{fill:#ffc043;}.cls-31{fill:#f39200;}.cls-31,.cls-32,.cls-33{fill-rule:evenodd;}.cls-32{opacity:0.8;}.cls-34{fill:#28364c;}.cls-35{fill:#475577;}.cls-36{fill:#ffd235;}.cls-37{fill:#e43438;}.cls-38{fill:#a5acba;}.cls-39{fill:#dce6f2;}.cls-40{fill:#becbeb;}.cls-41{fill:#e4ebfd;}</style><clipPath id="clip-path"><rect class="cls-1" x="228.33" y="106.15" width="68.58" height="88.3"/></clipPath></defs><title>Recurso 4</title><g class="cls-2"><g id="Capa_2" data-name="Capa 2"><g id="Layer_1" data-name="Layer 1"><path class="cls-3" d="M159,334.34H13.36a84.72,84.72,0,0,1-7.65-34.83c.06-51,47.81-89.8,94.1-100.55,30.28-7,62.86-3.15,91.83-15.37,16.54-7,58.13-71.28,64.52-92.36,18.33-52,72.57-88.47,126.87-65,31.19,13.49,53.44,44.45,58.93,78s-5,68.81-25.71,95.73a141,141,0,0,1-67.82,47.73c-43.35,14-93.23,6.89-132.51,30C192.71,291.33,176.41,313.8,159,334.34Z"/><path class="cls-4" d="M141.36,22.22V18.28l-2.53-.51h0c-.07-.18-.15-.36-.23-.54h0L140,15.08l-2.79-2.79-2.16,1.43h0a5.31,5.31,0,0,0-.55-.23h0L134,11H130.1l-.51,2.54h0a5.31,5.31,0,0,0-.55.23h0l-2.16-1.43-2.78,2.79,1.43,2.15h0c-.08.18-.16.36-.23.54h0l-2.53.51v3.94l2.53.52h0c.07.18.15.36.23.54h0l-1.43,2.15,2.78,2.79,2.16-1.43h0a5.31,5.31,0,0,0,.55.23h0l.51,2.54H134l.51-2.54h0a5.31,5.31,0,0,0,.55-.23h0l2.16,1.43L140,25.43l-1.44-2.15h0c.08-.18.16-.36.23-.54h0Zm-9.29,1.72a3.69,3.69,0,1,1,3.68-3.69A3.69,3.69,0,0,1,132.07,23.94Z"/><path class="cls-5" d="M117.88,31.48V23.8l-4.94-1h0c-.14-.36-.29-.71-.45-1.06h0l2.79-4.2-5.43-5.43-4.2,2.79h0a10.07,10.07,0,0,0-1.07-.45h0l-1-4.94H95.93l-1,4.94h0a10.86,10.86,0,0,0-1.06.45h0l-4.2-2.79-5.43,5.43L87,21.75h0c-.16.35-.31.7-.44,1.06h0l-4.94,1v7.68l4.94,1h0c.13.36.28.71.44,1.06h0l-2.79,4.2,5.43,5.43,4.2-2.79h0c.35.16.7.31,1.06.45h0l1,4.94h7.68l1-4.94h0c.37-.14.72-.29,1.07-.45h0l4.2,2.79,5.43-5.43-2.79-4.2h0c.16-.35.31-.7.45-1.06h0ZM99.77,34.82a7.18,7.18,0,1,1,7.17-7.18A7.18,7.18,0,0,1,99.77,34.82Z"/><path class="cls-6" d="M86.6,218.5H14.24A14.24,14.24,0,0,1,13,190.08,24.5,24.5,0,0,1,37,169.69a24.21,24.21,0,0,1,19.62,9.89,20.38,20.38,0,0,1,28.1,12.26,12.92,12.92,0,0,1,1.86-.13,13.4,13.4,0,1,1,0,26.79ZM14.24,194.8a9.47,9.47,0,1,0,0,18.93H86.6A8.63,8.63,0,1,0,83.78,197a2.35,2.35,0,0,1-2-.19,2.4,2.4,0,0,1-1.15-1.62,15.62,15.62,0,0,0-23.54-10.41,2.45,2.45,0,0,1-1.81.29,2.35,2.35,0,0,1-1.48-1.09,19.63,19.63,0,0,0-36.38,8.69,2.38,2.38,0,0,1-2.55,2.2h-.11Z"/><path class="cls-6" d="M347.68,35.41A13.4,13.4,0,0,1,361.07,22a12.92,12.92,0,0,1,1.86.13A20.38,20.38,0,0,1,391,9.89,24.21,24.21,0,0,1,410.65,0a24.5,24.5,0,0,1,24.06,20.39,14.23,14.23,0,0,1-1.28,28.41H361.07A13.4,13.4,0,0,1,347.68,35.41Zm85.2-10.28h-.11a2.38,2.38,0,0,1-2.55-2.2A19.7,19.7,0,0,0,410.65,4.77a19.5,19.5,0,0,0-16.8,9.48,2.41,2.41,0,0,1-3.3.8A15.6,15.6,0,0,0,367,25.46a2.4,2.4,0,0,1-1.15,1.62,2.35,2.35,0,0,1-2,.19A8.62,8.62,0,1,0,361.07,44h72.36a9.47,9.47,0,1,0,0-18.93Z"/><path class="cls-6" d="M392.42,228.49a10.22,10.22,0,0,1,10.2-10.2,11.3,11.3,0,0,1,1.42.1,15.53,15.53,0,0,1,21.39-9.34,18.45,18.45,0,0,1,14.94-7.52,18.66,18.66,0,0,1,18.33,15.52,10.84,10.84,0,0,1-1,21.64h-55.1A10.22,10.22,0,0,1,392.42,228.49Zm64.88-7.83h-.09a1.81,1.81,0,0,1-1.94-1.68,15,15,0,0,0-14.9-13.83,14.84,14.84,0,0,0-12.79,7.22,1.82,1.82,0,0,1-1.13.82,1.76,1.76,0,0,1-1.38-.22,11.91,11.91,0,0,0-17.93,7.93,1.83,1.83,0,0,1-.87,1.24,1.86,1.86,0,0,1-1.51.14,6.56,6.56,0,1,0-2.14,12.76h55.1a7.21,7.21,0,1,0,0-14.41Z"/><path class="cls-7" d="M449.26,288.82c0-4.44-93-8-207.73-8s-207.72,3.6-207.72,8,93,8.05,207.72,8.05S449.26,293.27,449.26,288.82Z"/><path class="cls-8" d="M268.87,240.78l-27.34-2v-.15l-1,.08-1-.08v.15l-27.33,2s13.13,27.19-5.54,40h67.81C255.74,268,268.87,240.78,268.87,240.78Z"/><path class="cls-9" d="M264.79,254.76a52.93,52.93,0,0,1,4.08-14l-27.34-2v-.15l-1,.08-1-.08v.15l-27.33,2a52.71,52.71,0,0,1,4.07,14Z"/><rect class="cls-10" x="81.62" y="52.92" width="319.82" height="191.64" rx="3.78"/><path class="cls-11" d="M85.41,53.34H397.66A3.37,3.37,0,0,1,401,56.7V240.78a3.36,3.36,0,0,1-3.36,3.36H85.41A3.36,3.36,0,0,1,82,240.78V56.7a3.37,3.37,0,0,1,3.37-3.37Z"/><rect class="cls-12" x="85.39" y="56.57" width="312.28" height="170.94"/><rect class="cls-13" x="92.49" y="63.54" width="298.08" height="156.98"/><rect class="cls-10" x="91.33" y="62.38" width="2.33" height="2.33"/><rect class="cls-10" x="91.33" y="219.36" width="2.33" height="2.33"/><rect class="cls-10" x="389.41" y="62.38" width="2.33" height="2.33"/><rect class="cls-10" x="389.41" y="219.36" width="2.33" height="2.33"/><path class="cls-14" d="M379.8,73.33H103.26a4,4,0,0,0-4,4h0a4,4,0,0,0,4,4H379.8a4,4,0,0,0,3.95-4h0A4,4,0,0,0,379.8,73.33Z"/><path class="cls-15" d="M106.39,69.53a1.57,1.57,0,1,0-1.56,1.56A1.56,1.56,0,0,0,106.39,69.53Z"/><path class="cls-16" d="M113.08,69.53a1.57,1.57,0,1,0-1.57,1.56A1.57,1.57,0,0,0,113.08,69.53Z"/><path class="cls-17" d="M119.76,69.53a1.57,1.57,0,1,0-1.57,1.56A1.57,1.57,0,0,0,119.76,69.53Z"/><rect class="cls-10" x="226.83" y="104.71" width="71.59" height="91.17"/><rect class="cls-18" x="228.33" y="106.15" width="68.58" height="88.3"/><path class="cls-19" d="M277.58,129.09a12,12,0,1,0-12,12A12,12,0,0,0,277.58,129.09Z"/><g class="cls-20"><polygon class="cls-21" points="242.03 142.8 216.42 181.61 267.64 181.61 242.03 142.8"/><polygon class="cls-17" points="242.03 142.8 228.31 181.61 267.64 181.61 242.03 142.8"/><polygon class="cls-21" points="264.11 149.49 242.92 181.61 285.31 181.61 264.11 149.49"/><polygon class="cls-17" points="264.11 149.49 252.77 181.61 285.31 181.61 264.11 149.49"/><polygon class="cls-21" points="289.5 153.96 271.25 181.61 307.74 181.61 289.5 153.96"/><polygon class="cls-17" points="289.5 153.96 279.73 181.61 307.74 181.61 289.5 153.96"/><path class="cls-10" d="M216.55,139.75A2.75,2.75,0,0,1,219.3,137a2.34,2.34,0,0,1,.38,0,4.21,4.21,0,0,1,5.78-2.53,5,5,0,0,1,9,2.17,2.93,2.93,0,0,1-.26,5.84H219.3A2.76,2.76,0,0,1,216.55,139.75Z"/><path class="cls-10" d="M286.63,120.3a2.75,2.75,0,0,1,2.75-2.75,2.55,2.55,0,0,1,.39,0,4.18,4.18,0,0,1,5.77-2.52,5,5,0,0,1,4-2,5,5,0,0,1,4.95,4.19,2.93,2.93,0,0,1-.27,5.84H289.38A2.75,2.75,0,0,1,286.63,120.3Z"/><path class="cls-10" d="M249.65,142.13a2.27,2.27,0,0,1,2.27-2.28,1.63,1.63,0,0,1,.31,0,3.47,3.47,0,0,1,3.3-2.41,3.54,3.54,0,0,1,1.47.32,4.14,4.14,0,0,1,7.41,1.79,2.41,2.41,0,0,1-.21,4.82H251.92A2.27,2.27,0,0,1,249.65,142.13Z"/><path class="cls-10" d="M285.17,137.19h-6.84a1.35,1.35,0,0,1-.12-2.69,2.32,2.32,0,0,1,2.28-1.92,2.27,2.27,0,0,1,1.85.93,1.92,1.92,0,0,1,.82-.18,2,2,0,0,1,1.84,1.34h.17a1.27,1.27,0,1,1,0,2.53Z"/><path class="cls-10" d="M247.27,122.66h-6.84a1.34,1.34,0,0,1-1.34-1.34,1.36,1.36,0,0,1,1.22-1.35,2.33,2.33,0,0,1,2.28-1.92,2.27,2.27,0,0,1,1.85.93,2,2,0,0,1,.82-.18,1.93,1.93,0,0,1,1.84,1.34h.17a1.27,1.27,0,1,1,0,2.53Z"/></g><rect class="cls-16" x="228.33" y="181.61" width="68.58" height="12.84"/><rect class="cls-13" x="224.56" y="102.46" width="76.12" height="95.68"/><rect class="cls-10" x="223.4" y="101.29" width="2.33" height="2.33"/><rect class="cls-10" x="223.4" y="196.97" width="2.33" height="2.33"/><rect class="cls-10" x="299.52" y="101.29" width="2.33" height="2.33"/><rect class="cls-10" x="299.52" y="196.97" width="2.33" height="2.33"/><rect class="cls-13" x="104.43" y="102.46" width="104.59" height="95.68"/><rect class="cls-10" x="103.26" y="101.29" width="2.33" height="2.33"/><rect class="cls-10" x="103.26" y="196.97" width="2.33" height="2.33"/><rect class="cls-10" x="207.86" y="101.29" width="2.33" height="2.33"/><rect class="cls-10" x="207.86" y="196.97" width="2.33" height="2.33"/><path class="cls-11" d="M151.65,155.32H115.48a2.39,2.39,0,0,0-2.4,2.4h0a2.4,2.4,0,0,0,2.4,2.4h36.17a2.4,2.4,0,0,0,2.4-2.4h0A2.39,2.39,0,0,0,151.65,155.32Z"/><path class="cls-11" d="M178.62,155.32H161.51a2.4,2.4,0,0,0-2.41,2.4h0a2.41,2.41,0,0,0,2.41,2.4h17.11a2.41,2.41,0,0,0,2.4-2.4h0A2.4,2.4,0,0,0,178.62,155.32Z"/><path class="cls-18" d="M159,164.31h-44.9a1.05,1.05,0,0,0-1.06,1.06h0a1.06,1.06,0,0,0,1.06,1.06H159a1.06,1.06,0,0,0,1.06-1.06h0A1.05,1.05,0,0,0,159,164.31Z"/><path class="cls-18" d="M138.41,170H114.14a1.06,1.06,0,0,0-1.06,1.06h0a1.05,1.05,0,0,0,1.06,1.06h24.27a1.06,1.06,0,0,0,1.06-1.06h0A1.07,1.07,0,0,0,138.41,170Z"/><path class="cls-18" d="M171.77,170H142.15a1.07,1.07,0,0,0-1.06,1.06h0a1.06,1.06,0,0,0,1.06,1.06h29.62a1.06,1.06,0,0,0,1.06-1.06h0A1.07,1.07,0,0,0,171.77,170Z"/><path class="cls-18" d="M159,175.6h-44.9a1.05,1.05,0,0,0-1.06,1.06h0a1.06,1.06,0,0,0,1.06,1.06H159a1.06,1.06,0,0,0,1.06-1.06h0A1.05,1.05,0,0,0,159,175.6Z"/><path class="cls-18" d="M183.42,175.6H163.26a1.06,1.06,0,0,0-1.06,1.06h0a1.07,1.07,0,0,0,1.06,1.06h20.16a1.06,1.06,0,0,0,1.06-1.06h0A1.05,1.05,0,0,0,183.42,175.6Z"/><path class="cls-18" d="M135.5,181.24H114.14a1.05,1.05,0,0,0-1.06,1.06h0a1.05,1.05,0,0,0,1.06,1.06H135.5a1.06,1.06,0,0,0,1.06-1.06h0A1.06,1.06,0,0,0,135.5,181.24Z"/><path class="cls-18" d="M151.64,181.24h-12.2a1.05,1.05,0,0,0-1.06,1.06h0a1.05,1.05,0,0,0,1.06,1.06h12.2a1.06,1.06,0,0,0,1.06-1.06h0A1.06,1.06,0,0,0,151.64,181.24Z"/><path class="cls-18" d="M161.58,181.24h-5.83a1.05,1.05,0,0,0-1.06,1.06h0a1.05,1.05,0,0,0,1.06,1.06h5.83a1.05,1.05,0,0,0,1.06-1.06h0A1.05,1.05,0,0,0,161.58,181.24Z"/><path class="cls-18" d="M190.15,164.31H163.69a1.06,1.06,0,0,0-1.06,1.06h0a1.07,1.07,0,0,0,1.06,1.06h26.46a1.06,1.06,0,0,0,1.06-1.06h0A1.05,1.05,0,0,0,190.15,164.31Z"/><path class="cls-11" d="M151.65,117.64H115.48a2.4,2.4,0,0,0-2.4,2.4h0a2.4,2.4,0,0,0,2.4,2.41h36.17a2.4,2.4,0,0,0,2.4-2.41h0A2.4,2.4,0,0,0,151.65,117.64Z"/><path class="cls-11" d="M178.62,117.64H161.51a2.41,2.41,0,0,0-2.41,2.4h0a2.41,2.41,0,0,0,2.41,2.41h17.11A2.41,2.41,0,0,0,181,120h0A2.41,2.41,0,0,0,178.62,117.64Z"/><path class="cls-18" d="M159,126.63h-44.9a1.06,1.06,0,0,0-1.06,1.06h0a1.05,1.05,0,0,0,1.06,1.06H159a1.05,1.05,0,0,0,1.06-1.06h0A1.06,1.06,0,0,0,159,126.63Z"/><path class="cls-18" d="M138.41,132.28H114.14a1.05,1.05,0,0,0-1.06,1.06h0a1.06,1.06,0,0,0,1.06,1.06h24.27a1.07,1.07,0,0,0,1.06-1.06h0A1.06,1.06,0,0,0,138.41,132.28Z"/><path class="cls-18" d="M171.77,132.28H142.15a1.06,1.06,0,0,0-1.06,1.06h0a1.07,1.07,0,0,0,1.06,1.06h29.62a1.07,1.07,0,0,0,1.06-1.06h0A1.06,1.06,0,0,0,171.77,132.28Z"/><path class="cls-18" d="M159,137.92h-44.9a1.06,1.06,0,0,0-1.06,1.06h0a1.05,1.05,0,0,0,1.06,1.06H159A1.05,1.05,0,0,0,160.1,139h0A1.06,1.06,0,0,0,159,137.92Z"/><path class="cls-18" d="M183.42,137.92H163.26A1.07,1.07,0,0,0,162.2,139h0a1.06,1.06,0,0,0,1.06,1.06h20.16a1.05,1.05,0,0,0,1.06-1.06h0A1.06,1.06,0,0,0,183.42,137.92Z"/><path class="cls-18" d="M135.5,143.57H114.14a1.05,1.05,0,0,0-1.06,1.06h0a1.06,1.06,0,0,0,1.06,1.06H135.5a1.07,1.07,0,0,0,1.06-1.06h0A1.06,1.06,0,0,0,135.5,143.57Z"/><path class="cls-18" d="M151.64,143.57h-12.2a1.05,1.05,0,0,0-1.06,1.06h0a1.06,1.06,0,0,0,1.06,1.06h12.2a1.07,1.07,0,0,0,1.06-1.06h0A1.06,1.06,0,0,0,151.64,143.57Z"/><path class="cls-18" d="M161.58,143.57h-5.83a1.05,1.05,0,0,0-1.06,1.06h0a1.06,1.06,0,0,0,1.06,1.06h5.83a1.06,1.06,0,0,0,1.06-1.06h0A1.05,1.05,0,0,0,161.58,143.57Z"/><path class="cls-18" d="M190.15,126.63H163.69a1.07,1.07,0,0,0-1.06,1.06h0a1.06,1.06,0,0,0,1.06,1.06h26.46a1.05,1.05,0,0,0,1.06-1.06h0A1.06,1.06,0,0,0,190.15,126.63Z"/><g class="cls-22"><path class="cls-10" d="M397.66,53.34H390L199.16,244.14H349.78L401,192.9V56.7A3.35,3.35,0,0,0,397.66,53.34Z"/><polygon class="cls-10" points="340.92 53.34 150.12 244.14 177.81 244.14 368.61 53.34 340.92 53.34"/><polygon class="cls-10" points="168.95 53.34 82.04 140.24 82.04 238.98 87.2 244.14 128.76 244.14 319.57 53.34 168.95 53.34"/><polygon class="cls-10" points="119.9 53.34 82.04 91.2 82.04 118.89 147.59 53.34 119.9 53.34"/></g><path class="cls-10" d="M82,240.78a3.37,3.37,0,0,0,3.37,3.36H397.66a3.36,3.36,0,0,0,3.36-3.36V230.35H82Z"/><path class="cls-23" d="M298.44,282.79c0,4.62-3.23,8.36-7.21,8.36H184.13c-4,0-7.21-3.74-7.21-8.36h0c0-4.62,3.23-8.37,7.21-8.37h107.1c4,0,7.21,3.75,7.21,8.37Z"/><path class="cls-24" d="M376.66,196.27H309.25a2.29,2.29,0,0,1-2.34-2.23v-87.1a2.29,2.29,0,0,1,2.34-2.23h67.41a2.29,2.29,0,0,1,2.34,2.23V194A2.29,2.29,0,0,1,376.66,196.27Z"/><rect class="cls-25" x="319.44" y="114.66" width="47.02" height="6.04"/><path class="cls-26" d="M352.8,186.55H333.11a3.47,3.47,0,0,1-3.56-3.38h0a3.48,3.48,0,0,1,3.56-3.38H352.8a3.47,3.47,0,0,1,3.55,3.38h0A3.46,3.46,0,0,1,352.8,186.55Z"/><path class="cls-25" d="M344.22,132.34H325.1a1.35,1.35,0,0,1-1.38-1.31v-.23a1.35,1.35,0,0,1,1.38-1.31h19.12a1.34,1.34,0,0,1,1.38,1.31V131A1.34,1.34,0,0,1,344.22,132.34Z"/><path class="cls-25" d="M369,139.37H325.1a1.35,1.35,0,0,1-1.38-1.32v-.22a1.35,1.35,0,0,1,1.38-1.32H369a1.35,1.35,0,0,1,1.38,1.32v.22A1.35,1.35,0,0,1,369,139.37Z"/><path class="cls-25" d="M369,146.39H325.1a1.35,1.35,0,0,1-1.38-1.31v-.23a1.36,1.36,0,0,1,1.38-1.32H369a1.36,1.36,0,0,1,1.38,1.32v.23A1.35,1.35,0,0,1,369,146.39Z"/><path class="cls-25" d="M316.12,130.91a1.5,1.5,0,1,1-1.5-1.42A1.47,1.47,0,0,1,316.12,130.91Z"/><path class="cls-25" d="M344.22,155.67H325.1a1.34,1.34,0,0,1-1.38-1.31v-.23a1.35,1.35,0,0,1,1.38-1.31h19.12a1.34,1.34,0,0,1,1.38,1.31v.23A1.34,1.34,0,0,1,344.22,155.67Z"/><path class="cls-25" d="M369,162.7H325.1a1.35,1.35,0,0,1-1.38-1.32v-.22a1.35,1.35,0,0,1,1.38-1.32H369a1.35,1.35,0,0,1,1.38,1.32v.22A1.35,1.35,0,0,1,369,162.7Z"/><path class="cls-25" d="M369,169.73H325.1a1.36,1.36,0,0,1-1.38-1.32v-.23a1.35,1.35,0,0,1,1.38-1.31H369a1.35,1.35,0,0,1,1.38,1.31v.23A1.36,1.36,0,0,1,369,169.73Z"/><path class="cls-25" d="M316.12,154.25a1.5,1.5,0,1,1-1.5-1.43A1.46,1.46,0,0,1,316.12,154.25Z"/><rect class="cls-11" x="148.46" y="28.25" width="85.42" height="59.6"/><rect class="cls-12" x="149.14" y="28.97" width="84.06" height="58.16"/><rect class="cls-14" x="149.14" y="83.23" width="84.06" height="3.89"/><rect class="cls-10" x="149.14" y="82.54" width="84.06" height="0.69"/><rect class="cls-17" x="149.14" y="82.54" width="62.53" height="0.69"/><path class="cls-17" d="M212.39,82.86a.82.82,0,0,0-.81-.82.82.82,0,0,0-.82.82.82.82,0,0,0,.82.81A.81.81,0,0,0,212.39,82.86Z"/><path class="cls-18" d="M202.27,57.63a12.43,12.43,0,1,1-12.43-12.44A12.44,12.44,0,0,1,202.27,57.63Z"/><polygon class="cls-27" points="187.14 49.96 187.14 65.29 196.92 57.63 187.14 49.96"/><path class="cls-28" d="M272,108.34q-7,14.35-14,28.71a.84.84,0,0,1-1.5-.74q7-14.34,14-28.7a.83.83,0,0,1,1.5.73Z"/><path class="cls-28" d="M319,88.38a34.48,34.48,0,1,0-64.93-9.18h0c1.16,8.82,9,22,6.76,26.47l-2.52,5.15a2.08,2.08,0,0,0,.95,2.77l5,2.44,4.57,2.24,5,2.43a2.07,2.07,0,0,0,2.78-1l2.51-5.14c2.21-4.51,17.38-6.41,25.06-10.91h0A34.24,34.24,0,0,0,319,88.38Z"/><g class="cls-29"><path class="cls-30" d="M256.25,59.92c-4.51,13.53-.69,31.7,18.26,41s35.55.35,43.56-10.71a34.3,34.3,0,0,1-13.91,13.52h0c-7.68,4.5-22.85,6.4-25.06,10.91l-2.51,5.14a2.07,2.07,0,0,1-2.78,1l-5-2.43L264.26,116l-5-2.44a2.08,2.08,0,0,1-.95-2.77l2.52-5.15c2.21-4.5-5.6-17.65-6.76-26.47h0A34.32,34.32,0,0,1,256.25,59.92Z"/></g><path class="cls-31" d="M287.49,95.21a3,3,0,0,0,3.12-.42,15.39,15.39,0,0,1,4-2c1.26-.41,2.06.45,1.74,1.75a2.86,2.86,0,0,1-1.08,1.61c-1.17.78-2.39,1.61-3.94,1.3a3,3,0,0,0-2.81,1,87.92,87.92,0,0,0-12.95,15.78,18.84,18.84,0,0,1-1.51,2.22c-.21.25-.75.22-1.14.31,0-.4-.16-.89,0-1.19q1.26-2.11,2.66-4.16a99.51,99.51,0,0,1,12-14.21c-3.33-1.52-5.83-3.75-6.87-7.46a6.76,6.76,0,0,1-5.18.49c-1.29-.37-2.54-.87-3.81-1.33-.67-.24-1.32-.52-2-.81-.69,2.45-1.26,4.62-1.93,6.75q-2,6.21-4,12.36c-.52,1.56-1.17,3.08-1.81,4.6-.32.75-.7,1.52-2.05,1,.27-.81.47-1.57.78-2.29a154.88,154.88,0,0,0,7.43-22.38,3,3,0,0,0-.37-2.55,9.14,9.14,0,0,1-1.46-5.12c0-1.52.51-2.14,1.81-2.39a2.23,2.23,0,0,1,2.6,1.63,9.41,9.41,0,0,1,.07,3.09,23.69,23.69,0,0,1-.63,2.93c2.32,2.14,5,2.77,7.8,3.06,1.75.18,2.64-.57,2.84-2.35a5.07,5.07,0,0,1,2.05-3.59,2.14,2.14,0,0,1,1.77-.42,2.29,2.29,0,0,1,.83,1.64,2.66,2.66,0,0,1-.55,1.65c-.77,1.09-1.67,2.09-2.71,3.36A8.38,8.38,0,0,0,287.49,95.21ZM268.87,83.69a3.38,3.38,0,0,0-.54-4.46C267.36,81.09,267.89,82.31,268.87,83.69Zm15,.56-.43-.3-1.34,2,.46.31C283,85.59,283.4,84.92,283.84,84.25Zm8.08,11.41a2.43,2.43,0,0,0,2.61-.89c-.07-.14-.14-.3-.22-.45Z"/><path class="cls-32" d="M307.33,81.47a6.47,6.47,0,0,1-1.54-2.74,39.19,39.19,0,0,1-.88-6.29c-.2-3.69-1.32-6.79-4.46-9a28.58,28.58,0,0,1-3.69-3.27,6.61,6.61,0,0,1-1.66-5.94,4.67,4.67,0,0,1,6.52-3.77,19.15,19.15,0,0,1,8.79,6.42A30.12,30.12,0,0,1,315,65.58c1.54,4.88,2.06,9.86.3,13.86C313,84.1,310.1,84.57,307.33,81.47Z"/><path class="cls-33" d="M313.18,91.47a3.61,3.61,0,0,1-4.89,1.7c-1.77-.85-3-3.72-2.33-5.37s2.68-2.34,4.85-1.38C313.26,87.5,314.1,89.3,313.18,91.47Z"/><path class="cls-34" d="M259.05,107.51l19.71,9.65-4.6,9.4a9,9,0,0,1-3.38,3.71h0a9.44,9.44,0,0,1-9.07.44l-2.9-1.42a9.41,9.41,0,0,1-5.22-7.43h0a9,9,0,0,1,.86-5Z"/><path class="cls-35" d="M255.65,114.44l.18.07,21,6.92a1.37,1.37,0,1,0,.86-2.6l-21.05-6.92a1.37,1.37,0,0,0-1,2.53Z"/><path class="cls-35" d="M253.55,118.74l.17.07,21.06,6.92a1.37,1.37,0,1,0,.85-2.6l-21-6.92a1.37,1.37,0,0,0-1,2.53Z"/><path class="cls-35" d="M252.27,123.35l.17.08,20,6.55a1.37,1.37,0,0,0,.85-2.6l-19.95-6.56a1.38,1.38,0,0,0-1.73.88A1.35,1.35,0,0,0,252.27,123.35Z"/><path class="cls-36" d="M246.48,80.07c-1.13-1.2-3.12-1-4.67-1.18-2-.17-4.05-.38-5.68,1a1.56,1.56,0,0,0,.31,2.41c1.53,1.18,3.59.73,5.37.57,1.52-.13,3.6-.11,4.67-1.32A1,1,0,0,0,246.48,80.07Z"/><path class="cls-36" d="M250.13,56.7c-.6-1.6-2-2.56-3.32-3.55-1.73-1.31-3.29-2.4-5.5-2.59-1.33-.11-1.78,1.6-1,2.45a12.62,12.62,0,0,0,4.31,2.72c1.54.74,3.06,1.83,4.81,1.9A.74.74,0,0,0,250.13,56.7Z"/><path class="cls-36" d="M269.58,31.49A12.73,12.73,0,0,0,266,27.83a1.31,1.31,0,0,0-1.91,1.47,12.77,12.77,0,0,0,2.69,4.32c1.05,1.11,2.19,2.58,3.69,3a.9.9,0,0,0,1.14-.87C271.55,34.21,270.42,32.78,269.58,31.49Z"/><path class="cls-36" d="M341.52,80.07c1.13-1.2,3.12-1,4.66-1.18,2-.17,4.06-.38,5.69,1a1.56,1.56,0,0,1-.31,2.41c-1.53,1.18-3.59.73-5.38.57-1.52-.13-3.6-.11-4.66-1.32A1,1,0,0,1,341.52,80.07Z"/><path class="cls-36" d="M337.87,56.7c.6-1.6,2-2.56,3.31-3.55,1.74-1.31,3.29-2.4,5.5-2.59,1.34-.11,1.79,1.6,1,2.45a12.57,12.57,0,0,1-4.32,2.72c-1.53.74-3.05,1.83-4.8,1.9A.74.74,0,0,1,337.87,56.7Z"/><path class="cls-36" d="M318.41,31.49A12.89,12.89,0,0,1,322,27.83a1.31,1.31,0,0,1,1.91,1.47,12.93,12.93,0,0,1-2.69,4.32c-1.05,1.11-2.19,2.58-3.69,3a.9.9,0,0,1-1.14-.87C316.44,34.21,317.57,32.78,318.41,31.49Z"/><path class="cls-36" d="M297.37,17.5a1.6,1.6,0,0,0-2.47.31c-1,1.85,0,4.15.3,6.1.09.58,0,4.2,1.41,3.73s1.6-2.95,1.79-4.31C298.66,21.45,299,18.84,297.37,17.5Z"/><path class="cls-37" d="M345.6,203.56c-16,0-29,8.5-29,19,0,8.24,8,15.25,19.22,17.88v12.67l11.61-11.61c15.15-.62,27.14-8.86,27.14-18.94C374.59,212.06,361.61,203.56,345.6,203.56Zm-12.7,23a4,4,0,1,1,4-4A4,4,0,0,1,332.9,226.56Zm12.7,0a4,4,0,1,1,4-4A4,4,0,0,1,345.6,226.56Zm12.71,0a4,4,0,1,1,4-4A4,4,0,0,1,358.31,226.56Z"/><path class="cls-38" d="M371.3,71.62c.71,6.85,6.14,12.17,12.73,12.17h66.26c6.59,0,12-5.32,12.73-12.17Z"/><rect class="cls-39" x="366.77" y="52.13" width="98.17" height="27.4" rx="13.7"/><path class="cls-40" d="M450.11,74.55H381.33a8.72,8.72,0,0,1-8.73-8.72h0a8.73,8.73,0,0,1,8.73-8.73h68.78a8.73,8.73,0,0,1,8.73,8.73h0A8.72,8.72,0,0,1,450.11,74.55Z"/><path class="cls-41" d="M388.93,69.23l-3-2.75a3.84,3.84,0,0,0,.47-1.84,3.94,3.94,0,1,0-1.8,3.28l3,2.74a1,1,0,0,0,1.64-.76A.94.94,0,0,0,388.93,69.23Zm-4.12-4.59a2.3,2.3,0,1,1-2.3-2.3A2.3,2.3,0,0,1,384.81,64.64Z"/></g></g></g></svg>