<svg xmlns="http://www.w3.org/2000/svg" xmlns:xlink="http://www.w3.org/1999/xlink" viewBox="0 0 357.85 309.19"><defs><style>.cls-1,.cls-13,.cls-23,.cls-24,.cls-25,.cls-36,.cls-37,.cls-38,.cls-39,.cls-40,.cls-41,.cls-42,.cls-43,.cls-44,.cls-48{fill:none;}.cls-2{isolation:isolate;}.cls-3{opacity:0.8;fill:url(#Degradado_sin_nombre_4);}.cls-4{opacity:0.2;}.cls-5{fill:#294f97;}.cls-6{fill:#5785c3;}.cls-7{fill:#003948;}.cls-8,.cls-9{opacity:0.57;}.cls-8{fill:url(#Degradado_sin_nombre_37);}.cls-9{fill:url(#Degradado_sin_nombre_37-2);}.cls-10{fill:#bbb;}.cls-11{fill:#f1bc03;}.cls-12,.cls-19{fill:#fff;}.cls-12{opacity:0.5;}.cls-13,.cls-43,.cls-44,.cls-48{stroke:#fff;}.cls-13,.cls-23,.cls-24,.cls-25,.cls-43,.cls-44,.cls-48{stroke-miterlimit:10;}.cls-13,.cls-43,.cls-44{stroke-width:1.33px;}.cls-13{stroke-dasharray:2.67 2.67;}.cls-14{fill:#a5acba;}.cls-14,.cls-66{mix-blend-mode:multiply;}.cls-15{fill:#dce6f2;}.cls-16{fill:#becbeb;}.cls-17{fill:#0cba83;}.cls-18{fill:#0059d6;}.cls-20{fill:#fbb03b;}.cls-21{fill:#fbbf62;}.cls-22{fill:#ff9129;}.cls-23,.cls-24,.cls-25{stroke:#0068fa;stroke-width:0.67px;}.cls-24{stroke-dasharray:2.66 2.66;}.cls-25{stroke-dasharray:2.71 2.71;}.cls-26{fill:#e43438;}.cls-27{fill:#ed1e79;}.cls-28{fill:#0a1d45;}.cls-29{fill:#3280ff;}.cls-30{fill:#222272;}.cls-31{fill:#6666cd;}.cls-32{fill:#f5c04b;}.cls-33{fill:#f8a343;}.cls-34{fill:#a393f8;}.cls-35{fill:#c6c1f5;}.cls-36,.cls-37,.cls-38,.cls-39,.cls-40,.cls-41,.cls-42{stroke:#a393f8;stroke-linecap:round;stroke-linejoin:round;}.cls-36{stroke-width:2.22px;}.cls-37{stroke-width:1.37px;}.cls-38{stroke-width:1.31px;}.cls-39{stroke-width:1.77px;}.cls-40{stroke-width:1.3px;}.cls-41{stroke-width:1.09px;}.cls-42{stroke-width:3px;}.cls-44{stroke-dasharray:2.62 2.62;}.cls-45{fill:#e8505b;}.cls-46{fill:#2c58e5;}.cls-47{fill:#f78f1e;}.cls-49{clip-path:url(#clip-path);}.cls-50{mix-blend-mode:soft-light;}.cls-51{fill:#67f6fc;}.cls-52{mix-blend-mode:hard-light;}.cls-53,.cls-54,.cls-55,.cls-57{mix-blend-mode:lighten;}.cls-53{fill:url(#Degradado_sin_nombre_274);}.cls-54{fill:url(#Degradado_sin_nombre_274-2);}.cls-55{fill:url(#Degradado_sin_nombre_274-3);}.cls-56{fill:#8df8fd;}.cls-57{fill:url(#Degradado_sin_nombre_386);}.cls-58{fill:#f68f37;}.cls-59{fill:#f1bc02;}.cls-60{fill:#f9f8a8;}.cls-61{fill:#e42f28;}.cls-62{fill:#003557;}.cls-63{fill:#34c8cb;}.cls-64,.cls-66{opacity:0.1;}.cls-65{fill:#02eeed;}.cls-67{fill:#6e4801;}.cls-68{fill:#1d1b2c;}.cls-69{fill:#a08c7a;}.cls-70{fill:#494679;}</style><linearGradient id="Degradado_sin_nombre_4" x1="174.6" y1="-448.13" x2="174.6" y2="321.46" gradientTransform="translate(275.78 -58.02) rotate(76.64)" gradientUnits="userSpaceOnUse"><stop offset="0" stop-color="#fff"/><stop offset="0.22" stop-color="#fff" stop-opacity="0.76"/><stop offset="0.6" stop-color="#fff" stop-opacity="0.36"/><stop offset="0.87" stop-color="#fff" stop-opacity="0.1"/><stop offset="1" stop-color="#fff" stop-opacity="0"/></linearGradient><linearGradient id="Degradado_sin_nombre_37" x1="82.79" y1="172.35" x2="267.56" y2="172.35" gradientUnits="userSpaceOnUse"><stop offset="0" stop-color="#00556a"/><stop offset="1" stop-color="#007d8d"/></linearGradient><linearGradient id="Degradado_sin_nombre_37-2" x1="68.6" y1="175.49" x2="193.91" y2="175.49" xlink:href="#Degradado_sin_nombre_37"/><clipPath id="clip-path"><path class="cls-1" d="M278.58,9.13H72.26c-2,0-3.66,3.16-3.66,7V222.62c0,3.88,1.65,7,3.66,7H278.58c2,0,3.66-3.16,3.66-7V16.17C282.24,12.29,280.59,9.13,278.58,9.13Z"/></clipPath><linearGradient id="Degradado_sin_nombre_274" x1="65.23" y1="172.15" x2="43.55" y2="197.6" gradientUnits="userSpaceOnUse"><stop offset="0" stop-color="#f2ffe9"/><stop offset="0.99" stop-color="#379289" stop-opacity="0"/></linearGradient><linearGradient id="Degradado_sin_nombre_274-2" x1="298.12" y1="118.74" x2="320.58" y2="133.21" xlink:href="#Degradado_sin_nombre_274"/><linearGradient id="Degradado_sin_nombre_274-3" x1="179.68" y1="181.68" x2="174.49" y2="222.77" xlink:href="#Degradado_sin_nombre_274"/><radialGradient id="Degradado_sin_nombre_386" cx="331.03" cy="198.63" r="48.98" gradientTransform="translate(-352.68 -144.5) scale(1.69 1.66)" gradientUnits="userSpaceOnUse"><stop offset="0" stop-color="#fff"/><stop offset="0.99" stop-color="#4fb8e0" stop-opacity="0"/></radialGradient></defs><title>Recurso 5</title><g class="cls-2"><g id="Capa_2" data-name="Capa 2"><g id="Layer_1" data-name="Layer 1"><circle class="cls-3" cx="174.6" cy="145.47" r="136.34" transform="translate(-7.29 281.72) rotate(-76.64)"/><path class="cls-4" d="M315.42,299.36c0,5.43-60.71,9.83-135.58,9.83s-135.58-4.4-135.58-9.83,60.7-9.84,135.58-9.84S315.42,293.92,315.42,299.36Z"/><path class="cls-5" d="M72.72,105H279.35a13,13,0,0,1,13,13V243a0,0,0,0,1,0,0H58.81a0,0,0,0,1,0,0V118.88A13.91,13.91,0,0,1,72.72,105Z"/><path class="cls-6" d="M271.4,263.91H79.75A20.94,20.94,0,0,1,58.81,243H292.34A21,21,0,0,1,271.4,263.91Z"/><rect class="cls-5" x="154.23" y="263.91" width="42.38" height="23.62"/><rect class="cls-4" x="154.23" y="263.91" width="42.38" height="7.49"/><path class="cls-6" d="M224.4,299.36h-98v-2c0-5.39,5-9.79,11.11-9.79H213.3c6.11,0,11.1,4.4,11.1,9.79Z"/><path class="cls-7" d="M72.26,115a3.67,3.67,0,0,0-3.66,3.66v2.63L193.91,229.66h21.46L82.79,115Z"/><path class="cls-7" d="M68.6,161.35V226a3.67,3.67,0,0,0,3.66,3.66H175.74L68.6,137Z"/><path class="cls-7" d="M278.58,115H135L267.56,229.66h11a3.67,3.67,0,0,0,3.66-3.66V118.69A3.67,3.67,0,0,0,278.58,115Z"/><polygon class="cls-8" points="125.37 115.03 82.78 115.03 215.37 229.66 227.93 229.66 267.56 229.66 134.98 115.03 125.37 115.03"/><polygon class="cls-9" points="68.6 137.03 175.74 229.66 193.91 229.66 68.6 121.32 68.6 137.03"/><path class="cls-10" d="M181.2,252.74a6.61,6.61,0,1,1-6.61-6.61A6.61,6.61,0,0,1,181.2,252.74Z"/><rect class="cls-4" x="230.35" y="236.89" width="23.11" height="24.49" transform="translate(-3.58 3.53) rotate(-0.83)"/><rect class="cls-11" x="229.09" y="236.36" width="23.11" height="23.1" transform="translate(-3.56 3.5) rotate(-0.83)"/><rect class="cls-12" x="238.52" y="230.75" width="3.86" height="7.87" transform="translate(-3.3 3.43) rotate(-0.81)"/><path class="cls-13" d="M300.44,103.11V263.58a10.89,10.89,0,0,1-10.88,10.88H211.23"/><path class="cls-13" d="M54.06,254.73V107.13A10.89,10.89,0,0,1,64.94,96.25h78.47"/><path class="cls-14" d="M98.34,184.62H58.65v44.87H98.34c1.42,0,2.56-.77,2.56-1.71V186.33C100.9,185.38,99.76,184.62,98.34,184.62Z"/><rect class="cls-15" x="2.72" y="179.04" width="92.67" height="43.72" rx="2.07"/><rect class="cls-16" x="47.69" y="210.53" width="40.22" height="5.62" transform="translate(135.61 426.68) rotate(180)"/><rect class="cls-16" x="47.69" y="201.99" width="40.22" height="5.62" transform="translate(135.61 409.6) rotate(180)"/><rect class="cls-16" x="47.69" y="193.45" width="24.54" height="5.62" transform="translate(119.93 392.52) rotate(180)"/><rect class="cls-17" x="76.59" y="193.45" width="11.32" height="5.62" transform="translate(164.51 392.52) rotate(180)"/><rect class="cls-16" x="47.69" y="184.91" width="40.22" height="5.62" transform="translate(135.61 375.44) rotate(180)"/><rect class="cls-18" x="10.2" y="184.49" width="31.81" height="31.81"/><path class="cls-19" d="M15.76,200.73v-1.54L22,196.44V198L17.32,200,22,201.88v1.6Z"/><path class="cls-19" d="M27.39,194.46h2.07l-4.64,11H22.75Z"/><path class="cls-19" d="M30.17,201.88,34.89,200,30.17,198v-1.59l6.28,2.75v1.54l-6.28,2.75Z"/><rect class="cls-14" x="58.44" y="115.43" width="13.4" height="36.61"/><rect class="cls-20" y="107.96" width="66.62" height="36.61"/><polygon class="cls-21" points="33.31 144.57 66.62 144.57 33.31 121.64 0 144.57 33.31 144.57"/><polygon class="cls-22" points="33.31 107.96 0 107.96 33.31 130.89 66.62 107.96 33.31 107.96"/><path class="cls-14" d="M351.86,200.54H271.12a2.85,2.85,0,0,0-3.07,2.56v40a2.86,2.86,0,0,0,3.07,2.56h80.74Z"/><polyline class="cls-23" points="356.35 237.9 356.35 239.24 355.01 239.24"/><line class="cls-24" x1="352.35" y1="239.24" x2="257.8" y2="239.24"/><polyline class="cls-23" points="256.47 239.24 255.14 239.24 255.14 237.9"/><line class="cls-25" x1="255.14" y1="235.2" x2="255.14" y2="187.82"/><polyline class="cls-23" points="255.14 186.47 255.14 185.14 256.47 185.14"/><line class="cls-24" x1="259.13" y1="185.14" x2="353.68" y2="185.14"/><polyline class="cls-23" points="355.01 185.14 356.35 185.14 356.35 186.47"/><line class="cls-25" x1="356.35" y1="189.18" x2="356.35" y2="236.55"/><rect class="cls-15" x="354.85" y="183.64" width="3" height="3"/><rect class="cls-15" x="253.63" y="183.64" width="3" height="3"/><rect class="cls-15" x="354.85" y="237.74" width="3" height="3"/><rect class="cls-15" x="253.63" y="237.74" width="3" height="3"/><rect class="cls-15" x="259.62" y="189.62" width="92.24" height="45.13" rx="2.56"/><rect class="cls-16" x="293.89" y="196.45" width="28.5" height="5.58"/><rect class="cls-16" x="293.89" y="205.62" width="36.34" height="5.58"/><rect class="cls-26" x="333.37" y="205.62" width="15.45" height="5.58"/><rect class="cls-16" x="324.56" y="196.45" width="7.94" height="5.58" transform="translate(657.05 398.47) rotate(180)"/><rect class="cls-16" x="334.4" y="196.45" width="12.39" height="5.58" transform="translate(681.19 398.47) rotate(180)"/><rect class="cls-16" x="293.89" y="214.8" width="28.5" height="5.58"/><rect class="cls-16" x="293.89" y="223.98" width="54.92" height="5.57"/><rect class="cls-27" x="324.56" y="214.8" width="7.94" height="5.58" transform="translate(657.05 435.18) rotate(180)"/><rect class="cls-16" x="334.4" y="214.8" width="12.39" height="5.58" transform="translate(681.19 435.18) rotate(180)"/><path class="cls-28" d="M276.83,197.52h0a9.14,9.14,0,0,0-9.13,9.14v2.88h2.9v-3.17a6.23,6.23,0,0,1,6.23-6.24h0a6.23,6.23,0,0,1,6.23,6.24v3.17H286v-2.88A9.14,9.14,0,0,0,276.83,197.52Z"/><path class="cls-21" d="M285.9,209.54H267.76a1.21,1.21,0,0,0-1.21,1.21v14.89a1.21,1.21,0,0,0,1.21,1.21H285.9a1.21,1.21,0,0,0,1.21-1.21V210.75A1.21,1.21,0,0,0,285.9,209.54Zm-7.69,11.89h-2.76l.36-3a1.88,1.88,0,1,1,2,0Z"/><path class="cls-13" d="M159.94,51.05s6.15,38.92,45.7,39.82"/><path class="cls-29" d="M231.32,84.59a6.95,6.95,0,1,1-6.95-7A6.95,6.95,0,0,1,231.32,84.59Z"/><path class="cls-29" d="M229.91,93.84H218.84a6.45,6.45,0,0,0-6.45,6.45v4.81a19.84,19.84,0,0,0,24,0v-4.81A6.45,6.45,0,0,0,229.91,93.84Z"/><path class="cls-30" d="M224.37,109.77a20.52,20.52,0,1,1,20.52-20.52A20.55,20.55,0,0,1,224.37,109.77Zm0-39.75A19.23,19.23,0,1,0,243.6,89.25,19.26,19.26,0,0,0,224.37,70Z"/><path class="cls-31" d="M97.88,110l-4.87.14a2.26,2.26,0,0,1-2.32-2.19h0a2.26,2.26,0,0,1,2.19-2.32l4.87-.15a2.27,2.27,0,0,1,2.33,2.2h0A2.27,2.27,0,0,1,97.88,110Z"/><path class="cls-32" d="M117.52,55.54a24,24,0,1,0-48,.29,24.42,24.42,0,0,0,9.34,19.1l8.6,20.63,14.87.71,7.84-23.1A24.44,24.44,0,0,0,117.52,55.54Z"/><path class="cls-33" d="M94.1,31.37c.13,22,.25,42.76.38,64.52l7.88.38,7.84-23.1a24.44,24.44,0,0,0,7.32-17.63A24.17,24.17,0,0,0,94.1,31.37Z"/><path class="cls-34" d="M105.51,100.58c0,3.12-2.24,5.68-5.05,5.69l-11,.07a5.41,5.41,0,0,1-5.12-5.64h0c0-3.13,2.25-5.69,5.05-5.7l11-.07a5.41,5.41,0,0,1,5.12,5.65Z"/><path class="cls-34" d="M108.32,97.22c0,2.14-2,3.89-4.52,3.91l-17.4.1c-2.51,0-4.55-1.71-4.56-3.85h0c0-2.15,2-3.89,4.51-3.91l17.4-.1c2.51,0,4.55,1.71,4.57,3.85Z"/><path class="cls-35" d="M94.15,98.41l-8.94.27a1,1,0,0,1-1-.93h0a1,1,0,0,1,.93-1l8.94-.26a1,1,0,0,1,1,.92h0A1,1,0,0,1,94.15,98.41Z"/><path class="cls-35" d="M102.6,98.17l-4.19.12a.94.94,0,0,1-1-.92h0a1,1,0,0,1,.92-1l4.2-.12a1,1,0,0,1,1,.93h0A1,1,0,0,1,102.6,98.17Z"/><path class="cls-19" d="M97.08,88.72a2.54,2.54,0,0,1,0-.32c0-.22.06-.52.1-.92.1-.81.24-2,.47-3.54s.53-3.41,1-5.56A37.57,37.57,0,0,1,101,71.26a24.58,24.58,0,0,1,2.1-3.83,4.74,4.74,0,0,1,1.75-1.57,2.61,2.61,0,0,1,2.43.08,1.76,1.76,0,0,1,.7,2.32,3.59,3.59,0,0,1-2,1.7,7,7,0,0,1-5.32-.37,7.06,7.06,0,0,1-3.61-4.27A5.27,5.27,0,0,1,97,62.37a2.3,2.3,0,0,1,2.32-1.78,1.63,1.63,0,0,1,1.3.9,2.28,2.28,0,0,1,.21,1.58A5,5,0,0,1,99,65.61a7.61,7.61,0,0,1-6,1.73,6.63,6.63,0,0,1-5-3.69,3.81,3.81,0,0,1-.17-3.1A2,2,0,0,1,89,59.42a1.91,1.91,0,0,1,1.57.15,2.54,2.54,0,0,1,1.08,1.12,3.87,3.87,0,0,1,.39,1.47,7.41,7.41,0,0,1-.39,2.93,7.63,7.63,0,0,1-3.6,4.29,7.82,7.82,0,0,1-5.3.73,4.08,4.08,0,0,1-2.3-1.22,2,2,0,0,1-.14-2.47,1.67,1.67,0,0,1,1.15-.56,2.45,2.45,0,0,1,1.22.24,3.67,3.67,0,0,1,1.56,1.75c.65,1.39,1.16,2.74,1.69,4,2,5.15,3.49,9.4,4.47,12.35.48,1.47.84,2.62,1.08,3.4.12.38.2.68.27.89s.08.31.08.31l-.11-.3-.3-.88c-.26-.79-.65-1.92-1.14-3.38-1-2.93-2.49-7.17-4.56-12.31-.53-1.28-1.06-2.64-1.69-4a3.59,3.59,0,0,0-1.46-1.64,1.73,1.73,0,0,0-2.06.27,1.7,1.7,0,0,0,.15,2.12,3.78,3.78,0,0,0,2.15,1.13,7.43,7.43,0,0,0,5.1-.72A7.29,7.29,0,0,0,91.39,65a7.17,7.17,0,0,0,.37-2.8,2.8,2.8,0,0,0-1.31-2.35,1.64,1.64,0,0,0-1.33-.13,1.68,1.68,0,0,0-.94,1,3.55,3.55,0,0,0,.17,2.85A6.34,6.34,0,0,0,93.06,67a7.32,7.32,0,0,0,5.72-1.66A4.66,4.66,0,0,0,100.47,63a1.94,1.94,0,0,0-.17-1.36,1.32,1.32,0,0,0-1.06-.74,1.74,1.74,0,0,0-1.27.41,2.19,2.19,0,0,0-.73,1.14,5.06,5.06,0,0,0,.14,2.78,6.84,6.84,0,0,0,3.46,4.1,6.75,6.75,0,0,0,5.09.38,3.45,3.45,0,0,0,1.83-1.56,1.52,1.52,0,0,0-.59-2,2.39,2.39,0,0,0-2.19-.08,4.58,4.58,0,0,0-1.66,1.49,24.53,24.53,0,0,0-2.1,3.78,37.69,37.69,0,0,0-2.35,7.07c-.5,2.14-.82,4-1.07,5.54s-.4,2.71-.53,3.53c-.06.39-.1.7-.13.92A2.38,2.38,0,0,1,97.08,88.72Z"/><path class="cls-19" d="M92.5,90.87l-.85-2-.12-.31L90.1,84.33C89,81,87.53,77,85.54,72l-.63-1.55a8,8,0,0,1-2.19-.17A4.24,4.24,0,0,1,80.3,69a2.19,2.19,0,0,1-.14-2.73,1.87,1.87,0,0,1,1.3-.64,2.52,2.52,0,0,1,1.33.25,4,4,0,0,1,1.67,1.86c.27.59.54,1.2.85,2a7.34,7.34,0,0,0,2.52-.79,7,7,0,0,0,2.56-2.37,6.66,6.66,0,0,1-2.52-2.83,4.07,4.07,0,0,1-.17-3.27A2.14,2.14,0,0,1,89,59.22a2.17,2.17,0,0,1,1.75.16,2.76,2.76,0,0,1,1.17,1.22,4.35,4.35,0,0,1,.41,1.55,7.59,7.59,0,0,1-.4,3,7.86,7.86,0,0,1-.48,1.12,5.72,5.72,0,0,0,1.7.54,6.91,6.91,0,0,0,4.08-.67,7.15,7.15,0,0,1-.29-.77,5.46,5.46,0,0,1-.15-3.07,2.49,2.49,0,0,1,2.55-1.93,1.88,1.88,0,0,1,1.48,1,2.57,2.57,0,0,1,.22,1.73,5.23,5.23,0,0,1-1.87,2.65,8.22,8.22,0,0,1-1,.7,6.5,6.5,0,0,0,2.78,2.67c.24.11.48.21.73.3A20.36,20.36,0,0,1,103,67.31a4.82,4.82,0,0,1,1.83-1.65,2.9,2.9,0,0,1,2.63.09,2,2,0,0,1,.91,1.14,2,2,0,0,1-.12,1.47,3.81,3.81,0,0,1-2.09,1.8,7,7,0,0,1-4.14.13c-.18.36-.36.74-.55,1.15a37.51,37.51,0,0,0-2.34,7c-.5,2.1-.82,4-1.07,5.52l-.66,4.45a2.88,2.88,0,0,1-.06.33l-.49,2,.07-2.05s0-.11,0-.33L97,87.32c.11-.83.24-2,.46-3.41s.53-3.42,1-5.58a37.92,37.92,0,0,1,2.33-7.16l.51-1.08a6.36,6.36,0,0,1-.71-.31,7.16,7.16,0,0,1-3.11-3,7.68,7.68,0,0,1-4.53.74,7,7,0,0,1-2-.63,7.59,7.59,0,0,1-2.85,2.64,8.08,8.08,0,0,1-2.58.85l.56,1.38c2.1,5.29,3.56,9.59,4.47,12.36.49,1.49.86,2.66,1.09,3.41l.26.89a2.63,2.63,0,0,1,.09.32Zm9.81-21.24a6.28,6.28,0,0,0,3.55-.13,3.12,3.12,0,0,0,1.71-1.45,1.3,1.3,0,0,0-.5-1.7,2.2,2.2,0,0,0-2-.07,4.28,4.28,0,0,0-1.58,1.42A20.56,20.56,0,0,0,102.31,69.63ZM81.66,66.32a1.24,1.24,0,0,0-1,.41,1.51,1.51,0,0,0,.15,1.85,3.56,3.56,0,0,0,2,1,7.19,7.19,0,0,0,1.74.16c-.28-.67-.53-1.23-.77-1.74a3.11,3.11,0,0,0-1.36-1.53A1.82,1.82,0,0,0,81.66,66.32Zm8-6.48a1.16,1.16,0,0,0-.42.07,1.44,1.44,0,0,0-.82.85,3.38,3.38,0,0,0,.16,2.67,5.93,5.93,0,0,0,2.22,2.5,7.47,7.47,0,0,0,.43-1,6.78,6.78,0,0,0,.35-2.71A2.57,2.57,0,0,0,90.35,60,1.53,1.53,0,0,0,89.62,59.84ZM99.1,61.1a1.69,1.69,0,0,0-1,.37,2.06,2.06,0,0,0-.66,1,5,5,0,0,0,.15,2.66,5.33,5.33,0,0,0,.23.63,6.89,6.89,0,0,0,.82-.6A4.42,4.42,0,0,0,100.26,63a1.76,1.76,0,0,0-.15-1.22,1.15,1.15,0,0,0-.89-.63Z"/><path class="cls-31" d="M111.17,90.94c0,2.15-2.6,3.9-5.84,3.92L82.86,95C79.63,95,77,93.29,77,91.15h0c0-2.15,2.6-3.9,5.84-3.92l22.47-.13c3.23,0,5.87,1.7,5.88,3.84Z"/><path class="cls-19" d="M75.47,64a1.06,1.06,0,0,1-1-.71,23.86,23.86,0,0,1-.36-14.47,1.06,1.06,0,0,1,2,.58,21.76,21.76,0,0,0,.32,13.18A1.05,1.05,0,0,1,75.82,64,.84.84,0,0,1,75.47,64Z"/><path class="cls-19" d="M77.28,45.1a1.13,1.13,0,0,1-.53-.14,1.06,1.06,0,0,1-.39-1.44,22.53,22.53,0,0,1,2.77-3.83A1.06,1.06,0,1,1,80.7,41.1a20.2,20.2,0,0,0-2.51,3.47A1,1,0,0,1,77.28,45.1Z"/><path class="cls-19" d="M110.41,68.47a1.11,1.11,0,0,1-.46-.11,1.05,1.05,0,0,1-.48-1.41,22.09,22.09,0,0,0,1.59-14.6,1.05,1.05,0,0,1,2-.49,23.78,23.78,0,0,1-1.75,16A1.06,1.06,0,0,1,110.41,68.47Z"/><rect class="cls-36" x="107.21" y="6.23" width="27.94" height="29.37" transform="translate(24.96 -55.66) rotate(28.72)"/><rect class="cls-37" x="114.51" y="10.45" width="22.03" height="5.1" transform="translate(21.69 -58.72) rotate(28.72)"/><rect class="cls-37" x="111.24" y="14.22" width="10.93" height="5.6" transform="translate(22.53 -53.98) rotate(28.71)"/><rect class="cls-38" x="122.46" y="20.17" width="9.98" height="5.6" transform="translate(26.71 -58.41) rotate(28.72)"/><line class="cls-37" x1="109.86" y1="19.15" x2="128.69" y2="29.54"/><line class="cls-37" x1="108.59" y1="21.01" x2="127.41" y2="31.41"/><line class="cls-37" x1="107.61" y1="23.07" x2="126.43" y2="33.47"/><line class="cls-37" x1="106.43" y1="25.13" x2="125.26" y2="35.53"/><rect class="cls-39" x="43.42" y="27.11" width="22.23" height="23.37" transform="translate(-12.07 32.28) rotate(-29.84)"/><rect class="cls-40" x="45.18" y="29.73" width="17.53" height="16.08" transform="translate(-11.64 31.85) rotate(-29.84)"/><polyline class="cls-41" points="48.52 45.5 50.48 39.13 57.51 39.84 59.08 35.37 63.13 36.2"/><path class="cls-41" d="M55.94,34.32a2.46,2.46,0,1,1-3-1.81A2.47,2.47,0,0,1,55.94,34.32Z"/><polyline class="cls-42" points="121.73 54.9 125.52 59.76 137.14 49.11"/><path class="cls-43" d="M94.1,107.76a9.89,9.89,0,0,0-.26,1.31"/><path class="cls-44" d="M93.76,111.68c.3,3.53,2.45,8.16,11.75,8,14.71-.21,52.56-21.26,55.16-66"/><path class="cls-43" d="M160.74,52.38c0-.44,0-.88,0-1.33"/><path class="cls-45" d="M179.6,44.48a17.87,17.87,0,1,1-17.87-17.87A17.87,17.87,0,0,1,179.6,44.48Z"/><path class="cls-45" d="M179.6,44.48a17.87,17.87,0,1,1-17.87-17.87A17.87,17.87,0,0,1,179.6,44.48Z"/><path class="cls-46" d="M161.87,26.61h-.14a17.87,17.87,0,0,0-17.87,17.87h18Z"/><path class="cls-47" d="M179.6,44.48a17.87,17.87,0,0,0-17.73-17.87h0V44.48l6.41,16.62A17.86,17.86,0,0,0,179.6,44.48Z"/><line class="cls-48" x1="161.87" y1="44.48" x2="161.87" y2="26.61"/><line class="cls-48" x1="161.87" y1="44.48" x2="143.86" y2="44.48"/><line class="cls-48" x1="161.87" y1="44.48" x2="168.28" y2="61.1"/><polygon class="cls-32" points="195.88 45.62 196.69 47.11 198.18 47.92 196.69 48.73 195.88 50.22 195.07 48.73 193.58 47.92 195.07 47.11 195.88 45.62"/><polygon class="cls-32" points="201.88 97.53 202.43 98.53 203.43 99.08 202.43 99.63 201.88 100.64 201.32 99.63 200.32 99.08 201.32 98.53 201.88 97.53"/><polygon class="cls-32" points="204.35 55.11 205.5 57.21 207.59 58.35 205.5 59.5 204.35 61.6 203.2 59.5 201.1 58.35 203.2 57.21 204.35 55.11"/><g class="cls-49"><g class="cls-50"><path class="cls-51" d="M67.48,177.55c-.35,0-.69,0-1,0a8.14,8.14,0,0,0,.11-1.22,7.7,7.7,0,0,0-7.76-7.64,7.87,7.87,0,0,0-3.69.91,16.81,16.81,0,0,0,.24-2.86,17.76,17.76,0,0,0-15.9-17.54v35.08a18,18,0,0,0,3.84-.86,7.69,7.69,0,0,0,6.87,7.13,18,18,0,1,0,17.32-13Z"/><path class="cls-51" d="M323,121V97.16a13.19,13.19,0,0,0-4.84-.92,13,13,0,0,0-13.06,12.85,12.64,12.64,0,0,0,2,6.8,7,7,0,0,0-7,7,6.76,6.76,0,0,0,.54,2.66A14.91,14.91,0,1,0,316.2,140.4a14.79,14.79,0,0,0-5.58-11.55,6.93,6.93,0,0,0,3.49-6,6.83,6.83,0,0,0-.19-1.58,13.22,13.22,0,0,0,9-.24Z"/><g class="cls-52"><path class="cls-53" d="M67.48,177.55c-.35,0-.69,0-1,0a8.14,8.14,0,0,0,.11-1.22,7.7,7.7,0,0,0-7.76-7.64,7.87,7.87,0,0,0-3.69.91,16.81,16.81,0,0,0,.24-2.86,17.76,17.76,0,0,0-15.9-17.54v35.08a18,18,0,0,0,3.84-.86,7.69,7.69,0,0,0,6.87,7.13,18,18,0,1,0,17.32-13Z"/></g><g class="cls-52"><path class="cls-54" d="M323,121V97.16a13.19,13.19,0,0,0-4.84-.92,13,13,0,0,0-13.06,12.85,12.64,12.64,0,0,0,2,6.8,7,7,0,0,0-7,7,6.76,6.76,0,0,0,.54,2.66A14.91,14.91,0,1,0,316.2,140.4a14.79,14.79,0,0,0-5.58-11.55,6.93,6.93,0,0,0,3.49-6,6.83,6.83,0,0,0-.19-1.58,13.22,13.22,0,0,0,9-.24Z"/></g><path class="cls-51" d="M240.77,186a17.87,17.87,0,0,0-17.68,14.67,7.14,7.14,0,0,0-10.07,1,13.17,13.17,0,0,0-16.23-5.59,18.06,18.06,0,0,0-31-5.35,12.22,12.22,0,0,0-17.91-6.42,27.18,27.18,0,1,0,2,21.28A12.34,12.34,0,0,0,162,203.75a17.85,17.85,0,0,0,17.83,15.73,18.07,18.07,0,0,0,11.26-3.91,13.15,13.15,0,0,0,23.17-4,7.12,7.12,0,0,0,9.9-1.24A17.88,17.88,0,1,0,240.77,186Z"/><g class="cls-52"><path class="cls-55" d="M240.77,186a17.87,17.87,0,0,0-17.68,14.67,7.14,7.14,0,0,0-10.07,1,13.17,13.17,0,0,0-16.23-5.59,18.06,18.06,0,0,0-31-5.35,12.22,12.22,0,0,0-17.91-6.42,27.18,27.18,0,1,0,2,21.28A12.34,12.34,0,0,0,162,203.75a17.85,17.85,0,0,0,17.83,15.73,18.07,18.07,0,0,0,11.26-3.91,13.15,13.15,0,0,0,23.17-4,7.12,7.12,0,0,0,9.9-1.24A17.88,17.88,0,1,0,240.77,186Z"/></g><path class="cls-51" d="M87.62,175.41a2,2,0,1,1,2,2A2,2,0,0,1,87.62,175.41Z"/><path class="cls-51" d="M268.1,167.34a3.44,3.44,0,1,1,3.44,3.38A3.42,3.42,0,0,1,268.1,167.34Z"/><path class="cls-51" d="M76.17,167.93a3.44,3.44,0,1,1,3.43,3.38A3.41,3.41,0,0,1,76.17,167.93Z"/><path class="cls-51" d="M294.35,92.92a3.44,3.44,0,1,1,3.44,3.38A3.41,3.41,0,0,1,294.35,92.92Z"/><path class="cls-51" d="M239.15,178.52a1.06,1.06,0,1,1,1.06,1A1,1,0,0,1,239.15,178.52Z"/><path class="cls-51" d="M169,178.52a1.06,1.06,0,1,1,1.06,1A1,1,0,0,1,169,178.52Z"/></g><path class="cls-56" d="M306.86,136.25a19.14,19.14,0,0,0,2.92,10.17,19.87,19.87,0,0,0-6.84-1.2,19.59,19.59,0,0,0-19.75,19.43,19.09,19.09,0,0,0,2.19,8.9,7.59,7.59,0,0,0-9.77,7.14,7,7,0,0,0,.18,1.61,20,20,0,0,0-9.56-2.42,19.6,19.6,0,0,0-19.75,19.43,19.16,19.16,0,0,0,4.26,12.05,6.07,6.07,0,0,0-2.56-.57,6,6,0,0,0-5.57,3.74,18.92,18.92,0,0,0-34.81,4.58,6,6,0,0,0-9.89-2c.16-13,9.23-28.12,20.22-50.29l-3.83-2.07-.31-.17-3.84-2.08c-14.1,22.61-24.18,40-34.91,44.68A7.64,7.64,0,0,0,161.06,204a21.73,21.73,0,0,0-42.89,1.33,7.67,7.67,0,0,0-3.82-1,7.56,7.56,0,0,0-7.61,7.2A21.82,21.82,0,0,0,68,206.26a7.57,7.57,0,0,0-7.61-7.21,7.67,7.67,0,0,0-4.93,1.78c0-.2,0-.4,0-.6a21.39,21.39,0,0,0-16-20.58v50.49H323v-113A19.53,19.53,0,0,0,306.86,136.25Z"/><path class="cls-57" d="M306.86,136.25a19.14,19.14,0,0,0,2.92,10.17,19.87,19.87,0,0,0-6.84-1.2,19.59,19.59,0,0,0-19.75,19.43,19.09,19.09,0,0,0,2.19,8.9,7.59,7.59,0,0,0-9.77,7.14,7,7,0,0,0,.18,1.61,20,20,0,0,0-9.56-2.42,19.6,19.6,0,0,0-19.75,19.43,19.16,19.16,0,0,0,4.26,12.05,6.07,6.07,0,0,0-2.56-.57,6,6,0,0,0-5.57,3.74,18.92,18.92,0,0,0-34.81,4.58,6,6,0,0,0-9.89-2c.16-13,9.23-28.12,20.22-50.29l-3.83-2.07-.31-.17-3.84-2.08c-14.1,22.61-24.18,40-34.91,44.68A7.64,7.64,0,0,0,161.06,204a21.73,21.73,0,0,0-42.89,1.33,7.67,7.67,0,0,0-3.82-1,7.56,7.56,0,0,0-7.61,7.2A21.82,21.82,0,0,0,68,206.26a7.57,7.57,0,0,0-7.61-7.21,7.67,7.67,0,0,0-4.93,1.78c0-.2,0-.4,0-.6a21.39,21.39,0,0,0-16-20.58v50.49H323v-113A19.53,19.53,0,0,0,306.86,136.25Z"/><path class="cls-19" d="M323,181.82h0a9.4,9.4,0,0,0-6.44-2.54,9.17,9.17,0,0,0-8.76,12.41,18,18,0,0,0-3.31-.31,17.39,17.39,0,0,0-17.53,17.25,17.13,17.13,0,0,0,.57,4.38,5,5,0,0,0-1.56-.25,4.9,4.9,0,0,0-4.94,4.86c0,.09,0,.19,0,.29a13.83,13.83,0,0,0-6.78-1.77,13.59,13.59,0,0,0-13.7,13.49c0,.17,0,.33,0,.5H323V181.83Z"/><path class="cls-19" d="M214.76,228.05a9.45,9.45,0,0,0-14.87,2.09h43a14.4,14.4,0,0,0-28.12-2.09Z"/><path class="cls-19" d="M174.58,213.11A14.4,14.4,0,0,0,163,218.9a9.41,9.41,0,0,0-15.86-.09A15.51,15.51,0,0,0,117,222.9a6.66,6.66,0,0,0-5.15-2.43,6.58,6.58,0,0,0-6.56,5.7,14.47,14.47,0,0,0-24,4H188.64a13.85,13.85,0,0,0,.3-2.9A14.25,14.25,0,0,0,174.58,213.11Z"/><path class="cls-19" d="M62.39,222.68a7.53,7.53,0,0,0-2.39.38c0-.19,0-.38,0-.58a14.38,14.38,0,0,0-20.55-12.74v20.4H70A7.52,7.52,0,0,0,62.39,222.68Z"/><path class="cls-58" d="M224,168.25c-7,5.75-12.15,8.58-23.59,23.59a.86.86,0,0,0-.07.1l0-.12c5.35-18.11,4.61-23.92,5.09-33s8.36-16.51,8.36-16.51l9.61,4,0,0,8.91,5.41S231,162.48,224,168.25Z"/><path class="cls-59" d="M207.88,177a94.58,94.58,0,0,0,1.21-13.81c0-1.35.08-2.76.16-4.21.25-4.79,4.77-11.93,6.76-14.36l6.29,3.2,6.46,3.29c-.77,3-3.44,11.11-7.16,14.15-1.13.92-2.24,1.78-3.31,2.62A94.43,94.43,0,0,0,207.88,177Z"/><path class="cls-60" d="M212.2,168.44c.26-2.18.45-4.2.64-6.2v0c.14-1.53.29-3.12.47-4.74.34-3,3-8.14,5.18-11.65l7.86,4c-1.53,4.24-3.87,9.29-6,11.24-1.2,1.1-2.39,2.16-3.54,3.18h0C215.31,165.59,213.79,166.94,212.2,168.44Z"/><path class="cls-61" d="M216.19,118.07a16.12,16.12,0,0,0-5.49,2.47c-8.71,5.85-15.34,19.16-15.34,19.16h0c-.21-.19-8.7-8.08-5.81-22.6,1.53-7.62,6.29-13.33,10.52-17.06a2.14,2.14,0,0,1,2.43-.32,2.32,2.32,0,0,1,1.14,1.32,2.18,2.18,0,0,1-.15,1.66l12.88-8.64L226,87.6h0C224.66,101.25,216.19,118.07,216.19,118.07Z"/><path class="cls-4" d="M195.35,139.7c-.21-.19-8.7-8.08-5.81-22.6,1.53-7.62,6.29-13.33,10.52-17.06a2.14,2.14,0,0,1,2.43-.32,2.32,2.32,0,0,1,1.14,1.32c0,.53-.09,1.09-.15,1.66,0,0-8.7,8.66-10.26,20.25C191.69,134.37,195.24,139.54,195.35,139.7Z"/><path class="cls-4" d="M216.19,118.07a16.12,16.12,0,0,0-5.49,2.47c-.27-9.39,2.61-19,5.66-26.48L226,87.6h0C224.66,101.25,216.19,118.07,216.19,118.07Z"/><path class="cls-61" d="M250.41,135.48a16.15,16.15,0,0,1,1.26,5.9c.42,10.5-6.39,23.72-6.39,23.72h0c.27.06,11.64,2.28,21.63-8.64,5.24-5.73,7-13,7.54-18.57a2.14,2.14,0,0,0-1.18-2.16,2.3,2.3,0,0,0-1.73-.14,2.12,2.12,0,0,0-1.25,1.1l-.64-15.51-.48-11.62h0C259,118.7,250.41,135.48,250.41,135.48Z"/><path class="cls-4" d="M245.29,165.1c.27.06,11.64,2.28,21.63-8.64,5.24-5.73,7-13,7.54-18.57a2.14,2.14,0,0,0-1.18-2.16,2.3,2.3,0,0,0-1.73-.14c-.4.34-.82.71-1.25,1.1,0,0-1.84,12.15-10.26,20.25S245.48,165.09,245.29,165.1Z"/><path class="cls-4" d="M250.41,135.48a16.15,16.15,0,0,1,1.26,5.9c7.72-5.33,13.78-13.34,18-20.2l-.48-11.62h0C259,118.7,250.41,135.48,250.41,135.48Z"/><path class="cls-19" d="M268.4,110.83a112.91,112.91,0,0,1-6,10.79,68.12,68.12,0,0,1-7.45,9.44c-.1.11-.2.21-.31.31l-5.39,5.08-6,5.61L232,152.75l-18.89-9.62.22-1.75,1.7-13.71,1-8.13a92,92,0,0,1,8.93-29.81c.13-.27.26-.54.4-.81a101.41,101.41,0,0,1,21.5-29q.78-.72,1.56-1.41c1.24-1.09,2.48-2.12,3.69-3.07l1.56-1.2.78-.57a77.41,77.41,0,0,1,9.29-5.84,64.31,64.31,0,0,1,8.14-3.66A3.84,3.84,0,0,1,277,46.8a71.51,71.51,0,0,1,2.63,19.7v1.07c0,.64,0,1.3-.05,2-.05,1.54-.15,3.14-.3,4.79,0,.67-.13,1.35-.2,2A101.81,101.81,0,0,1,268.4,110.83Z"/><path class="cls-62" d="M237.88,147.16,232,152.75c-.92-.19-1.83-.41-2.73-.65-.75-.21-1.5-.43-2.23-.67a37.45,37.45,0,0,1-7.37-3.3,34,34,0,0,1-6.56-5l1-8.08a54.21,54.21,0,0,0,8.39,6.11,51.89,51.89,0,0,0,11.1,4.87c.65.2,1.31.39,2,.56S237.09,147,237.88,147.16Z"/><path class="cls-4" d="M219.63,148.13a34,34,0,0,1-6.56-5l1-8.08.92-7.38,1-8.13a92,92,0,0,1,8.93-29.81c.13-.27.26-.54.4-.81,8.82-17.4,19.7-28.39,29.09-35.24a77.41,77.41,0,0,1,9.29-5.84c1.32,2.52,2.55,2.46.65,7.95,0,0-27.39,17.64-35.49,43.42-7.43,23.61,1.71,22,1.71,22l-8.12,19.91Z"/><path class="cls-61" d="M218.87,157.73a1.24,1.24,0,0,1-1.4.18,1.23,1.23,0,0,1-.68-1.24c2.1-21.1,21.28-47.78,29.5-58.37a1.25,1.25,0,0,1,2.19,1.11C244.8,112.31,234.62,143.57,218.87,157.73Z"/><path class="cls-4" d="M247.84,98l-30.37,60a1.23,1.23,0,0,1-.68-1.24c2.1-21.1,21.28-47.78,29.5-58.37A1.22,1.22,0,0,1,247.84,98Z"/><path class="cls-62" d="M266.42,87.54a11.87,11.87,0,1,1-5.22-16A11.84,11.84,0,0,1,266.42,87.54Z"/><path class="cls-63" d="M264.21,86.42l-.06.11a9.36,9.36,0,0,1-12.44,4l-.11,0A9.42,9.42,0,0,1,247,85.34a9.49,9.49,0,0,1-.54-3.78,9.38,9.38,0,0,1,13.6-7.76,9.45,9.45,0,0,1,3,2.36,9.62,9.62,0,0,1,1.79,3.37A9.33,9.33,0,0,1,265,84,9.57,9.57,0,0,1,264.21,86.42Z"/><path class="cls-64" d="M265,84a9.33,9.33,0,0,0-.21-4.46A9.62,9.62,0,0,0,263,76.16a9.37,9.37,0,0,0-15.56,1.75,6.29,6.29,0,0,0-.32.7,9.39,9.39,0,0,1,17.18,6.76,9.22,9.22,0,0,1-.51,1.73l.32-.57.06-.11A9.57,9.57,0,0,0,265,84Z"/><path class="cls-65" d="M261.27,78s1.65,5.1-1.34,8.47c-3.28,3.69-7.26,2.57-10.54-.48a7.3,7.3,0,0,0,6.82,4.31C261.78,90.52,265.09,83.71,261.27,78Z"/><path class="cls-61" d="M279.63,66.5a82.17,82.17,0,0,1-25.21-12.82,71.34,71.34,0,0,1,17.43-9.5,3.9,3.9,0,0,1,3.74.5A4.11,4.11,0,0,1,277,46.8,71.51,71.51,0,0,1,279.63,66.5Z"/><path class="cls-4" d="M276.64,52.06c-.15-.78-.18-1.33-.37-2.55-.31-1.9-.87-2.57-2.11-2.19-2.25.68-2,10.63,1.57,13.36C278.47,62.8,277.3,55.43,276.64,52.06Z"/><path class="cls-4" d="M279.63,66.5a82.17,82.17,0,0,1-25.21-12.82,71.34,71.34,0,0,1,17.43-9.5,3.9,3.9,0,0,1,3.74.5c-.8.21-6.51,1.83-8.68,6.12C264.57,55.42,268.48,62.48,279.63,66.5Z"/></g><g class="cls-66"><path class="cls-67" d="M249.73,33.24a31.9,31.9,0,1,1-31.9-31.89A31.9,31.9,0,0,1,249.73,33.24Z"/></g><path class="cls-68" d="M246.26,30.57A30.57,30.57,0,1,1,215.69,0,30.57,30.57,0,0,1,246.26,30.57Z"/><path class="cls-19" d="M215.69,1.54a29.36,29.36,0,0,0-29.37,29.37,29,29,0,0,0,.29,4.08,29.36,29.36,0,0,0,58.16,0,29,29,0,0,0,.29-4.08A29.36,29.36,0,0,0,215.69,1.54Z"/><polygon class="cls-69" points="220.32 35.75 218.35 36.49 205.29 12.35 206.16 12.35 220.32 35.75"/><polygon class="cls-69" points="220.32 25.9 221.55 27.13 195.32 47.94 195.32 47.2 220.32 25.9"/><rect class="cls-69" x="216.27" y="19.7" width="0.58" height="33.22" transform="translate(-2 15.12) rotate(-3.98)"/><path class="cls-70" d="M215.05,3.55v6.3h-.47V4h-.39V3.55Zm-.83,0V4h.4V9.8H215V3.59Zm.71.08V9.72h-.23V3.9h-.4V3.67Z"/><path class="cls-70" d="M217.83,5.67c0,.46-.42.85-.87,1.27s-.8.76-.82,1.12V9.35h1.69v.5h-2.17V8.05a2.4,2.4,0,0,1,1-1.47c.35-.31.71-.68.72-.91v-1c0-.56-.3-.73-.59-.73s-.61.31-.61.76v.48h-.46v-.5a1.09,1.09,0,0,1,1.07-1.23,1.07,1.07,0,0,1,1.05,1.21Zm0-1a1,1,0,0,0-1-1.16,1,1,0,0,0-1,1.18v.46h.37V4.74c0-.47.23-.8.66-.8s.64.18.64.77v1c0,.24-.39.62-.74.94a2.44,2.44,0,0,0-1,1.44V9.8h2.08V9.4H216.1V8.05c0-.37.42-.75.83-1.14s.86-.8.86-1.24Zm-.07,1c0,.41-.42.78-.84,1.17s-.85.79-.86,1.21V9.49h1.7v.23h-1.93V8.05a2.3,2.3,0,0,1,.94-1.37c.38-.34.76-.73.77-1v-1c0-.67-.37-.87-.72-.87s-.74.38-.74.9v.35h-.2V4.72a1,1,0,0,1,.94-1.1,1,1,0,0,1,.94,1.08Z"/><path class="cls-70" d="M240.21,30.57h.34c.41,0,.61-.4.61-.83V28.45c0-.5-.24-.74-.56-.74s-.65.3-.65.75V29h-.45v-.5a1.05,1.05,0,0,1,1.1-1.21c.55,0,1,.37,1,1.2v1.3a1.17,1.17,0,0,1-.44,1.05,1.29,1.29,0,0,1,.51,1.2v.35a1.15,1.15,0,1,1-2.28,0v-.57h.45v.57c0,.49.26.82.7.82s.66-.34.66-.83V32c0-.49-.17-.92-.68-.92h-.35Zm0,.45h.31c.54,0,.73.45.73,1v.35c0,.51-.27.88-.71.88s-.74-.35-.74-.87v-.53h-.37v.53a1.16,1.16,0,0,0,1.11,1.28,1.14,1.14,0,0,0,1.09-1.29V32a1.24,1.24,0,0,0-.54-1.19,1.22,1.22,0,0,0,.46-1.06v-1.3c0-.8-.46-1.17-1-1.17a1,1,0,0,0-1.06,1.18v.46h.37v-.45c0-.48.25-.78.69-.78s.61.24.61.77v1.29c0,.46-.23.85-.66.88h-.3Zm.08-.32h.23c.48,0,.73-.46.73-1V28.45c0-.58-.31-.86-.69-.86s-.77.34-.77.87v.36h-.21v-.37a1,1,0,0,1,1-1.09c.49,0,.91.33.91,1.08v1.3a1.18,1.18,0,0,1-.56,1.07c.45.17.63.58.63,1.18v.35c0,.66-.36,1.2-1,1.2a1.06,1.06,0,0,1-1-1.19v-.44h.21v.44c0,.57.3.95.82.95s.79-.4.79-1V32c0-.56-.21-1.06-.81-1.06h-.23Z"/><path class="cls-70" d="M216.81,56.16v.67c0,.74-.4,1.32-1.14,1.32a1.17,1.17,0,0,1-1.15-1.32V53.07a1.2,1.2,0,0,1,1.16-1.32c.72,0,1.11.54,1.11,1.33v.34h-.46v-.34c0-.5-.22-.86-.65-.86s-.68.33-.69.85v2a1,1,0,0,1,.7-.29C216.36,54.82,216.81,55.29,216.81,56.16Zm-1.87-.94V53.07c0-.55.29-.88.74-.88s.68.37.68.89v.3h.38v-.3c0-.77-.38-1.29-1.06-1.29a1.16,1.16,0,0,0-1.12,1.28v3.76a1.14,1.14,0,0,0,1.11,1.28c.72,0,1.08-.55,1.1-1.28v-.67c0-.83-.44-1.29-1.08-1.29A1.08,1.08,0,0,0,214.94,55.22Zm1.75.94v.67c0,.68-.36,1.19-1,1.19a1.06,1.06,0,0,1-1-1.19V53.07a1.08,1.08,0,0,1,1-1.2c.64,0,1,.5,1,1.21v.22h-.22v-.22c0-.58-.25-1-.76-1s-.8.37-.82,1v2.38a1,1,0,0,1,.83-.49C216.29,55,216.69,55.38,216.69,56.16Zm-.22,0c0-.67-.28-1-.78-1a.86.86,0,0,0-.82,1v.68a.84.84,0,0,0,.8,1c.53,0,.8-.44.8-1Zm-.08.66c0,.48-.24.88-.72.88s-.72-.4-.72-.87v-.68c0-.49.27-.88.74-.88s.7.28.7.89Zm0-.66c0-.58-.23-.85-.65-.85s-.7.37-.7.84v.68c0,.44.24.82.68.82s.67-.38.67-.83Z"/><path class="cls-70" d="M191.06,32.45a1.2,1.2,0,0,1-1.18,1.34,1.22,1.22,0,0,1-1.12-1.35V32.1h.46v.34c0,.47.24.84.66.84s.72-.36.72-.83V31.08a1,1,0,0,1-.68.36c-.9,0-1.16-.87-1.16-1.62v-.88c0-.77.32-1.58,1.16-1.58s1.14.76,1.14,1.58ZM191,28.94c0-.8-.31-1.54-1.09-1.54s-1.12.79-1.12,1.54v.88c0,.73.25,1.57,1.12,1.57a.93.93,0,0,0,.72-.42v1.48c0,.49-.25.87-.76.87s-.7-.39-.7-.88v-.3h-.38v.3a1.17,1.17,0,0,0,1.08,1.3A1.14,1.14,0,0,0,191,32.45Zm-.07,3.51a1,1,0,1,1-2.05,0v-.21h.21v.21c0,.54.28,1,.78,1a.85.85,0,0,0,.84-1V30.63a.89.89,0,0,1-.8.67c-.81,0-1-.79-1-1.48v-.88c0-.71.29-1.45,1-1.45s1,.7,1,1.45Zm-.24-3.51c0-.57-.16-1.21-.78-1.21s-.82.63-.82,1.21v.88c0,.48.14,1.24.82,1.24s.78-.74.78-1.25Zm-.07.87c0,.47-.21,1.17-.71,1.17s-.74-.71-.74-1.16v-.88c0-.54.21-1.12.74-1.12s.71.59.71,1.12Zm0-.87c0-.51-.15-1.09-.67-1.09s-.69.57-.69,1.09v.88c0,.43.11,1.11.69,1.11s.67-.66.67-1.12Z"/></g></g></g></svg>